<?xml version="1.0" standalone="no"?>
<!DOCTYPE svg PUBLIC "-//W3C//DTD SVG 1.1//EN" "http://www.w3.org/Graphics/SVG/1.1/DTD/svg11.dtd" >
<svg xmlns="http://www.w3.org/2000/svg" xmlns:xlink="http://www.w3.org/1999/xlink" version="1.1">
<metadata>
Created by FontForge 20170731 at Sun Sep  8 11:09:46 2013
 By Aleksey,,,
Copyright (c) 2013 by Misti's Fonts (Misti Hammers). All rights reserved.
</metadata>
<defs>
<font id="KillTheLights" horiz-adv-x="505" >
  <font-face 
    font-family="Kill The Lights"
    font-weight="400"
    font-stretch="normal"
    units-per-em="1000"
    panose-1="0 0 0 0 0 0 0 0 0 0"
    ascent="750"
    descent="-250"
    x-height="497"
    cap-height="696"
    bbox="-24 -284 1003 924"
    underline-thickness="50"
    underline-position="-150"
    unicode-range="U+0020-FB04"
  />
<missing-glyph horiz-adv-x="500" 
 />
    <glyph glyph-name="ff" unicode="ff" horiz-adv-x="734" 
d="M451 396h277v-50h-277v-345h-50v345h-317v-345h-50v634l2 9q11 28 30.5 50t45.5 36t55.5 19t58.5 -1q30 -6 56.5 -22.5t45.5 -41.5q39 -53 33 -117l-3 -25h-49l2 30q2 21 -4 42.5t-19 39.5q-13 17 -32 28.5t-40 16.5q-43 8 -80 -12q-35 -20 -52 -57v-234h317v239l2 9
q11 28 30.5 50t45.5 36t55.5 19t58.5 -1q30 -6 56.5 -22.5t45.5 -41.5q39 -53 33 -117l-3 -25h-49l2 30q2 21 -4 42.5t-19 39.5q-13 17 -32 28.5t-40 16.5q-43 8 -80 -12q-35 -20 -52 -57v-234z" />
    <glyph glyph-name="fi" unicode="fi" horiz-adv-x="516" 
d="M467 2h-50v344h-333v-345h-50v634l2 9q11 28 30.5 50t45.5 36t55.5 19t58.5 -1q30 -6 56.5 -22.5t45.5 -41.5q39 -53 33 -117l-3 -25h-49l2 30q2 21 -4 42.5t-19 39.5q-13 17 -32 28.5t-40 16.5q-43 8 -80 -12q-35 -20 -52 -57v-234h333v100h50v-494zM500 641
q0 -24 -17 -41t-41 -17t-41 17t-17 41q0 25 17 42t41 17t41 -17t17 -42z" />
    <glyph glyph-name="fl" unicode="fl" horiz-adv-x="494" 
d="M453 2h-50v344h-319v-345h-50v634l2 9q11 28 30.5 50t45.5 36t55.5 19t58.5 -1q30 -6 56.5 -22.5t45.5 -41.5q39 -53 33 -117l-3 -25h-49l2 30q2 21 -4 42.5t-19 39.5q-13 17 -32 28.5t-40 16.5q-43 8 -80 -12q-35 -20 -52 -57v-234h319v354h50v-748z" />
    <glyph glyph-name="ffi" unicode="ffi" horiz-adv-x="883" 
d="M451 630v-234h333v100h50v-494h-50v344h-333v-345h-50v345h-317v-345h-50v634l2 9q11 28 30.5 50t45.5 36t55.5 19t58.5 -1q30 -6 56.5 -22.5t45.5 -41.5q39 -53 33 -117l-3 -25h-49l2 30q2 21 -4 42.5t-19 39.5q-13 17 -32 28.5t-40 16.5q-43 8 -80 -12q-35 -20 -52 -57
v-234h317v239l2 9q11 28 30.5 50t45.5 36t55.5 19t58.5 -1q30 -6 56.5 -22.5t45.5 -41.5q39 -53 33 -117l-3 -25h-49l2 30q2 21 -4 42.5t-19 39.5q-13 17 -32 28.5t-40 16.5q-43 8 -80 -12q-35 -20 -52 -57zM867 641q0 -24 -17 -41t-41 -17t-41 17t-17 41q0 25 17 42t41 17
t41 -17t17 -42z" />
    <glyph glyph-name="ffl" unicode="ffl" horiz-adv-x="861" 
d="M451 630v-234h319v354h50v-748h-50v344h-319v-345h-50v345h-317v-345h-50v634l2 9q11 28 30.5 50t45.5 36t55.5 19t58.5 -1q30 -6 56.5 -22.5t45.5 -41.5q39 -53 33 -117l-3 -25h-49l2 30q2 21 -4 42.5t-19 39.5q-13 17 -32 28.5t-40 16.5q-43 8 -80 -12q-35 -20 -52 -57
v-234h317v239l2 9q11 28 30.5 50t45.5 36t55.5 19t58.5 -1q30 -6 56.5 -22.5t45.5 -41.5q39 -53 33 -117l-3 -25h-49l2 30q2 21 -4 42.5t-19 39.5q-13 17 -32 28.5t-40 16.5q-43 8 -80 -12q-35 -20 -52 -57z" />
    <glyph glyph-name="t_t" unicode="tt" horiz-adv-x="734" 
d="M728 185q3 -31 -5.5 -61t-27.5 -55t-45.5 -42t-56.5 -23q-17 -3 -33 -3q-44 0 -81 21q-26 14 -45.5 36.5t-30.5 49.5l-2 9v240h-317v-235q8 -17 21.5 -32t30.5 -24q38 -21 80 -13q21 5 40 16.5t32 29.5q13 17 19 38.5t4 43.5l-2 29h49l3 -25q3 -31 -5.5 -61t-27.5 -55
t-45.5 -42t-56.5 -23q-17 -3 -33 -3q-44 0 -81 21q-26 14 -45.5 36.5t-30.5 49.5l-2 9v631h50v-341h317v341h50v-341h277v-50h-277v-235q8 -17 21.5 -32t30.5 -24q38 -21 80 -13q21 5 40 16.5t32 29.5q13 17 19 38.5t4 43.5l-2 29h49l3 -25v0z" />
    <glyph glyph-name="t_t_i" unicode="tti" horiz-adv-x="883" 
d="M834 2h-50v355h-333v-235q8 -17 21.5 -32t30.5 -24q38 -21 80 -13q21 5 40 16.5t32 29.5q13 17 19 38.5t4 43.5l-2 29h49l3 -25q3 -31 -5.5 -61t-27.5 -55t-45.5 -42t-56.5 -23q-17 -3 -33 -3q-44 0 -81 21q-26 14 -45.5 36.5t-30.5 49.5l-2 9v240h-317v-235
q8 -17 21.5 -32t30.5 -24q38 -21 80 -13q21 5 40 16.5t32 29.5q13 17 19 38.5t4 43.5l-2 29h49l3 -25q3 -31 -5.5 -61t-27.5 -55t-45.5 -42t-56.5 -23q-17 -3 -33 -3q-44 0 -81 21q-26 14 -45.5 36.5t-30.5 49.5l-2 9v631h50v-341h317v341h50v-341h333v89h50v-494zM867 641
q0 -24 -17 -41t-41 -17t-41 17t-17 41q0 25 17 42t41 17t41 -17t17 -42z" />
    <glyph glyph-name="t_t_l" unicode="ttl" horiz-adv-x="861" 
d="M820 2h-50v355h-319v-235q8 -17 21.5 -32t30.5 -24q38 -21 80 -13q21 5 40 16.5t32 29.5q13 17 19 38.5t4 43.5l-2 29h49l3 -25q3 -31 -5.5 -61t-27.5 -55t-45.5 -42t-56.5 -23q-17 -3 -33 -3q-44 0 -81 21q-26 14 -45.5 36.5t-30.5 49.5l-2 9v240h-317v-235
q8 -17 21.5 -32t30.5 -24q38 -21 80 -13q21 5 40 16.5t32 29.5q13 17 19 38.5t4 43.5l-2 29h49l3 -25q3 -31 -5.5 -61t-27.5 -55t-45.5 -42t-56.5 -23q-17 -3 -33 -3q-44 0 -81 21q-26 14 -45.5 36.5t-30.5 49.5l-2 9v631h50v-341h317v341h50v-341h319v343h50v-748z" />
    <glyph glyph-name="t_i" unicode="ti" horiz-adv-x="516" 
d="M467 2h-50v355h-333v-235q8 -17 21.5 -32t30.5 -24q38 -21 80 -13q21 5 40 16.5t32 29.5q13 17 19 38.5t4 43.5l-2 29h49l3 -25q3 -31 -5.5 -61t-27.5 -55t-45.5 -42t-56.5 -23q-17 -3 -33 -3q-44 0 -81 21q-26 14 -45.5 36.5t-30.5 49.5l-2 9v631h50v-341h333v89h50
v-494zM500 641q0 -24 -17 -41t-41 -17t-41 17t-17 41q0 25 17 42t41 17t41 -17t17 -42z" />
    <glyph glyph-name=".notdef" horiz-adv-x="500" 
 />
    <glyph glyph-name=".null" horiz-adv-x="0" 
 />
    <glyph glyph-name="nonmarkingreturn" horiz-adv-x="500" 
 />
    <glyph glyph-name="space" unicode=" " horiz-adv-x="500" 
 />
    <glyph glyph-name="space" unicode="&#xa0;" horiz-adv-x="500" 
 />
    <glyph glyph-name="exclam" unicode="!" horiz-adv-x="149" 
d="M100 206h-50v494h50v-494zM133 61q0 -25 -17 -42t-41 -17t-41 17t-17 42q0 24 17 41t41 17t41 -17t17 -41z" />
    <glyph glyph-name="quotedbl" unicode="&#x22;" horiz-adv-x="229" 
d="M86 382h-50v244h50v-244zM191 382h-50v244h50v-244z" />
    <glyph glyph-name="numbersign" unicode="#" horiz-adv-x="496" 
d="M341 397l-9 -97h154v-50h-159l-25 -253h-50l24 253h-76l-25 -253h-49l24 253h-140v50h145l9 97h-154v50h159l25 253h50l-25 -253h77l24 253h50l-24 -253h140v-50h-145zM291 397h-77l-9 -97h76z" />
    <glyph glyph-name="dollar" unicode="$" horiz-adv-x="497" 
d="M274 -48h-50v48q-39 3 -74.5 14.5t-62.5 31.5q-34 23 -51 55.5t-15 66.5h50q-2 -20 10 -42.5t35 -38.5q20 -15 48.5 -24.5t59.5 -12.5v282q-32 17 -64 34.5t-59 38.5q-37 29 -57 60t-23 63q-2 34 15 66.5t51 56.5q27 19 62.5 30.5t74.5 14.5v46h50v-46q38 -3 73.5 -14.5
t62.5 -30.5q34 -24 51.5 -56.5t14.5 -66.5h-50q2 20 -9.5 42.5t-34.5 39.5q-21 14 -49.5 23.5t-58.5 12.5v-282q32 -17 63.5 -34.5t58.5 -38.5q74 -57 80 -123q3 -34 -14.5 -66.5t-51.5 -55.5q-27 -20 -62.5 -31.5t-73.5 -14.5v-48zM116 610q-23 -17 -35 -37.5t-10 -40.5
q2 -21 17.5 -43.5t43.5 -43.5q20 -16 43 -30t49 -27v258q-32 -3 -60 -12.5t-48 -23.5zM382 87q23 16 34.5 36.5t9.5 40.5q-2 21 -17.5 43.5t-42.5 44.5q-20 15 -43.5 28.5t-48.5 26.5v-257q30 3 58.5 12.5t49.5 24.5z" />
    <glyph glyph-name="uni0025" unicode="%" horiz-adv-x="478" 
d="M358 4q-21 0 -39.5 11t-32 30t-21 44.5t-7.5 55.5q0 29 7.5 54.5t21 44.5t32 30t39.5 11t39 -11t31.5 -30t21.5 -44.5t8 -54.5q0 -30 -8 -55.5t-21.5 -44.5t-31.5 -30t-39 -11zM120 413q-21 0 -39.5 11t-32 30t-21 44.5t-7.5 54.5q0 30 7.5 55.5t21 44.5t32 30t39.5 11
t39 -11t31.5 -30t21.5 -44.5t8 -55.5q0 -29 -8 -54.5t-21.5 -44.5t-31.5 -30t-39 -11zM171 -2l-48 13l184 689l48 -13zM358 235q-18 0 -34 -25t-16 -65q0 -41 16 -66t34 -25t34 25t16 66q0 40 -16 65t-34 25zM120 644q-18 0 -34 -25t-16 -66q0 -40 16 -65t34 -25
q17 0 33.5 25t16.5 65q0 41 -16.5 66t-33.5 25z" />
    <glyph glyph-name="ampersand" unicode="&#x26;" horiz-adv-x="422" 
d="M216 -1q-31 0 -61 11q-41 14 -70 46q-31 31 -43 71q-14 41 -7.5 83.5t29.5 78.5q25 36 62 58l2 1l-2 2q-37 21 -62 58q-23 35 -29.5 77.5t7.5 83.5q12 39 43 72q14 16 32 27t38 19q36 13 75.5 10t73.5 -22t59 -54.5t38 -100.5h-48q-11 46 -30 71.5t-43 39.5
q-25 14 -53.5 16t-54.5 -7q-29 -11 -51 -34t-32 -52q-9 -29 -4.5 -60.5t21.5 -57.5t45 -43t60 -20v-50q-32 -2 -60 -19t-45 -43t-21.5 -57.5t4.5 -60.5q10 -30 32 -52.5t51 -33.5q26 -10 54.5 -8t53.5 16q24 14 41 36t23 48v78h-102v50h127l25 -25v-111q-9 -38 -32.5 -69.5
t-57.5 -50.5q-42 -22 -88 -22z" />
    <glyph glyph-name="quotesingle" unicode="'" horiz-adv-x="127" 
d="M86 382h-50v244h50v-244z" />
    <glyph glyph-name="parenleft" unicode="(" horiz-adv-x="351" 
d="M283 -122l-22 11q-66 35 -117.5 89t-81.5 121q-31 68 -38 142.5t10 146.5q12 50 36 96t58 86q35 41 76.5 72t88.5 51l23 9l20 -46l-23 -9q-42 -18 -79.5 -46t-67 -63t-51 -76t-32.5 -86q-15 -63 -9 -130q6 -66 33 -126q27 -59 73 -108q47 -48 104 -79l22 -11z" />
    <glyph glyph-name="parenright" unicode=")" horiz-adv-x="351" 
d="M45 -78l22 11q57 31 104 79q46 49 73 108q27 60 33 126q6 67 -9 130q-11 45 -32.5 86t-51 76t-67 63t-79.5 46l-23 9l20 46l23 -9q47 -20 88.5 -51t76.5 -72q34 -40 58 -86t36 -96q17 -72 10 -146.5t-38 -142.5q-30 -67 -81.5 -121t-117.5 -89l-22 -11z" />
    <glyph glyph-name="asterisk" unicode="*" horiz-adv-x="351" 
d="M208 461l113 -136l-38 -32l-83 99v-89h-50v89l-82 -99l-38 32l113 136l-113 136l38 32l82 -99v88h50v-88l83 99l38 -32z" />
    <glyph glyph-name="plus" unicode="+" horiz-adv-x="375" 
d="M4 291v50h158v155h50v-155h159v-50h-159v-162h-50v162h-158z" />
    <glyph glyph-name="comma" unicode="," horiz-adv-x="145" 
d="M80 -136l-48 13l35 132q-18 4 -30.5 18t-12.5 33q0 22 15.5 37t36.5 15t36 -15t15 -37z" />
    <glyph glyph-name="hyphen" unicode="-" horiz-adv-x="310" 
d="M36 252v50h237v-50h-237z" />
    <glyph glyph-name="period" unicode="." horiz-adv-x="112" 
d="M86 44q0 -12 -9 -21t-22 -9q-12 0 -21 9t-9 21q0 13 9 22.5t21 9.5q13 0 22 -9.5t9 -22.5z" />
    <glyph glyph-name="slash" unicode="/" horiz-adv-x="351" 
d="M48 9l-45 21l301 646l45 -21z" />
    <glyph glyph-name="zero" unicode="0" horiz-adv-x="549" 
d="M275 0q-53 0 -101 30q-45 27 -79 76t-52 111.5t-18 131.5t18 131.5t52 112.5q36 50 79 76q46 29 101 29q54 0 100 -29q43 -26 79 -76q34 -50 52 -112.5t18 -131.5t-18 -131.5t-52 -111.5t-79 -76q-48 -30 -100 -30zM275 648q-39 0 -74.5 -21t-64.5 -63q-29 -43 -45 -98
t-16 -117q0 -61 16 -116t45 -99q29 -41 64.5 -62.5t74.5 -21.5q38 0 73.5 21.5t64.5 62.5q29 44 45 99t16 116q0 62 -16 117t-45 98q-29 42 -64.5 63t-73.5 21z" />
    <glyph glyph-name="one" unicode="1" horiz-adv-x="199" 
d="M161 1h-50v626l-82 -57l-28 42l121 83h39v-694z" />
    <glyph glyph-name="two" unicode="2" horiz-adv-x="417" 
d="M382 0h-344v43q65 66 123.5 137.5t109.5 148.5q20 31 35.5 58.5t24.5 56.5q22 65 3 118q-19 49 -65 72q-22 11 -47.5 13.5t-48.5 -4.5q-24 -7 -44 -22.5t-33 -36.5q-13 -22 -16.5 -52.5t1.5 -54.5h-49q-8 33 -2 68t23 64t45 50.5t61 31.5q32 10 67 7t66 -19t54 -42
t35 -58q15 -43 11 -82.5t-13 -68.5q-11 -32 -27.5 -62.5t-39.5 -63.5q-45 -67 -94 -129.5t-103 -122.5h267v-50z" />
    <glyph glyph-name="three" unicode="3" horiz-adv-x="420" 
d="M205 2q-47 0 -88 23q-34 18 -58 49.5t-32 69.5l-6 36h49l6 -25q6 -27 23 -50t42 -36q25 -14 53.5 -16.5t54.5 7.5q29 11 51 34t32 52q9 29 4.5 60.5t-21.5 57.5t-45.5 43t-59.5 20v49q31 3 59.5 20t45.5 43t21.5 57.5t-4.5 60.5q-10 29 -32 52t-51 34q-26 9 -54.5 7
t-53.5 -16t-42 -36.5t-23 -49.5l-6 -25h-49q13 65 37.5 101t58.5 54q34 19 73.5 22t75.5 -10q39 -14 70 -46q31 -31 43 -72q13 -40 7 -83t-30 -78q-11 -17 -26.5 -32t-34.5 -26l-2 -2q1 0 2 -1q38 -23 61 -58q24 -35 30 -78t-7 -83q-12 -41 -43 -72q-31 -32 -70 -46
q-30 -11 -61 -11z" />
    <glyph glyph-name="four" unicode="4" horiz-adv-x="449" 
d="M358 3h-50v231h-307v41l312 424h45v-414h72v-51h-72v-231zM71 285h237v322z" />
    <glyph glyph-name="five" unicode="5" horiz-adv-x="483" 
d="M226 -2q-27 0 -52 6q-79 20 -130 88l-15 19l40 31l15 -20q40 -53 102 -69q61 -16 118 14q28 14 50 38t36 54t18.5 64t-0.5 68q-11 59 -48 102q-36 43 -89 58q-52 14 -102 -4q-52 -19 -85 -64h-45v313h418v-50h-368v-187q28 22 63 35q67 23 133 5q32 -9 61 -28t52 -45
q47 -54 59 -127q7 -41 1.5 -82.5t-23.5 -79.5q-17 -38 -45.5 -67t-63.5 -47q-23 -13 -48.5 -19t-51.5 -6z" />
    <glyph glyph-name="six" unicode="6" horiz-adv-x="526" 
d="M266 609q-49 -26 -88 -65.5t-64 -89.5q-7 -15 -12.5 -30t-10.5 -32q2 3 5 6l6 6q33 34 76 51.5t90 17.5q48 0 91 -17.5t76 -51.5q34 -33 51.5 -75.5t17.5 -90.5t-17.5 -90.5t-51.5 -76.5q-33 -33 -76 -51t-91 -18q-47 0 -90 18t-76 51q-27 27 -43.5 60t-24 68t-8 72.5
t4.5 73.5q8 70 39 131q28 57 72.5 102.5t100.5 75.5q57 29 119.5 40t125.5 2l-1 -49q-55 8 -113 -2t-108 -36zM268 423q-38 0 -72 -14.5t-59 -39.5t-39.5 -59t-14.5 -72q0 -39 14.5 -72.5t39.5 -59t59 -40t72 -14.5q39 0 72.5 14.5t59 40t40 59t14.5 72.5q0 38 -14.5 72
t-40 59t-59 39.5t-72.5 14.5z" />
    <glyph glyph-name="seven" unicode="7" horiz-adv-x="459" 
d="M138 2h-56l295 648h-369v50h446z" />
    <glyph glyph-name="eight" unicode="8" horiz-adv-x="469" 
d="M380 320q30 -26 46 -60t16 -72q0 -79 -62 -133q-29 -26 -66.5 -40t-78.5 -14q-42 0 -79.5 14t-66.5 40q-62 54 -62 133q0 38 16 72t46 60q19 17 44 30q-25 13 -44 30q-30 26 -46 60.5t-16 72.5t16 72.5t46 60.5q29 26 66.5 39.5t79.5 13.5q41 0 78.5 -13.5t66.5 -39.5
q30 -26 46 -60.5t16 -72.5t-16 -72.5t-46 -60.5q-19 -17 -44 -30q25 -13 44 -30zM77 513q0 -28 12.5 -53t34 -43.5t50 -29t61.5 -10.5q32 0 60.5 10.5t50 29t34 43.5t12.5 53t-12.5 53t-34 43.5t-50 29t-60.5 10.5q-33 0 -61.5 -10.5t-50 -29t-34 -43.5t-12.5 -53zM235 51
q32 0 60.5 10.5t50 29.5t34 43.5t12.5 53.5q0 28 -12.5 53t-34 43.5t-50 29t-60.5 10.5q-33 0 -61.5 -10.5t-50 -29t-34 -43.5t-12.5 -53q0 -29 12.5 -53.5t34 -43.5t50 -29.5t61.5 -10.5z" />
    <glyph glyph-name="nine" unicode="9" horiz-adv-x="525" 
d="M259 101q49 26 88 65.5t64 89.5q7 15 12.5 30t10.5 32q-3 -4 -11 -12q-33 -34 -76 -51.5t-90 -17.5q-48 0 -91 17.5t-76 51.5q-34 33 -51.5 75.5t-17.5 90.5t17.5 90.5t51.5 76.5q33 33 76 51t91 18q47 0 90 -18t76 -51q27 -27 43.5 -60t24 -68t7.5 -72.5t-4 -73.5
q-8 -70 -39 -131q-28 -57 -72.5 -102.5t-100.5 -75.5q-57 -29 -119.5 -40t-125.5 -2l1 49q55 -8 113 2t108 36zM257 287q38 0 72 14.5t59 39.5t39.5 59t14.5 72q0 39 -14.5 72.5t-39.5 59t-59 40t-72 14.5q-39 0 -72.5 -14.5t-59 -40t-40 -59t-14.5 -72.5q0 -38 14.5 -72
t40 -59t59 -39.5t72.5 -14.5z" />
    <glyph glyph-name="colon" unicode=":" horiz-adv-x="145" 
d="M116 50q0 -17 -13 -30t-31 -13q-17 0 -30 13t-13 30q0 18 13 32t30 14q18 0 31 -14t13 -32zM117 385q0 -17 -13 -30t-31 -13q-17 0 -30 13t-13 30q0 18 13 32t30 14q18 0 31 -14t13 -32z" />
    <glyph glyph-name="semicolon" unicode=";" horiz-adv-x="136" 
d="M122 60q0 22 -15 37t-36 15t-36.5 -15t-15.5 -37q0 -19 12.5 -33t30.5 -18l-35 -132l48 -13zM112 385q0 -17 -13 -30t-31 -13q-17 0 -30 13t-13 30q0 18 13 32t30 14q18 0 31 -14t13 -32z" />
    <glyph glyph-name="less" unicode="&#x3c;" horiz-adv-x="378" 
d="M343 57l-342 234v41l342 234v-56l-284 -199l284 -198v-56z" />
    <glyph glyph-name="equal" unicode="=" horiz-adv-x="447" 
d="M36 248v50h402v-50h-402zM36 415v50h402v-50h-402z" />
    <glyph glyph-name="greater" unicode="&#x3e;" horiz-adv-x="377" 
d="M34 113l284 198l-284 199v56l342 -234v-41l-342 -234v56z" />
    <glyph glyph-name="question" unicode="?" horiz-adv-x="335" 
d="M185 207h-50v79q0 15 0.5 31t5.5 33q7 31 28 61q10 13 21 23.5t23 21.5l1 2q10 8 19 17t16 19q14 20 16.5 44.5t-5.5 47.5q-9 22 -28 38.5t-42 21.5t-47.5 -1.5t-41.5 -23.5t-25.5 -40.5t-3.5 -47.5l4 -33h-49l-4 25q-7 36 5 71.5t38 60.5q27 26 63 36t72 2
q35 -8 63.5 -32.5t42.5 -58.5q13 -35 8.5 -72t-25.5 -67q-9 -13 -20 -23.5t-22 -21.5l-2 -1q-10 -9 -19 -18t-17 -20q-15 -19 -21 -43q-3 -12 -3.5 -25.5t-0.5 -26.5v-79zM214 61q0 24 -17 41t-41 17t-41 -17t-17 -41q0 -25 17 -42t41 -17t41 17t17 42z" />
    <glyph glyph-name="at" unicode="@" horiz-adv-x="707" 
d="M676 446q12 -68 -6 -132q-11 -37 -32 -67.5t-49 -52.5q-59 -45 -132 -42l-23 2v53q-48 -54 -116 -54q-33 0 -63 14t-53 41q-47 53 -47 127q0 36 12 69t35 59q48 54 116 54t116 -54v55h50v-315q41 5 74 30q45 36 64 95q16 53 5 109q-5 26 -15 51.5t-26 47.5q-29 43 -74 70
q-44 28 -92 37q-35 8 -70 6t-67 -12q-68 -21 -121 -75q-26 -28 -44.5 -61.5t-28.5 -71.5q-11 -39 -11 -79.5t9 -78.5q13 -48 40 -89q13 -20 29 -37.5t34 -31.5q71 -56 166 -62q101 -5 191 50l22 13l26 -42l-22 -13q-95 -58 -200 -58h-10t-10 1q-54 3 -103 21t-91 50
q-45 35 -75.5 82.5t-44.5 103.5q-11 44 -10.5 90.5t12.5 91.5q11 45 33 84t52 71q29 32 65.5 54t76.5 35q39 12 80 13.5t82 -6.5q59 -12 109 -43q52 -33 88 -84q38 -55 49 -119zM318 203q23 0 43.5 10.5t36 28.5t24.5 42t9 51t-9 51t-24.5 42t-36 28.5t-43.5 10.5
t-43.5 -10.5t-36 -28.5t-24.5 -42t-9 -51t9 -51t24.5 -42t36 -28.5t43.5 -10.5z" />
    <glyph glyph-name="A" unicode="A" horiz-adv-x="560" 
d="M393 283h-226l-97 -282h-57l243 697h47l244 -697h-57zM376 333l-96 280l-96 -280h192z" />
    <glyph glyph-name="B" unicode="B" horiz-adv-x="494" 
d="M385 343q17 -11 31.5 -26.5t24.5 -35.5q11 -21 17.5 -45t6.5 -49q0 -52 -23 -96q-21 -39 -56 -62q-33 -22 -67.5 -26t-63.5 -4q-24 -1 -48 -1h-49h-48t-48 1h-26v696h26q96 2 193 0q29 0 63.5 -4t67.5 -26q35 -23 56 -62q23 -43 23 -95q0 -25 -6.5 -49.5t-17.5 -45.5
q-10 -20 -24.5 -35.5t-31.5 -26.5q-2 -1 -3 -2t-3 -2q2 -1 3 -2t3 -2zM398 114q8 16 12.5 35t4.5 37q0 19 -5 37.5t-13 34.5q-16 29 -39 43q-23 15 -50 18t-53 3h-168v-274h84t84 1q26 0 53 3t50 18q25 17 40 44zM255 645q-42 1 -84 1h-84v-274q84 1 168 0q32 0 56.5 3.5
t46.5 17.5q23 14 39 43q8 16 13 34.5t5 37.5q0 18 -4.5 37t-12.5 35q-15 27 -40 44q-22 14 -47 17.5t-56 3.5z" />
    <glyph glyph-name="C" unicode="C" horiz-adv-x="588" 
d="M342 -1q-78 0 -147 40q-42 24 -75 61.5t-56 82.5q-22 46 -31.5 97t-4.5 103q9 96 61 175q26 38 59.5 67.5t74.5 47.5q81 37 170 22q86 -17 154 -80l18 -18l-34 -36l-19 17q-27 27 -60 44t-68 23q-72 14 -141 -17q-33 -16 -62 -40.5t-51 -57.5q-44 -67 -52 -152
q-4 -45 4 -89.5t27 -83.5q40 -80 111 -122q35 -20 74 -28.5t77 -3.5q39 5 75.5 22.5t65.5 46.5l19 17l34 -36l-18 -17q-35 -34 -79 -55.5t-91 -27.5q-8 -1 -17 -1.5t-18 -0.5z" />
    <glyph glyph-name="D" unicode="D" horiz-adv-x="559" 
d="M504 523q14 -39 22 -84t8 -90t-8 -90t-22 -84q-28 -73 -73 -115q-22 -20 -45 -31.5t-46 -17.5t-46 -7.5t-44 -1.5h-214v694h214q21 0 44 -1.5t46 -7.5t46 -17.5t45 -31.5q45 -42 73 -115zM457 192q13 35 20 75t7 82q0 41 -7 81t-20 75q-23 62 -60 96q-34 31 -71 38t-76 7
h-164v-594h164q19 0 38.5 1t38 5.5t36 13.5t34.5 25q37 34 60 95z" />
    <glyph glyph-name="E" unicode="E" horiz-adv-x="485" 
d="M86 647v-273h396v-50h-396v-273h396v-50h-446v696h446v-50h-396z" />
    <glyph glyph-name="F" unicode="F" horiz-adv-x="513" 
d="M86 647v-273h396v-50h-396v-323h-50v696h446v-50h-396z" />
    <glyph glyph-name="G" unicode="G" horiz-adv-x="590" 
d="M342 -2q-79 0 -148 40q-42 24 -75 61t-55 83q-23 45 -32 96.5t-5 102.5q9 97 61 175q26 39 60 68.5t74 47.5q82 38 170 21q88 -15 154 -80l18 -17l-34 -36l-18 17q-28 26 -61 43.5t-68 23.5q-72 14 -140 -17q-68 -32 -114 -98q-44 -69 -52 -152q-4 -45 4 -89.5t28 -83.5
q19 -39 47.5 -71t63.5 -52q71 -42 150 -31q37 5 71 20.5t63 40.5v155h-222v50h272v-226l-8 -8q-35 -34 -78.5 -55t-90.5 -27q-9 -1 -18 -1.5t-17 -0.5z" />
    <glyph glyph-name="H" unicode="H" horiz-adv-x="531" 
d="M494 697v-698h-50v324h-358v-324h-50v698h50v-324h358v324h50z" />
    <glyph glyph-name="I" unicode="I" horiz-adv-x="493" 
d="M272 646v-598h207v-50h-465v50h208v598h-208v50h465v-50h-207z" />
    <glyph glyph-name="J" unicode="J" horiz-adv-x="428" 
d="M202 -1q-42 0 -81 18t-66 50q-29 34 -39.5 78.5t-0.5 87.5l6 25h49l-6 -36q-8 -32 0.5 -64.5t29.5 -58.5q21 -25 52 -38.5t64 -11.5q27 2 53 14.5t44 32.5q19 21 28.5 48t7.5 54v499h50v-497q2 -38 -10.5 -73.5t-38.5 -63.5q-25 -29 -59.5 -45t-72.5 -18q-3 -1 -10 -1z
" />
    <glyph glyph-name="K" unicode="K" horiz-adv-x="487" 
d="M404 1l-318 305v-305h-50v697h50v-297l305 297h67l-349 -344l360 -353h-65z" />
    <glyph glyph-name="L" unicode="L" horiz-adv-x="483" 
d="M483 1h-447v698h50v-648h397v-50z" />
    <glyph glyph-name="M" unicode="M" horiz-adv-x="641" 
d="M605 1h-50v593l-214 -308h-41l-214 308v-593h-50v697h46l238 -354l239 354h46v-697z" />
    <glyph glyph-name="N" unicode="N" horiz-adv-x="641" 
d="M86 0h-50v699h45l474 -603v603h50v-699h-45l-474 602v-602z" />
    <glyph glyph-name="O" unicode="O" horiz-adv-x="613" 
d="M307 -1q-58 0 -112 28q-50 26 -90 76q-39 50 -59.5 113t-20.5 132t20.5 132t59.5 113q40 50 90 76q54 28 112 28q57 0 111 -28q50 -26 90 -76q39 -50 59.5 -113t20.5 -132t-20.5 -132t-59.5 -113q-40 -50 -90 -76q-54 -28 -111 -28zM307 647q-48 0 -90.5 -23.5t-74 -64
t-49.5 -95t-18 -116.5t18 -116.5t49.5 -95t74 -64t90.5 -23.5t90 23.5t73.5 64t49.5 95t18 116.5t-18 116.5t-49.5 95t-73.5 64t-90 23.5z" />
    <glyph glyph-name="P" unicode="P" horiz-adv-x="469" 
d="M442 604q23 -43 23 -95t-23 -95q-21 -38 -57 -62q-32 -21 -66.5 -25t-63.5 -4h-169v-324h-50v698h25q98 2 194 0q29 -1 63.5 -4.5t67.5 -25.5q34 -22 56 -63zM397 437q18 33 18 72q0 40 -17 72q-8 14 -17.5 25t-21.5 19q-23 14 -48 17.5t-56 4.5h-169v-274
q42 0 84.5 -0.5t84.5 0.5q32 0 56.5 3.5t46.5 17.5q25 16 39 43z" />
    <glyph glyph-name="Q" unicode="Q" horiz-adv-x="639" 
d="M504 100l112 -101h-70l-77 65q-24 -21 -51 -36q-54 -28 -111 -28q-58 0 -112 28q-50 26 -90 76q-39 50 -59.5 113t-20.5 132t20.5 132t59.5 113q40 50 90 76q54 28 112 28q57 0 111 -28q50 -26 90 -76q39 -50 59.5 -113t20.5 -132t-20.5 -132t-59.5 -113zM307 50
q35 0 67 13t59 36l-33 31l35 36l33 -32q32 42 51 97t19 118q0 62 -18 116.5t-49.5 95t-73.5 64t-90 23.5t-90.5 -23.5t-74 -64t-49.5 -95t-18 -116.5t18 -116.5t49.5 -95t74 -64t90.5 -23.5z" />
    <glyph glyph-name="R" unicode="R" horiz-adv-x="503" 
d="M422 1l-137 328q-8 -1 -16.5 -1t-16.5 -1h-166v-318h-50v687h25q96 2 191 0q29 0 63 -4t66 -25q36 -23 55 -62q23 -43 23 -94t-23 -94q-21 -38 -55 -61q-21 -13 -45 -19l141 -336h-55zM252 378q31 0 55.5 3t45.5 17q23 14 39 43q8 15 12.5 33.5t4.5 36.5t-4.5 36.5
t-12.5 34.5q-7 14 -17 24.5t-21 18.5q-22 14 -47 17.5t-55 3.5q-42 1 -83 1h-83v-270h83t83 1z" />
    <glyph glyph-name="S" unicode="S" horiz-adv-x="510" 
d="M255 -1q-46 0 -88 12t-74 35q-34 23 -51 55.5t-15 66.5h50q-2 -20 10 -42.5t35 -38.5q25 -18 60 -28t73 -10q37 0 72 10t61 28q23 16 34.5 36.5t9.5 40.5q-2 21 -17.5 43.5t-42.5 44.5q-28 21 -61.5 39t-67.5 35q-35 18 -70.5 37t-65.5 42q-37 29 -57 60t-23 63
q-2 34 15 66.5t51 56.5q32 22 74 34t88 12q45 0 87 -12t74 -34q34 -24 51.5 -56.5t14.5 -66.5h-50q2 20 -9.5 42.5t-34.5 39.5q-26 17 -61 27t-72 10q-38 0 -73 -10t-60 -27q-23 -17 -35 -37.5t-10 -40.5q2 -21 17.5 -43.5t43.5 -43.5q27 -21 60.5 -39t67.5 -35
q35 -18 70.5 -37.5t65.5 -42.5q74 -57 80 -123q3 -34 -14.5 -66.5t-51.5 -55.5q-32 -23 -74 -35t-87 -12z" />
    <glyph glyph-name="T" unicode="T" horiz-adv-x="483" 
d="M477 647h-210v-648h-50v648h-211v50h471v-50z" />
    <glyph glyph-name="U" unicode="U" 
d="M252 -2h-1q-30 0 -59.5 10.5t-55.5 30.5q-46 33 -72 91q-23 51 -27.5 105.5t-4.5 104.5q-2 165 0 331v25h50v-25q-2 -166 0 -331q0 -46 4 -95.5t24 -94.5q10 -22 24.5 -40t31.5 -32q39 -30 85 -30h1q45 0 86 30q36 26 57 72q20 45 24 94.5t4 95.5q2 165 0 331v25h50v-25
q2 -166 0 -331q0 -48 -4.5 -103.5t-28.5 -107.5q-26 -58 -72 -91q-54 -40 -116 -40z" />
    <glyph glyph-name="V" unicode="V" horiz-adv-x="540" 
d="M246 0l-233 698h52l205 -613l205 613h52l-234 -698h-47z" />
    <glyph glyph-name="W" unicode="W" horiz-adv-x="810" 
d="M604 2h-48l-152 567l-151 -567h-49l-181 695h53l152 -592l152 592h48l152 -592l154 592h53z" />
    <glyph glyph-name="X" unicode="X" horiz-adv-x="638" 
d="M350 348l260 -359h-67l-224 316l-224 -316h-67l260 359l-260 359h67l224 -316l224 316h67z" />
    <glyph glyph-name="Y" unicode="Y" horiz-adv-x="604" 
d="M327 334v-335h-50v335l-267 373h60l232 -323l231 323h61z" />
    <glyph glyph-name="Z" unicode="Z" horiz-adv-x="528" 
d="M104 49h411v-50h-502l410 648h-410v50h502z" />
    <glyph glyph-name="bracketleft" unicode="[" horiz-adv-x="259" 
d="M257 -112h-221v805h221v-50h-171v-705h171v-50z" />
    <glyph glyph-name="backslash" unicode="\" horiz-adv-x="351" 
d="M2 655l45 21l301 -646l-45 -21z" />
    <glyph glyph-name="bracketright" unicode="]" horiz-adv-x="260" 
d="M2 -62h171v705h-171v50h221v-805h-221v50z" />
    <glyph glyph-name="asciicircum" unicode="^" horiz-adv-x="535" 
d="M13 326l234 342h41l234 -342h-56l-199 284l-198 -284h-56z" />
    <glyph glyph-name="underscore" unicode="_" horiz-adv-x="599" 
d="M36 -204v50h526v-50h-526z" />
    <glyph glyph-name="grave" unicode="`" horiz-adv-x="199" 
d="M6 642l28 42l158 -107l-27 -41z" />
    <glyph glyph-name="a" unicode="a" horiz-adv-x="562" 
d="M525 497v-498h-50v107q-13 -19 -28 -33q-35 -35 -80 -54t-95 -19t-95 19t-80 54t-54 80t-19 95t19 95t54 80t80 54t95 19t95 -19t80 -54q15 -14 28 -33v107h50zM272 50q41 0 77 15.5t63 42.5t42.5 63t15.5 77t-15.5 77t-42.5 63t-63 42.5t-77 15.5t-77 -15.5t-63 -42.5
t-42.5 -63t-15.5 -77t15.5 -77t42.5 -63t63 -42.5t77 -15.5z" />
    <glyph glyph-name="b" unicode="b" horiz-adv-x="543" 
d="M86 747v-357q13 19 28 33q35 35 80 54t95 19t95 -19t80 -54t54 -80t19 -95t-19 -95t-54 -80t-80 -54t-95 -19t-95 19t-80 54q-15 14 -28 33v-107h-50v748h50zM289 50q41 0 77 15.5t63 42.5t42.5 63t15.5 77t-15.5 77t-42.5 63t-63 42.5t-77 15.5t-77 -15.5t-63 -42.5
t-42.5 -63t-15.5 -77t15.5 -77t42.5 -63t63 -42.5t77 -15.5z" />
    <glyph glyph-name="c" unicode="c" horiz-adv-x="481" 
d="M277 -1q-62 0 -117 29q-67 34 -104 102q-37 66 -29 142q6 69 48 125t107 82t134 15t122 -56l20 -16l-33 -38l-19 16q-44 36 -98 45q-55 9 -107 -12q-52 -22 -86 -66q-16 -22 -26 -47t-12 -53q-6 -61 23 -113q14 -26 35.5 -47t47.5 -35t56 -19.5t60 -1.5q61 6 107 46
l19 16l33 -38l-20 -16q-28 -24 -62.5 -39t-71.5 -19q-7 -1 -13.5 -1.5t-13.5 -0.5z" />
    <glyph glyph-name="d" unicode="d" horiz-adv-x="544" 
d="M507 747v-748h-50v107q-13 -19 -28 -33q-35 -35 -80 -54t-95 -19t-95 19t-80 54t-54 80t-19 95t19 95t54 80t80 54t95 19t95 -19t80 -54q15 -14 28 -33v357h50zM254 50q41 0 77 15.5t63 42.5t42.5 63t15.5 77t-15.5 77t-42.5 63t-63 42.5t-77 15.5t-77 -15.5t-63 -42.5
t-42.5 -63t-15.5 -77t15.5 -77t42.5 -63t63 -42.5t77 -15.5z" />
    <glyph glyph-name="e" unicode="e" horiz-adv-x="501" 
d="M272 1q-49 0 -97 20q-25 11 -47.5 27t-39.5 36q-32 35 -48.5 81.5t-14.5 95.5q1 38 13 74.5t34 67.5q46 65 122 88q44 13 90.5 6.5t85.5 -29.5t66 -61.5t36 -83.5l6 -30h-399q-2 -8 -3 -16.5t-1 -16.5q-1 -40 12 -77t38 -66q29 -32 70 -50q20 -8 41.5 -12.5t42.5 -2.5
q42 1 83 22q39 21 65 56l15 20l40 -30l-15 -20q-32 -44 -82 -70t-104 -28q-3 -1 -9 -1zM255 449q-25 0 -47 -6q-29 -8 -53.5 -26t-42.5 -43q-5 -8 -9 -15.5t-8 -15.5h319q-11 26 -29 47t-41 35q-41 24 -89 24z" />
    <glyph glyph-name="f" unicode="f" horiz-adv-x="367" 
d="M84 396h277v-50h-277v-345h-50v634l2 9q11 28 30.5 50t45.5 36t55.5 19t58.5 -1q30 -6 56.5 -22.5t45.5 -41.5q39 -53 33 -117l-3 -25h-49l2 30q2 21 -4 42.5t-19 39.5q-13 17 -32 28.5t-40 16.5q-43 8 -80 -12q-35 -20 -52 -57v-234z" />
    <glyph glyph-name="g" unicode="g" horiz-adv-x="480" 
d="M446 501v-610l-2 -5q-13 -30 -34 -56t-49 -44q-26 -17 -56 -26t-62 -9h-7q-42 2 -81.5 19.5t-68.5 48.5t-44.5 71t-14.5 83v25h51v-26q-1 -33 10.5 -64t34.5 -55q22 -23 52 -36.5t63 -15.5q26 -1 50.5 6t45.5 21q43 28 62 73v261q-29 -36 -71 -57.5t-92 -21.5
q-43 0 -81 16.5t-66 45t-44.5 66.5t-16.5 81t16.5 81t44.5 66t66 44.5t81 16.5q50 0 92 -21t71 -57v79h50zM233 133q33 0 61.5 12.5t50.5 34.5t34.5 50.5t12.5 61.5t-12.5 61.5t-34.5 50t-50.5 34t-61.5 12.5t-61.5 -12.5t-50 -34t-34 -50t-12.5 -61.5t12.5 -61.5t34 -50.5
t50 -34.5t61.5 -12.5z" />
    <glyph glyph-name="h" unicode="h" horiz-adv-x="444" 
d="M434 257q1 -116 0 -231v-25h-51v26q3 114 0 229q-1 32 -4 60.5t-16 51.5q-9 15 -23 28t-32 21q-33 17 -76 15q-39 -1 -77 -17.5t-65 -45.5l-4 -4v-364h-50v748h50v-317q11 8 23.5 15t25.5 13q23 11 47.5 16t47.5 6q54 1 100 -20q24 -11 44 -29t33 -41q17 -30 21.5 -64.5
t5.5 -70.5z" />
    <glyph glyph-name="i" unicode="i" horiz-adv-x="149" 
d="M100 2h-50v494h50v-494zM133 641q0 -24 -17 -41t-41 -17t-41 17t-17 41q0 25 17 42t41 17t41 -17t17 -42z" />
    <glyph glyph-name="j" unicode="j" horiz-adv-x="480" 
d="M219 -249h-8q-42 2 -81 19.5t-68 48.5t-44.5 71t-14.5 82v25h51v-26q-1 -32 10 -63t34 -55q23 -23 53 -36.5t62 -15.5q26 -1 50.5 6t45.5 21q20 13 36 31.5t26 40.5v599h50v-609l-2 -4q-26 -63 -83 -100q-53 -35 -117 -35zM456 641q0 -24 -17 -41t-41 -17t-41 17t-17 41
q0 25 17 42t41 17t41 -17t17 -42z" />
    <glyph glyph-name="k" unicode="k" horiz-adv-x="477" 
d="M405 2l-318 306v-306h-50v747h50v-352l310 242h76l-361 -285l364 -352h-71z" />
    <glyph glyph-name="l" unicode="l" horiz-adv-x="127" 
d="M86 2h-50v748h50v-748z" />
    <glyph glyph-name="m" unicode="m" horiz-adv-x="885" 
d="M850 256q1 -61 1 -114.5t-1 -114.5v-25h-50v26q2 113 0 227q-1 31 -4 63.5t-22 61.5q-20 30 -54 48q-38 21 -87 21q-23 0 -44.5 -5.5t-41.5 -15.5q-32 -18 -53 -48q-18 -29 -21 -60.5t-4 -63.5v-61h-51v61q-1 30 -3.5 62.5t-21.5 61.5q-21 30 -53 48q-19 10 -41 15.5
t-45 5.5h-1q-23 0 -45 -5t-41 -16q-35 -18 -54 -48q-19 -29 -22 -61.5t-4 -63.5v-24q-2 -102 0 -203v-26h-50v25q-2 114 0 229v244h50v-72q11 14 25.5 25t30.5 19q25 14 53.5 20.5t57.5 6.5t57 -7t53 -20q46 -25 71 -65l9 -15q2 4 4 7.5t4 7.5q25 40 71 65q25 13 53 20t57 7
t57.5 -6.5t53.5 -20.5q23 -11 41 -27.5t31 -36.5q25 -38 29.5 -78t4.5 -74z" />
    <glyph glyph-name="n" unicode="n" horiz-adv-x="465" 
d="M434 257q1 -116 0 -231v-25h-51v26q3 114 0 229q-1 32 -4 60.5t-16 51.5q-9 15 -23 28t-32 21q-33 17 -76 15q-39 -1 -77 -17.5t-65 -45.5l-4 -4v-364h-50v498h50v-67q11 8 23.5 15t25.5 13q23 11 47.5 16t47.5 6q54 1 100 -20q24 -11 44 -29t33 -41q17 -30 21.5 -64.5
t5.5 -70.5z" />
    <glyph glyph-name="o" unicode="o" horiz-adv-x="548" 
d="M274 2q-51 0 -96 19t-80 54t-54 80.5t-19 95.5q0 51 19 96t54 80t80 54t96 19q50 0 95.5 -19t80.5 -54t54 -80t19 -96q0 -50 -19 -95.5t-54 -80.5t-80.5 -54t-95.5 -19zM274 450q-41 0 -77.5 -15.5t-63.5 -42.5t-42.5 -63.5t-15.5 -77.5t15.5 -77.5t42.5 -63.5
t63.5 -42.5t77.5 -15.5t77 15.5t63 42.5t43 63.5t16 77.5t-16 77.5t-43 63.5t-63 42.5t-77 15.5z" />
    <glyph glyph-name="p" unicode="p" horiz-adv-x="543" 
d="M36 -249v748h50v-107q13 19 28 33q35 35 80 54t95 19t95 -19t80 -54t54 -80t19 -95t-19 -95t-54 -80t-80 -54t-95 -19t-95 19t-80 54q-15 14 -28 33v-357h-50zM289 448q-41 0 -77 -15.5t-63 -42.5t-42.5 -63t-15.5 -77t15.5 -77t42.5 -63t63 -42.5t77 -15.5t77 15.5
t63 42.5t42.5 63t15.5 77t-15.5 77t-42.5 63t-63 42.5t-77 15.5z" />
    <glyph glyph-name="q" unicode="q" horiz-adv-x="544" 
d="M457 -249v357q-13 -19 -28 -33q-35 -35 -80 -54t-95 -19t-95 19t-80 54t-54 80t-19 95t19 95t54 80t80 54t95 19t95 -19t80 -54q15 -14 28 -33v107h50v-748h-50zM254 448q-41 0 -77 -15.5t-63 -42.5t-42.5 -63t-15.5 -77t15.5 -77t42.5 -63t63 -42.5t77 -15.5t77 15.5
t63 42.5t42.5 63t15.5 77t-15.5 77t-42.5 63t-63 42.5t-77 15.5z" />
    <glyph glyph-name="r" unicode="r" horiz-adv-x="325" 
d="M324 452l-25 -3q-25 -2 -48.5 -8.5t-46.5 -16.5q-35 -16 -63.5 -40t-47.5 -53l-7 -10v-320h-50v498h50v-97q20 21 45 38t53 30q52 23 110 29l30 3v-50z" />
    <glyph glyph-name="s" unicode="s" horiz-adv-x="384" 
d="M192 1q-32 0 -62.5 8.5t-53.5 25.5q-26 17 -38.5 41t-10.5 50h50q-1 -12 6 -26t21 -24q17 -12 40 -18.5t48 -6.5t47.5 6.5t39.5 18.5q30 20 28 46q-3 28 -39 55q-19 14 -41.5 26.5t-45.5 24.5q-25 12 -49.5 25t-46.5 30q-53 43 -58 91q-2 26 10.5 50t38.5 41
q23 17 53 25.5t63 8.5q32 0 62.5 -8.5t53.5 -25.5q25 -17 38 -41t11 -50h-50q1 12 -6.5 26t-21.5 24q-17 12 -39.5 18.5t-47.5 6.5t-48 -6.5t-40 -18.5q-29 -21 -27 -46q2 -27 39 -55q18 -14 41 -26.5t46 -24.5q25 -12 49.5 -25t46.5 -30q53 -43 58 -91q2 -26 -11 -50
t-38 -41q-23 -17 -53.5 -25.5t-62.5 -8.5z" />
    <glyph glyph-name="t" unicode="t" horiz-adv-x="367" 
d="M361 185q3 -31 -5.5 -61t-27.5 -55t-45.5 -42t-56.5 -23q-17 -3 -33 -3q-44 0 -81 21q-26 14 -45.5 36.5t-30.5 49.5l-2 9v631h50v-341h277v-50h-277v-235q8 -17 21.5 -32t30.5 -24q38 -21 80 -13q21 5 40 16.5t32 29.5q13 17 19 38.5t4 43.5l-2 29h49l3 -25v0z" />
    <glyph glyph-name="u" unicode="u" horiz-adv-x="468" 
d="M33 229q-1 58 -1 121.5t1 121.5v25h51v-26q-2 -57 -2 -120.5t2 -120.5q1 -32 4 -60.5t16 -51.5q9 -15 23 -28t32 -21q33 -17 76 -15q39 1 77 17.5t65 45.5l4 4v376h50v-494h-50v51q-11 -8 -23.5 -15t-25.5 -13q-23 -11 -47.5 -16t-47.5 -6q-54 -1 -100 20q-24 11 -44 29
t-33 41q-17 30 -21.5 64.5t-5.5 70.5z" />
    <glyph glyph-name="v" unicode="v" horiz-adv-x="399" 
d="M176 2l-162 496h47l138 -411l138 411h48l-162 -496h-47z" />
    <glyph glyph-name="w" unicode="w" horiz-adv-x="586" 
d="M436 3h-48l-96 357l-95 -357h-48l-126 496h48l102 -393l95 393h49l95 -393l103 393h48z" />
    <glyph glyph-name="x" unicode="x" horiz-adv-x="474" 
d="M268 259l178 -259h-56l-153 216l-153 -216h-56l178 259l-178 259h56l153 -216l153 216h56z" />
    <glyph glyph-name="y" unicode="y" horiz-adv-x="480" 
d="M446 498v-610l-2 -4q-25 -63 -82 -99q-26 -17 -56 -26t-61 -9h-7q-42 2 -80.5 19.5t-67.5 48.5q-29 30 -44.5 70t-13.5 82v25h50v-27q-2 -32 10 -62.5t34 -53.5t52 -36.5t62 -15.5q52 -2 95 26q41 27 61 72v187q-73 -35 -155 -35q-26 0 -51 3t-49 11q-27 9 -45 20
q-23 13 -39 35q-16 23 -22 49q-2 12 -2.5 24t-0.5 24v282h50v-282v-20t2 -18q5 -18 13 -30q10 -14 25 -21q7 -5 15 -8t19 -7q59 -18 121.5 -10.5t115.5 38.5l3 2v356h50z" />
    <glyph glyph-name="z" unicode="z" horiz-adv-x="413" 
d="M374 1h-355l284 449h-263v50h354l-284 -449h264v-50z" />
    <glyph glyph-name="braceleft" unicode="{" horiz-adv-x="282" 
d="M275 -115h-174q-11 0 -18 7t-7 18v338l-50 29q-13 6 -13 22q0 14 13 21l50 29v322q0 11 7 18t18 7h174v-50h-149v-312q0 -14 -13 -22l-24 -13l24 -14q13 -7 13 -22v-328h149v-50z" />
    <glyph glyph-name="bar" unicode="|" horiz-adv-x="127" 
d="M86 -162h-50v790h50v-790z" />
    <glyph glyph-name="braceright" unicode="}" horiz-adv-x="282" 
d="M7 -65h149v328q0 15 13 22l24 14l-24 13q-13 8 -13 22v312h-149v50h174q11 0 18 -7t7 -18v-322l50 -29q13 -7 13 -21q0 -16 -13 -22l-50 -29v-338q0 -11 -7 -18t-18 -7h-174v50z" />
    <glyph glyph-name="asciitilde" unicode="~" horiz-adv-x="440" 
d="M75 158l-48 11l5 24q5 21 18.5 38.5t33.5 28.5t43 13.5t45 -3.5q19 -5 34 -14.5t28 -17.5q11 -8 22.5 -15t24.5 -11q28 -6 51 6q22 11 27 33l5 25l49 -11l-5 -24q-5 -21 -19 -38.5t-34 -28.5t-42.5 -13.5t-44.5 3.5q-19 5 -34 14t-28 19q-11 8 -23 14.5t-24 10.5
q-28 6 -51 -6q-22 -11 -27 -33z" />
    <glyph glyph-name="exclamdown" unicode="&#xa1;" horiz-adv-x="149" 
d="M100 -200h-50v494h50v-494zM133 439q0 -24 -17 -41t-41 -17t-41 17t-17 41q0 25 17 42t41 17t41 -17t17 -42z" />
    <glyph glyph-name="sterling" unicode="&#xa3;" horiz-adv-x="464" 
d="M180 184q3 -34 -1 -68t-14 -66h281v-50h-355l15 35q30 69 24 146q-1 17 -3.5 32.5t-6.5 32.5h-103v50h89q-1 5 -2 9.5t-3 9.5q-5 18 -10.5 36.5t-10.5 38.5q-8 33 -10.5 61.5t-0.5 54.5q5 66 39 115q18 25 43 42.5t54 26.5q61 19 120 -3q29 -11 52.5 -30.5t39.5 -45.5
q17 -26 24 -55.5t5 -59.5l-2 -25h-50l2 29q2 22 -3.5 44t-17.5 41q-24 38 -68 55q-44 16 -87 2q-21 -6 -39.5 -19t-31.5 -31q-27 -38 -30 -90q-3 -45 10 -101q4 -18 9.5 -36.5t10.5 -35.5l9 -33h129v-50h-116q3 -15 5.5 -30.5t3.5 -31.5z" />
    <glyph glyph-name="yen" unicode="&#xa5;" horiz-adv-x="604" 
d="M594 707l-267 -373v-31h176v-50h-176v-71h176v-50h-176v-133h-50v133h-176v50h176v71h-176v50h176v31l-267 373h60l232 -323l231 323h61z" />
    <glyph glyph-name="dieresis" unicode="&#xa8;" horiz-adv-x="233" 
d="M93 583q0 -12 -9 -21t-22 -9q-12 0 -21 9t-9 21q0 13 9 22.5t21 9.5q13 0 22 -9.5t9 -22.5zM201 583q0 -12 -9 -21t-22 -9q-12 0 -21 9t-9 21q0 13 9 22.5t21 9.5q13 0 22 -9.5t9 -22.5z" />
    <glyph glyph-name="copyright" unicode="&#xa9;" horiz-adv-x="748" 
d="M381 91q-28 0 -55.5 7.5t-52.5 22.5q-30 17 -54.5 44t-40.5 60t-23 70.5t-3 74.5q6 71 44 127q38 58 97 84q62 28 125 16q64 -12 112 -59l18 -17l-34 -36l-18 17q-38 37 -87 46q-24 5 -48 1.5t-47 -13.5q-47 -22 -77 -67q-15 -22 -24 -48.5t-11 -54.5q-3 -31 2.5 -61.5
t18.5 -57.5q13 -26 32.5 -47.5t42.5 -35.5q49 -28 102 -22q55 8 96 47l18 17l34 -36l-18 -17q-26 -25 -57.5 -40t-65.5 -20q-7 -1 -13.5 -1.5t-12.5 -0.5zM374 -2q-73 0 -136 28q-62 25 -111 74q-47 47 -75 111q-27 64 -27 136q0 71 27 136q27 63 75 111t111 75
q64 27 136 27q71 0 136 -27q61 -27 111 -75q49 -49 74 -111q28 -67 28 -136t-28 -136q-26 -63 -74 -111q-50 -49 -111 -74q-63 -28 -136 -28zM374 646q-62 0 -116.5 -23.5t-95 -64t-64 -95t-23.5 -116.5t23.5 -116.5t64 -95t95 -64t116.5 -23.5t116.5 23.5t95 64t64 95
t23.5 116.5t-23.5 116.5t-64 95t-95 64t-116.5 23.5z" />
    <glyph glyph-name="registered" unicode="&#xae;" horiz-adv-x="748" 
d="M695 484q28 -67 28 -136t-28 -136q-26 -63 -74 -111q-50 -49 -111 -74q-63 -28 -136 -28t-136 28q-62 25 -111 74q-47 47 -75 111q-27 64 -27 136q0 71 27 136q27 63 75 111t111 75q64 27 136 27q71 0 136 -27q61 -27 111 -75q49 -49 74 -111zM561 115q51 42 81.5 102
t30.5 131q0 62 -23.5 116.5t-64 95t-95 64t-116.5 23.5t-116.5 -23.5t-95 -64t-64 -95t-23.5 -116.5t23.5 -116.5t64 -95t95 -64t116.5 -23.5q39 0 76 10t69 28l-98 240q-5 0 -9 -0.5t-9 -0.5h-110v-225h-50v501h160q21 -1 45.5 -3.5t49.5 -18.5q26 -18 41 -47
q17 -32 17 -70t-17 -69q-15 -29 -42 -46q-6 -5 -12.5 -8t-12.5 -5zM293 376h109q21 1 37.5 3t30.5 11q15 9 25 27q11 22 11 46q0 25 -11 47q-8 16 -25 28q-14 9 -30.5 11t-37.5 3h-109v-176z" />
    <glyph glyph-name="macron" unicode="&#xaf;" horiz-adv-x="355" 
d="M36 695v50h282v-50h-282z" />
    <glyph glyph-name="acute" unicode="&#xb4;" horiz-adv-x="199" 
d="M34 536l-27 41l158 107l28 -42z" />
    <glyph glyph-name="periodcentered" unicode="&#xb7;" horiz-adv-x="112" 
d="M86 288q0 -12 -9 -21t-22 -9q-12 0 -21 9t-9 21q0 13 9 22.5t21 9.5q13 0 22 -9.5t9 -22.5z" />
    <glyph glyph-name="cedilla" unicode="&#xb8;" horiz-adv-x="193" 
d="M135 -190h-99v50h92q1 2 2 4.5t1 6.5t-2 10h-93v120h50v-70h63l6 -5q14 -8 20 -25q6 -15 6 -31q-2 -20 -11 -37q-13 -19 -33 -22z" />
    <glyph glyph-name="questiondown" unicode="&#xbf;" horiz-adv-x="335" 
d="M153 295h50v-79q0 -15 -0.5 -31t-5.5 -33q-7 -31 -28 -61q-10 -13 -21 -23.5t-23 -21.5l-1 -2q-10 -8 -19 -17t-16 -19q-14 -20 -16.5 -44.5t5.5 -47.5q9 -22 28 -38.5t42 -21.5t47.5 1.5t41.5 23.5t25.5 40.5t3.5 47.5l-4 33h49l4 -25q7 -36 -5 -71.5t-38 -60.5
q-27 -26 -63 -36t-72 -2q-35 8 -63.5 32.5t-42.5 58.5q-13 35 -8.5 72t25.5 67q9 13 20 23.5t22 21.5l2 1q10 9 19 18t17 20q15 19 21 43q3 12 3.5 25.5t0.5 26.5v79zM124 441q0 25 17 42t41 17t41 -17t17 -42q0 -24 -17 -41t-41 -17t-41 17t-17 41z" />
    <glyph glyph-name="Agrave" unicode="&#xc0;" horiz-adv-x="559" 
d="M395 283h-226l-97 -282h-57l243 697h47l244 -697h-57zM378 333l-96 280l-96 -280h192zM150 842l28 42l158 -107l-27 -41z" />
    <glyph glyph-name="Aacute" unicode="&#xc1;" horiz-adv-x="558" 
d="M486 1h57l-244 697h-47l-243 -697h57l97 282h226zM180 333l96 280l96 -280h-192zM252 736l-27 41l158 107l28 -42z" />
    <glyph glyph-name="Acircumflex" unicode="&#xc2;" horiz-adv-x="560" 
d="M490 1h57l-244 697h-47l-243 -697h57l97 282h226zM184 333l96 280l96 -280h-192zM188 741l-33 38l109 94h33l108 -94l-32 -38l-93 80z" />
    <glyph glyph-name="Atilde" unicode="&#xc3;" horiz-adv-x="560" 
d="M490 1h57l-244 697h-47l-243 -697h57l97 282h226zM184 333l96 280l96 -280h-192zM184 743l-49 8l4 24q6 43 38 67q16 12 35 15t37 -4q15 -5 26.5 -15.5t21.5 -19.5q8 -7 15 -13.5t15 -9.5q12 -4 25 4q15 11 18 34l4 25l50 -8l-4 -24q-8 -44 -38 -67q-16 -12 -35.5 -15
t-37.5 4q-15 6 -26.5 16t-20.5 19q-8 7 -15 13.5t-15 9.5q-14 5 -25 -4q-16 -11 -19 -34z" />
    <glyph glyph-name="Adieresis" unicode="&#xc4;" horiz-adv-x="554" 
d="M487 1h57l-244 697h-47l-243 -697h57l97 282h226zM181 333l96 280l96 -280h-192zM255 783q0 -12 -9 -21t-22 -9q-12 0 -21 9t-9 21q0 13 9 22.5t21 9.5q13 0 22 -9.5t9 -22.5zM363 783q0 -12 -9 -21t-22 -9q-12 0 -21 9t-9 21q0 13 9 22.5t21 9.5q13 0 22 -9.5t9 -22.5z
" />
    <glyph glyph-name="Aring" unicode="&#xc5;" horiz-adv-x="540" 
d="M490 1h57l-244 697h-47l-243 -697h57l97 282h226zM184 333l96 280l96 -280h-192zM280 705q-18 0 -33.5 7t-27 18.5t-18 27t-6.5 33.5q0 35 25 60t60 25q36 0 61 -25t25 -60q0 -18 -6.5 -33.5t-18.5 -27t-27.5 -18.5t-33.5 -7zM280 826q-14 0 -24.5 -10.5t-10.5 -24.5
q0 -15 10.5 -25.5t24.5 -10.5q15 0 25.5 10.5t10.5 25.5q0 14 -10.5 24.5t-25.5 10.5z" />
    <glyph glyph-name="AE" unicode="&#xc6;" horiz-adv-x="885" 
d="M474 649v-274h393v-50h-393v-274h396v-50h-446v272h-196l-160 -269h-56l412 695h446v-50h-396zM424 323v278l-166 -278h166z" />
    <glyph glyph-name="Ccedilla" unicode="&#xc7;" horiz-adv-x="588" 
d="M363 -149h-99v50h92q1 2 2 4.5t1 6.5t-2 10h-93v88q-35 9 -69 29q-42 24 -75 61.5t-56 82.5q-22 46 -31.5 97t-4.5 103q9 96 61 175q26 38 59.5 67.5t74.5 47.5q81 37 170 22q86 -17 154 -80l18 -18l-34 -36l-19 17q-27 27 -60 44t-68 23q-72 14 -141 -17
q-33 -16 -62 -40.5t-51 -57.5q-44 -67 -52 -152q-4 -45 4 -89.5t27 -83.5q40 -80 111 -122q35 -20 74 -28.5t77 -3.5q39 5 75.5 22.5t65.5 46.5l19 17l34 -36l-18 -17q-35 -34 -79 -55.5t-91 -27.5q-8 -1 -17 -1.5t-18 -0.5q-8 0 -14.5 0.5t-13.5 0.5v-28h63l6 -5
q14 -8 20 -25q6 -15 6 -31q-2 -20 -11 -37q-13 -19 -33 -22z" />
    <glyph glyph-name="Egrave" unicode="&#xc8;" horiz-adv-x="485" 
d="M86 647v-273h396v-50h-396v-273h396v-50h-446v696h446v-50h-396zM149 842l28 42l158 -107l-27 -41z" />
    <glyph glyph-name="Eacute" unicode="&#xc9;" horiz-adv-x="485" 
d="M482 647v50h-446v-696h446v50h-396v273h396v50h-396v273h396zM176 736l-27 41l158 107l28 -42z" />
    <glyph glyph-name="Ecircumflex" unicode="&#xca;" horiz-adv-x="485" 
d="M482 647v50h-446v-696h446v50h-396v273h396v50h-396v273h396zM150 741l-33 38l109 94h33l108 -94l-32 -38l-93 80z" />
    <glyph glyph-name="Edieresis" unicode="&#xcb;" horiz-adv-x="485" 
d="M482 647v50h-446v-696h446v50h-396v273h396v50h-396v273h396zM327 783q0 -12 -9 -21t-22 -9q-12 0 -21 9t-9 21q0 13 9 22.5t21 9.5q13 0 22 -9.5t9 -22.5zM219 783q0 -12 -9 -21t-22 -9q-12 0 -21 9t-9 21q0 13 9 22.5t21 9.5q13 0 22 -9.5t9 -22.5z" />
    <glyph glyph-name="Igrave" unicode="&#xcc;" horiz-adv-x="493" 
d="M272 646v-598h207v-50h-465v50h208v598h-208v50h465v-50h-207zM153 842l28 42l158 -107l-27 -41z" />
    <glyph glyph-name="Iacute" unicode="&#xcd;" horiz-adv-x="493" 
d="M479 646v50h-465v-50h208v-598h-208v-50h465v50h-207v598h207zM180 736l-27 41l158 107l28 -42z" />
    <glyph glyph-name="Icircumflex" unicode="&#xce;" horiz-adv-x="493" 
d="M479 646v50h-465v-50h208v-598h-208v-50h465v50h-207v598h207zM154 741l-33 38l109 94h33l108 -94l-32 -38l-93 80z" />
    <glyph glyph-name="Idieresis" unicode="&#xcf;" horiz-adv-x="493" 
d="M479 646v50h-465v-50h208v-598h-208v-50h465v50h-207v598h207zM331 783q0 -12 -9 -21t-22 -9q-12 0 -21 9t-9 21q0 13 9 22.5t21 9.5q13 0 22 -9.5t9 -22.5zM223 783q0 -12 -9 -21t-22 -9q-12 0 -21 9t-9 21q0 13 9 22.5t21 9.5q13 0 22 -9.5t9 -22.5z" />
    <glyph glyph-name="Eth" unicode="&#xd0;" horiz-adv-x="636" 
d="M579 523q14 -39 22 -84t8 -90t-8 -90t-22 -84q-28 -73 -73 -115q-22 -20 -45 -31.5t-46 -17.5t-46 -7.5t-44 -1.5h-214v322h-91v50h91v322h214q21 0 44 -1.5t46 -7.5t46 -17.5t45 -31.5q45 -42 73 -115zM532 192q13 35 20 75t7 82q0 41 -7 81t-20 75q-23 62 -60 96
q-34 31 -71 38t-76 7h-164v-272h96v-50h-96v-272h164q19 0 38.5 1t38 5.5t36 13.5t34.5 25q37 34 60 95z" />
    <glyph glyph-name="Ntilde" unicode="&#xd1;" horiz-adv-x="641" 
d="M86 0h-50v699h45l474 -603v603h50v-699h-45l-474 602v-602zM225 743l-49 8l4 24q6 43 38 67q16 12 35 15t37 -4q15 -5 26.5 -15.5t21.5 -19.5q8 -7 15 -13.5t15 -9.5q12 -4 25 4q15 11 18 34l4 25l50 -8l-4 -24q-8 -44 -38 -67q-16 -12 -35.5 -15t-37.5 4q-15 6 -26.5 16
t-20.5 19q-8 7 -15 13.5t-15 9.5q-14 5 -25 -4q-16 -11 -19 -34z" />
    <glyph glyph-name="Ograve" unicode="&#xd2;" horiz-adv-x="613" 
d="M307 -1q-58 0 -112 28q-50 26 -90 76q-39 50 -59.5 113t-20.5 132t20.5 132t59.5 113q40 50 90 76q54 28 112 28q57 0 111 -28q50 -26 90 -76q39 -50 59.5 -113t20.5 -132t-20.5 -132t-59.5 -113q-40 -50 -90 -76q-54 -28 -111 -28zM307 647q-48 0 -90.5 -23.5t-74 -64
t-49.5 -95t-18 -116.5t18 -116.5t49.5 -95t74 -64t90.5 -23.5t90 23.5t73.5 64t49.5 95t18 116.5t-18 116.5t-49.5 95t-73.5 64t-90 23.5zM213 842l28 42l158 -107l-27 -41z" />
    <glyph glyph-name="Oacute" unicode="&#xd3;" horiz-adv-x="613" 
d="M307 -1q-58 0 -112 28q-50 26 -90 76q-39 50 -59.5 113t-20.5 132t20.5 132t59.5 113q40 50 90 76q54 28 112 28q57 0 111 -28q50 -26 90 -76q39 -50 59.5 -113t20.5 -132t-20.5 -132t-59.5 -113q-40 -50 -90 -76q-54 -28 -111 -28zM307 647q-48 0 -90.5 -23.5t-74 -64
t-49.5 -95t-18 -116.5t18 -116.5t49.5 -95t74 -64t90.5 -23.5t90 23.5t73.5 64t49.5 95t18 116.5t-18 116.5t-49.5 95t-73.5 64t-90 23.5zM240 736l-27 41l158 107l28 -42z" />
    <glyph glyph-name="Ocircumflex" unicode="&#xd4;" horiz-adv-x="613" 
d="M307 -1q-58 0 -112 28q-50 26 -90 76q-39 50 -59.5 113t-20.5 132t20.5 132t59.5 113q40 50 90 76q54 28 112 28q57 0 111 -28q50 -26 90 -76q39 -50 59.5 -113t20.5 -132t-20.5 -132t-59.5 -113q-40 -50 -90 -76q-54 -28 -111 -28zM307 647q-48 0 -90.5 -23.5t-74 -64
t-49.5 -95t-18 -116.5t18 -116.5t49.5 -95t74 -64t90.5 -23.5t90 23.5t73.5 64t49.5 95t18 116.5t-18 116.5t-49.5 95t-73.5 64t-90 23.5zM214 741l-33 38l109 94h33l108 -94l-32 -38l-93 80z" />
    <glyph glyph-name="Otilde" unicode="&#xd5;" horiz-adv-x="613" 
d="M307 -1q-58 0 -112 28q-50 26 -90 76q-39 50 -59.5 113t-20.5 132t20.5 132t59.5 113q40 50 90 76q54 28 112 28q57 0 111 -28q50 -26 90 -76q39 -50 59.5 -113t20.5 -132t-20.5 -132t-59.5 -113q-40 -50 -90 -76q-54 -28 -111 -28zM307 647q-48 0 -90.5 -23.5t-74 -64
t-49.5 -95t-18 -116.5t18 -116.5t49.5 -95t74 -64t90.5 -23.5t90 23.5t73.5 64t49.5 95t18 116.5t-18 116.5t-49.5 95t-73.5 64t-90 23.5zM211 743l-49 8l4 24q6 43 38 67q16 12 35 15t37 -4q15 -5 26.5 -15.5t21.5 -19.5q8 -7 15 -13.5t15 -9.5q12 -4 25 4q15 11 18 34
l4 25l50 -8l-4 -24q-8 -44 -38 -67q-16 -12 -35.5 -15t-37.5 4q-15 6 -26.5 16t-20.5 19q-8 7 -15 13.5t-15 9.5q-14 5 -25 -4q-16 -11 -19 -34z" />
    <glyph glyph-name="Odieresis" unicode="&#xd6;" horiz-adv-x="613" 
d="M307 -1q-58 0 -112 28q-50 26 -90 76q-39 50 -59.5 113t-20.5 132t20.5 132t59.5 113q40 50 90 76q54 28 112 28q57 0 111 -28q50 -26 90 -76q39 -50 59.5 -113t20.5 -132t-20.5 -132t-59.5 -113q-40 -50 -90 -76q-54 -28 -111 -28zM307 647q-48 0 -90.5 -23.5t-74 -64
t-49.5 -95t-18 -116.5t18 -116.5t49.5 -95t74 -64t90.5 -23.5t90 23.5t73.5 64t49.5 95t18 116.5t-18 116.5t-49.5 95t-73.5 64t-90 23.5zM283 783q0 -12 -9 -21t-22 -9q-12 0 -21 9t-9 21q0 13 9 22.5t21 9.5q13 0 22 -9.5t9 -22.5zM391 783q0 -12 -9 -21t-22 -9
q-12 0 -21 9t-9 21q0 13 9 22.5t21 9.5q13 0 22 -9.5t9 -22.5z" />
    <glyph glyph-name="Oslash" unicode="&#xd8;" horiz-adv-x="613" 
d="M178 10l-45 21l13 29q-11 9 -21 20t-20 23q-39 50 -59.5 113t-20.5 132t20.5 132t59.5 113q40 50 90 76q54 28 112 28q57 0 111 -28q6 -4 10 -6l6 14l45 -21l-10 -22q20 -17 39 -41q39 -50 59.5 -113t20.5 -132t-20.5 -132t-59.5 -113q-40 -50 -90 -76q-54 -28 -111 -28
q-58 0 -112 28q-4 1 -8 4zM307 647q-48 0 -90.5 -23.5t-74 -64t-49.5 -95t-18 -116.5q0 -74 25.5 -136.5t67.5 -103.5l238 509q-47 30 -99 30zM307 49q48 0 90 23.5t73.5 64t49.5 95t18 116.5q0 73 -25 134.5t-67 103.5l-237 -509q47 -28 98 -28z" />
    <glyph glyph-name="Ugrave" unicode="&#xd9;" 
d="M252 -2h-1q-30 0 -59.5 10.5t-55.5 30.5q-46 33 -72 91q-23 51 -27.5 105.5t-4.5 104.5q-2 165 0 331v25h50v-25q-2 -166 0 -331q0 -46 4 -95.5t24 -94.5q10 -22 24.5 -40t31.5 -32q39 -30 85 -30h1q45 0 86 30q36 26 57 72q20 45 24 94.5t4 95.5q2 165 0 331v25h50v-25
q2 -166 0 -331q0 -48 -4.5 -103.5t-28.5 -107.5q-26 -58 -72 -91q-54 -40 -116 -40zM159 842l28 42l158 -107l-27 -41z" />
    <glyph glyph-name="Uacute" unicode="&#xda;" 
d="M252 -2h-1q-30 0 -59.5 10.5t-55.5 30.5q-46 33 -72 91q-23 51 -27.5 105.5t-4.5 104.5q-2 165 0 331v25h50v-25q-2 -166 0 -331q0 -46 4 -95.5t24 -94.5q10 -22 24.5 -40t31.5 -32q39 -30 85 -30h1q45 0 86 30q36 26 57 72q20 45 24 94.5t4 95.5q2 165 0 331v25h50v-25
q2 -166 0 -331q0 -48 -4.5 -103.5t-28.5 -107.5q-26 -58 -72 -91q-54 -40 -116 -40zM186 736l-27 41l158 107l28 -42z" />
    <glyph glyph-name="Ucircumflex" unicode="&#xdb;" 
d="M252 -2h-1q-30 0 -59.5 10.5t-55.5 30.5q-46 33 -72 91q-23 51 -27.5 105.5t-4.5 104.5q-2 165 0 331v25h50v-25q-2 -166 0 -331q0 -46 4 -95.5t24 -94.5q10 -22 24.5 -40t31.5 -32q39 -30 85 -30h1q45 0 86 30q36 26 57 72q20 45 24 94.5t4 95.5q2 165 0 331v25h50v-25
q2 -166 0 -331q0 -48 -4.5 -103.5t-28.5 -107.5q-26 -58 -72 -91q-54 -40 -116 -40zM160 741l-33 38l109 94h33l108 -94l-32 -38l-93 80z" />
    <glyph glyph-name="Udieresis" unicode="&#xdc;" 
d="M252 -2h-1q-30 0 -59.5 10.5t-55.5 30.5q-46 33 -72 91q-23 51 -27.5 105.5t-4.5 104.5q-2 165 0 331v25h50v-25q-2 -166 0 -331q0 -46 4 -95.5t24 -94.5q10 -22 24.5 -40t31.5 -32q39 -30 85 -30h1q45 0 86 30q36 26 57 72q20 45 24 94.5t4 95.5q2 165 0 331v25h50v-25
q2 -166 0 -331q0 -48 -4.5 -103.5t-28.5 -107.5q-26 -58 -72 -91q-54 -40 -116 -40zM337 783q0 -12 -9 -21t-22 -9q-12 0 -21 9t-9 21q0 13 9 22.5t21 9.5q13 0 22 -9.5t9 -22.5zM229 783q0 -12 -9 -21t-22 -9q-12 0 -21 9t-9 21q0 13 9 22.5t21 9.5q13 0 22 -9.5t9 -22.5z
" />
    <glyph glyph-name="Yacute" unicode="&#xdd;" horiz-adv-x="604" 
d="M594 707h-61l-231 -323l-232 323h-60l267 -373v-335h50v335zM236 736l-27 41l158 107l28 -42z" />
    <glyph glyph-name="Thorn" unicode="&#xde;" horiz-adv-x="551" 
d="M36 9v610h50v-151q13 19 28 33q35 35 80 54t95 19t95 -19t80 -54t54 -80t19 -95t-19 -95t-54 -80t-80 -54t-95 -19t-95 19t-80 54q-15 14 -28 33v-175h-50zM289 524q-41 0 -77 -15.5t-63 -42.5t-42.5 -63t-15.5 -77t15.5 -77t42.5 -63t63 -42.5t77 -15.5t77 15.5t63 42.5
t42.5 63t15.5 77t-15.5 77t-42.5 63t-63 42.5t-77 15.5z" />
    <glyph glyph-name="germandbls" unicode="&#xdf;" horiz-adv-x="475" 
d="M262 -1q-48 0 -91 23l-22 12l24 44l22 -12q36 -19 76 -16q20 1 38.5 8t34.5 18t27.5 27t19.5 34q14 40 7 78q-5 23 -16.5 43t-29.5 35q-17 15 -42.5 23.5t-48.5 9.5v49q39 12 66 45q26 33 31 73q6 56 -28 101q-35 44 -91 52q-26 4 -52.5 -2.5t-48.5 -22.5
q-44 -33 -55 -86v-530h-50v532l1 5q6 35 26 66.5t49 53.5q29 21 65 29.5t73 3.5q36 -5 67.5 -23.5t54.5 -47.5t33 -64.5t6 -71.5q-3 -27 -14 -53t-28 -47q-6 -8 -13 -14.5t-15 -13.5q25 -10 47 -29q24 -21 40 -48t22 -59q5 -26 2.5 -53t-12.5 -52q-20 -51 -64 -83
q-44 -33 -99 -36q-4 -1 -12 -1z" />
    <glyph glyph-name="agrave" unicode="&#xe0;" horiz-adv-x="562" 
d="M525 497v-498h-50v107q-13 -19 -28 -33q-35 -35 -80 -54t-95 -19t-95 19t-80 54t-54 80t-19 95t19 95t54 80t80 54t95 19t95 -19t80 -54q15 -14 28 -33v107h50zM272 50q41 0 77 15.5t63 42.5t42.5 63t15.5 77t-15.5 77t-42.5 63t-63 42.5t-77 15.5t-77 -15.5t-63 -42.5
t-42.5 -63t-15.5 -77t15.5 -77t42.5 -63t63 -42.5t77 -15.5zM188 642l28 42l158 -107l-27 -41z" />
    <glyph glyph-name="aacute" unicode="&#xe1;" horiz-adv-x="562" 
d="M475 497v-107q-13 19 -28 33q-35 35 -80 54t-95 19t-95 -19t-80 -54t-54 -80t-19 -95t19 -95t54 -80t80 -54t95 -19t95 19t80 54q15 14 28 33v-107h50v498h-50zM272 50q-41 0 -77 15.5t-63 42.5t-42.5 63t-15.5 77t15.5 77t42.5 63t63 42.5t77 15.5t77 -15.5t63 -42.5
t42.5 -63t15.5 -77t-15.5 -77t-42.5 -63t-63 -42.5t-77 -15.5zM215 536l-27 41l158 107l28 -42z" />
    <glyph glyph-name="acircumflex" unicode="&#xe2;" horiz-adv-x="562" 
d="M475 497v-107q-13 19 -28 33q-35 35 -80 54t-95 19t-95 -19t-80 -54t-54 -80t-19 -95t19 -95t54 -80t80 -54t95 -19t95 19t80 54q15 14 28 33v-107h50v498h-50zM272 50q-41 0 -77 15.5t-63 42.5t-42.5 63t-15.5 77t15.5 77t42.5 63t63 42.5t77 15.5t77 -15.5t63 -42.5
t42.5 -63t15.5 -77t-15.5 -77t-42.5 -63t-63 -42.5t-77 -15.5zM189 541l-33 38l109 94h33l108 -94l-32 -38l-93 80z" />
    <glyph glyph-name="atilde" unicode="&#xe3;" horiz-adv-x="562" 
d="M475 497v-107q-13 19 -28 33q-35 35 -80 54t-95 19t-95 -19t-80 -54t-54 -80t-19 -95t19 -95t54 -80t80 -54t95 -19t95 19t80 54q15 14 28 33v-107h50v498h-50zM272 50q-41 0 -77 15.5t-63 42.5t-42.5 63t-15.5 77t15.5 77t42.5 63t63 42.5t77 15.5t77 -15.5t63 -42.5
t42.5 -63t15.5 -77t-15.5 -77t-42.5 -63t-63 -42.5t-77 -15.5zM185 543l-49 8l4 24q6 43 38 67q16 12 35 15t37 -4q15 -5 26.5 -15.5t21.5 -19.5q8 -7 15 -13.5t15 -9.5q12 -4 25 4q15 11 18 34l4 25l50 -8l-4 -24q-8 -44 -38 -67q-16 -12 -35.5 -15t-37.5 4q-15 6 -26.5 16
t-20.5 19q-8 7 -15 13.5t-15 9.5q-14 5 -25 -4q-16 -11 -19 -34z" />
    <glyph glyph-name="adieresis" unicode="&#xe4;" horiz-adv-x="562" 
d="M475 497v-107q-13 19 -28 33q-35 35 -80 54t-95 19t-95 -19t-80 -54t-54 -80t-19 -95t19 -95t54 -80t80 -54t95 -19t95 19t80 54q15 14 28 33v-107h50v498h-50zM272 50q-41 0 -77 15.5t-63 42.5t-42.5 63t-15.5 77t15.5 77t42.5 63t63 42.5t77 15.5t77 -15.5t63 -42.5
t42.5 -63t15.5 -77t-15.5 -77t-42.5 -63t-63 -42.5t-77 -15.5zM257 583q0 -12 -9 -21t-22 -9q-12 0 -21 9t-9 21q0 13 9 22.5t21 9.5q13 0 22 -9.5t9 -22.5zM365 583q0 -12 -9 -21t-22 -9q-12 0 -21 9t-9 21q0 13 9 22.5t21 9.5q13 0 22 -9.5t9 -22.5z" />
    <glyph glyph-name="aring" unicode="&#xe5;" horiz-adv-x="562" 
d="M475 497v-107q-13 19 -28 33q-35 35 -80 54t-95 19t-95 -19t-80 -54t-54 -80t-19 -95t19 -95t54 -80t80 -54t95 -19t95 19t80 54q15 14 28 33v-107h50v498h-50zM272 50q-41 0 -77 15.5t-63 42.5t-42.5 63t-15.5 77t15.5 77t42.5 63t63 42.5t77 15.5t77 -15.5t63 -42.5
t42.5 -63t15.5 -77t-15.5 -77t-42.5 -63t-63 -42.5t-77 -15.5zM280 505q-18 0 -33.5 7t-27 18.5t-18 27t-6.5 33.5q0 35 25 60t60 25q36 0 61 -25t25 -60q0 -18 -6.5 -33.5t-18.5 -27t-27.5 -18.5t-33.5 -7zM280 626q-14 0 -24.5 -10.5t-10.5 -24.5q0 -15 10.5 -25.5
t24.5 -10.5q15 0 25.5 10.5t10.5 25.5q0 14 -10.5 24.5t-25.5 10.5z" />
    <glyph glyph-name="ae" unicode="&#xe6;" horiz-adv-x="972" 
d="M525 497v-122q4 8 8 14.5t9 13.5q46 65 122 88q44 13 90.5 6.5t85.5 -29.5t66 -61.5t36 -83.5l6 -30h-399q-2 -8 -3 -16.5t-1 -16.5q-1 -40 12 -77t38 -66q29 -32 70 -50q20 -8 41.5 -12.5t42.5 -2.5q42 1 83 22q39 21 65 56l15 20l40 -30l-15 -20q-32 -44 -82 -70
t-104 -28q-3 -1 -9 -1q-49 0 -97 20q-25 11 -47.5 27t-39.5 36q-19 20 -33 47v-132h-50v107q-13 -19 -28 -33q-35 -35 -80 -54t-95 -19t-95 19t-80 54t-54 80t-19 95t19 95t54 80t80 54t95 19t95 -19t80 -54q15 -14 28 -33v107h50zM272 50q41 0 77 15.5t63 42.5t42.5 63
t15.5 77t-15.5 77t-42.5 63t-63 42.5t-77 15.5t-77 -15.5t-63 -42.5t-42.5 -63t-15.5 -77t15.5 -77t42.5 -63t63 -42.5t77 -15.5zM725 449q-25 0 -47 -6q-29 -8 -53.5 -26t-42.5 -43q-5 -8 -9 -15.5t-8 -15.5h319q-11 26 -29 47t-41 35q-41 24 -89 24z" />
    <glyph glyph-name="ccedilla" unicode="&#xe7;" horiz-adv-x="481" 
d="M324 -149h-99v50h92q1 2 2 4.5t1 6.5t-2 10h-93v82q-35 8 -65 24q-67 34 -104 102q-37 66 -29 142q6 69 48 125t107 82t134 15t122 -56l20 -16l-33 -38l-19 16q-44 36 -98 45q-55 9 -107 -12q-52 -22 -86 -66q-16 -22 -26 -47t-12 -53q-6 -61 23 -113q14 -26 35.5 -47
t47.5 -35t56 -19.5t60 -1.5q61 6 107 46l19 16l33 -38l-20 -16q-28 -24 -62.5 -39t-71.5 -19q-7 -1 -13.5 -1.5t-13.5 -0.5h-2v-27h63l6 -5q14 -8 20 -25q6 -15 6 -31q-2 -20 -11 -37q-13 -19 -33 -22z" />
    <glyph glyph-name="egrave" unicode="&#xe8;" horiz-adv-x="501" 
d="M272 1q-49 0 -97 20q-25 11 -47.5 27t-39.5 36q-32 35 -48.5 81.5t-14.5 95.5q1 38 13 74.5t34 67.5q46 65 122 88q44 13 90.5 6.5t85.5 -29.5t66 -61.5t36 -83.5l6 -30h-399q-2 -8 -3 -16.5t-1 -16.5q-1 -40 12 -77t38 -66q29 -32 70 -50q20 -8 41.5 -12.5t42.5 -2.5
q42 1 83 22q39 21 65 56l15 20l40 -30l-15 -20q-32 -44 -82 -70t-104 -28q-3 -1 -9 -1zM255 449q-25 0 -47 -6q-29 -8 -53.5 -26t-42.5 -43q-5 -8 -9 -15.5t-8 -15.5h319q-11 26 -29 47t-41 35q-41 24 -89 24zM157 642l28 42l158 -107l-27 -41z" />
    <glyph glyph-name="eacute" unicode="&#xe9;" horiz-adv-x="501" 
d="M272 1q-49 0 -97 20q-25 11 -47.5 27t-39.5 36q-32 35 -48.5 81.5t-14.5 95.5q1 38 13 74.5t34 67.5q46 65 122 88q44 13 90.5 6.5t85.5 -29.5t66 -61.5t36 -83.5l6 -30h-399q-2 -8 -3 -16.5t-1 -16.5q-1 -40 12 -77t38 -66q29 -32 70 -50q20 -8 41.5 -12.5t42.5 -2.5
q42 1 83 22q39 21 65 56l15 20l40 -30l-15 -20q-32 -44 -82 -70t-104 -28q-3 -1 -9 -1zM255 449q-25 0 -47 -6q-29 -8 -53.5 -26t-42.5 -43q-5 -8 -9 -15.5t-8 -15.5h319q-11 26 -29 47t-41 35q-41 24 -89 24zM184 536l-27 41l158 107l28 -42z" />
    <glyph glyph-name="ecircumflex" unicode="&#xea;" horiz-adv-x="501" 
d="M272 1q-49 0 -97 20q-25 11 -47.5 27t-39.5 36q-32 35 -48.5 81.5t-14.5 95.5q1 38 13 74.5t34 67.5q46 65 122 88q44 13 90.5 6.5t85.5 -29.5t66 -61.5t36 -83.5l6 -30h-399q-2 -8 -3 -16.5t-1 -16.5q-1 -40 12 -77t38 -66q29 -32 70 -50q20 -8 41.5 -12.5t42.5 -2.5
q42 1 83 22q39 21 65 56l15 20l40 -30l-15 -20q-32 -44 -82 -70t-104 -28q-3 -1 -9 -1zM255 449q-25 0 -47 -6q-29 -8 -53.5 -26t-42.5 -43q-5 -8 -9 -15.5t-8 -15.5h319q-11 26 -29 47t-41 35q-41 24 -89 24zM158 541l-33 38l109 94h33l108 -94l-32 -38l-93 80z" />
    <glyph glyph-name="edieresis" unicode="&#xeb;" horiz-adv-x="501" 
d="M272 1q-49 0 -97 20q-25 11 -47.5 27t-39.5 36q-32 35 -48.5 81.5t-14.5 95.5q1 38 13 74.5t34 67.5q46 65 122 88q44 13 90.5 6.5t85.5 -29.5t66 -61.5t36 -83.5l6 -30h-399q-2 -8 -3 -16.5t-1 -16.5q-1 -40 12 -77t38 -66q29 -32 70 -50q20 -8 41.5 -12.5t42.5 -2.5
q42 1 83 22q39 21 65 56l15 20l40 -30l-15 -20q-32 -44 -82 -70t-104 -28q-3 -1 -9 -1zM255 449q-25 0 -47 -6q-29 -8 -53.5 -26t-42.5 -43q-5 -8 -9 -15.5t-8 -15.5h319q-11 26 -29 47t-41 35q-41 24 -89 24zM227 583q0 -12 -9 -21t-22 -9q-12 0 -21 9t-9 21q0 13 9 22.5
t21 9.5q13 0 22 -9.5t9 -22.5zM335 583q0 -12 -9 -21t-22 -9q-12 0 -21 9t-9 21q0 13 9 22.5t21 9.5q13 0 22 -9.5t9 -22.5z" />
    <glyph glyph-name="igrave" unicode="&#xec;" horiz-adv-x="217" 
d="M188 2h-50v494h50v-494zM1 642l28 42l158 -107l-27 -41z" />
    <glyph glyph-name="iacute" unicode="&#xed;" horiz-adv-x="216" 
d="M77 2h-50v494h50v-494zM56 536l-27 41l158 107l28 -42z" />
    <glyph glyph-name="icircumflex" unicode="&#xee;" horiz-adv-x="268" 
d="M158 2h-50v494h50v-494zM42 541l-33 38l109 94h33l108 -94l-32 -38l-93 80z" />
    <glyph glyph-name="idieresis" unicode="&#xef;" horiz-adv-x="181" 
d="M115 2h-50v494h50v-494zM175 583q0 -12 -9 -21t-22 -9q-12 0 -21 9t-9 21q0 13 9 22.5t21 9.5q13 0 22 -9.5t9 -22.5zM67 583q0 -12 -9 -21t-22 -9q-12 0 -21 9t-9 21q0 13 9 22.5t21 9.5q13 0 22 -9.5t9 -22.5z" />
    <glyph glyph-name="eth" unicode="&#xf0;" horiz-adv-x="525" 
d="M202 524l-40 30l53 74q-42 15 -88 20t-89 -1l-1 49q53 8 106 1t103 -27l55 77l40 -30l-50 -69q53 -30 95 -74t69 -98q31 -61 39 -131q4 -36 4 -73.5t-7.5 -72.5t-24 -68t-43.5 -60q-33 -33 -76 -51t-90 -18q-48 0 -91 18t-76 51q-34 34 -51.5 76.5t-17.5 90.5t17.5 90.5
t51.5 75.5q33 34 76 51.5t91 17.5q47 0 90 -17.5t76 -51.5l6 -6t5 -6q-5 17 -10.5 32t-12.5 30q-25 49 -63 88t-86 65zM257 423q-39 0 -72.5 -14.5t-59 -39.5t-40 -59t-14.5 -72q0 -39 14.5 -72.5t40 -59t59 -40t72.5 -14.5q38 0 72 14.5t59 40t39.5 59t14.5 72.5
q0 38 -14.5 72t-39.5 59t-59 39.5t-72 14.5z" />
    <glyph glyph-name="ntilde" unicode="&#xf1;" horiz-adv-x="465" 
d="M434 257q-1 36 -5.5 70.5t-21.5 64.5q-13 23 -33 41t-44 29q-46 21 -100 20q-23 -1 -47.5 -6t-47.5 -16q-13 -6 -25.5 -13t-23.5 -15v67h-50v-498h50v364l4 4q27 29 65 45.5t77 17.5q43 2 76 -15q18 -8 32 -21t23 -28q13 -23 16 -51.5t4 -60.5q3 -115 0 -229v-26h51v25
q1 115 0 231zM137 543l-49 8l4 24q6 43 38 67q16 12 35 15t37 -4q15 -5 26.5 -15.5t21.5 -19.5q8 -7 15 -13.5t15 -9.5q12 -4 25 4q15 11 18 34l4 25l50 -8l-4 -24q-8 -44 -38 -67q-16 -12 -35.5 -15t-37.5 4q-15 6 -26.5 16t-20.5 19q-8 7 -15 13.5t-15 9.5q-14 5 -25 -4
q-16 -11 -19 -34z" />
    <glyph glyph-name="ograve" unicode="&#xf2;" horiz-adv-x="548" 
d="M274 2q-51 0 -96 19t-80 54t-54 80.5t-19 95.5q0 51 19 96t54 80t80 54t96 19q50 0 95.5 -19t80.5 -54t54 -80t19 -96q0 -50 -19 -95.5t-54 -80.5t-80.5 -54t-95.5 -19zM274 450q-41 0 -77.5 -15.5t-63.5 -42.5t-42.5 -63.5t-15.5 -77.5t15.5 -77.5t42.5 -63.5
t63.5 -42.5t77.5 -15.5t77 15.5t63 42.5t43 63.5t16 77.5t-16 77.5t-43 63.5t-63 42.5t-77 15.5zM181 642l28 42l158 -107l-27 -41z" />
    <glyph glyph-name="oacute" unicode="&#xf3;" horiz-adv-x="548" 
d="M274 2q-51 0 -96 19t-80 54t-54 80.5t-19 95.5q0 51 19 96t54 80t80 54t96 19q50 0 95.5 -19t80.5 -54t54 -80t19 -96q0 -50 -19 -95.5t-54 -80.5t-80.5 -54t-95.5 -19zM274 450q-41 0 -77.5 -15.5t-63.5 -42.5t-42.5 -63.5t-15.5 -77.5t15.5 -77.5t42.5 -63.5
t63.5 -42.5t77.5 -15.5t77 15.5t63 42.5t43 63.5t16 77.5t-16 77.5t-43 63.5t-63 42.5t-77 15.5zM208 536l-27 41l158 107l28 -42z" />
    <glyph glyph-name="ocircumflex" unicode="&#xf4;" horiz-adv-x="548" 
d="M274 2q-51 0 -96 19t-80 54t-54 80.5t-19 95.5q0 51 19 96t54 80t80 54t96 19q50 0 95.5 -19t80.5 -54t54 -80t19 -96q0 -50 -19 -95.5t-54 -80.5t-80.5 -54t-95.5 -19zM274 450q-41 0 -77.5 -15.5t-63.5 -42.5t-42.5 -63.5t-15.5 -77.5t15.5 -77.5t42.5 -63.5
t63.5 -42.5t77.5 -15.5t77 15.5t63 42.5t43 63.5t16 77.5t-16 77.5t-43 63.5t-63 42.5t-77 15.5zM182 541l-33 38l109 94h33l108 -94l-32 -38l-93 80z" />
    <glyph glyph-name="otilde" unicode="&#xf5;" horiz-adv-x="548" 
d="M274 2q-51 0 -96 19t-80 54t-54 80.5t-19 95.5q0 51 19 96t54 80t80 54t96 19q50 0 95.5 -19t80.5 -54t54 -80t19 -96q0 -50 -19 -95.5t-54 -80.5t-80.5 -54t-95.5 -19zM274 450q-41 0 -77.5 -15.5t-63.5 -42.5t-42.5 -63.5t-15.5 -77.5t15.5 -77.5t42.5 -63.5
t63.5 -42.5t77.5 -15.5t77 15.5t63 42.5t43 63.5t16 77.5t-16 77.5t-43 63.5t-63 42.5t-77 15.5zM178 543l-49 8l4 24q6 43 38 67q16 12 35 15t37 -4q15 -5 26.5 -15.5t21.5 -19.5q8 -7 15 -13.5t15 -9.5q12 -4 25 4q15 11 18 34l4 25l50 -8l-4 -24q-8 -44 -38 -67
q-16 -12 -35.5 -15t-37.5 4q-15 6 -26.5 16t-20.5 19q-8 7 -15 13.5t-15 9.5q-14 5 -25 -4q-16 -11 -19 -34z" />
    <glyph glyph-name="odieresis" unicode="&#xf6;" horiz-adv-x="548" 
d="M274 2q-51 0 -96 19t-80 54t-54 80.5t-19 95.5q0 51 19 96t54 80t80 54t96 19q50 0 95.5 -19t80.5 -54t54 -80t19 -96q0 -50 -19 -95.5t-54 -80.5t-80.5 -54t-95.5 -19zM274 450q-41 0 -77.5 -15.5t-63.5 -42.5t-42.5 -63.5t-15.5 -77.5t15.5 -77.5t42.5 -63.5
t63.5 -42.5t77.5 -15.5t77 15.5t63 42.5t43 63.5t16 77.5t-16 77.5t-43 63.5t-63 42.5t-77 15.5zM250 583q0 -12 -9 -21t-22 -9q-12 0 -21 9t-9 21q0 13 9 22.5t21 9.5q13 0 22 -9.5t9 -22.5zM358 583q0 -12 -9 -21t-22 -9q-12 0 -21 9t-9 21q0 13 9 22.5t21 9.5
q13 0 22 -9.5t9 -22.5z" />
    <glyph glyph-name="oslash" unicode="&#xf8;" horiz-adv-x="548" 
d="M274 2q-44 0 -82 13l-46 -98l-45 21l46 98q-26 16 -49 39q-35 35 -54 80.5t-19 95.5q0 51 19 96t54 80t80 54t96 19q42 0 82 -14l46 98l45 -21l-46 -98q28 -17 49 -38q35 -35 54 -80t19 -96q0 -50 -19 -95.5t-54 -80.5t-80.5 -54t-95.5 -19zM274 450q-41 0 -77.5 -15.5
t-63.5 -42.5t-42.5 -63.5t-15.5 -77.5q0 -54 25.5 -98.5t67.5 -70.5l167 358q-29 10 -61 10zM274 52q41 0 77 15.5t63 42.5t43 63.5t16 77.5q0 54 -25.5 97.5t-67.5 70.5l-167 -358q28 -9 61 -9z" />
    <glyph glyph-name="ugrave" unicode="&#xf9;" horiz-adv-x="468" 
d="M33 229q-1 58 -1 121.5t1 121.5v25h51v-26q-2 -57 -2 -120.5t2 -120.5q1 -32 4 -60.5t16 -51.5q9 -15 23 -28t32 -21q33 -17 76 -15q39 1 77 17.5t65 45.5l4 4v376h50v-494h-50v51q-11 -8 -23.5 -15t-25.5 -13q-23 -11 -47.5 -16t-47.5 -6q-54 -1 -100 20q-24 11 -44 29
t-33 41q-17 30 -21.5 64.5t-5.5 70.5zM141 642l28 42l158 -107l-27 -41z" />
    <glyph glyph-name="uacute" unicode="&#xfa;" horiz-adv-x="468" 
d="M33 229q1 -36 5.5 -70.5t21.5 -64.5q13 -23 33 -41t44 -29q46 -21 100 -20q23 1 47.5 6t47.5 16q13 6 25.5 13t23.5 15v-51h50v494h-50v-376l-4 -4q-27 -29 -65 -45.5t-77 -17.5q-43 -2 -76 15q-18 8 -32 21t-23 28q-13 23 -16 51.5t-4 60.5q-2 57 -2 120.5t2 120.5v26
h-51v-25q-1 -58 -1 -121.5t1 -121.5zM168 536l-27 41l158 107l28 -42z" />
    <glyph glyph-name="ucircumflex" unicode="&#xfb;" horiz-adv-x="468" 
d="M33 229q1 -36 5.5 -70.5t21.5 -64.5q13 -23 33 -41t44 -29q46 -21 100 -20q23 1 47.5 6t47.5 16q13 6 25.5 13t23.5 15v-51h50v494h-50v-376l-4 -4q-27 -29 -65 -45.5t-77 -17.5q-43 -2 -76 15q-18 8 -32 21t-23 28q-13 23 -16 51.5t-4 60.5q-2 57 -2 120.5t2 120.5v26
h-51v-25q-1 -58 -1 -121.5t1 -121.5zM142 541l-33 38l109 94h33l108 -94l-32 -38l-93 80z" />
    <glyph glyph-name="udieresis" unicode="&#xfc;" horiz-adv-x="468" 
d="M33 229q1 -36 5.5 -70.5t21.5 -64.5q13 -23 33 -41t44 -29q46 -21 100 -20q23 1 47.5 6t47.5 16q13 6 25.5 13t23.5 15v-51h50v494h-50v-376l-4 -4q-27 -29 -65 -45.5t-77 -17.5q-43 -2 -76 15q-18 8 -32 21t-23 28q-13 23 -16 51.5t-4 60.5q-2 57 -2 120.5t2 120.5v26
h-51v-25q-1 -58 -1 -121.5t1 -121.5zM210 583q0 -12 -9 -21t-22 -9q-12 0 -21 9t-9 21q0 13 9 22.5t21 9.5q13 0 22 -9.5t9 -22.5zM318 583q0 -12 -9 -21t-22 -9q-12 0 -21 9t-9 21q0 13 9 22.5t21 9.5q13 0 22 -9.5t9 -22.5z" />
    <glyph glyph-name="yacute" unicode="&#xfd;" horiz-adv-x="480" 
d="M396 498v-356l-3 -2q-53 -31 -115.5 -38.5t-121.5 10.5q-11 4 -19 7t-15 8q-15 7 -25 21q-8 12 -13 30q-2 9 -2 18v20v282h-50v-282q0 -12 0.5 -24t2.5 -24q6 -26 22 -49q16 -22 39 -35q18 -11 45 -20q24 -8 49 -11t51 -3q82 0 155 35v-187q-20 -45 -61 -72
q-43 -28 -95 -26q-32 2 -62 15.5t-52 36.5t-34 53.5t-10 62.5v27h-50v-25q-2 -42 13.5 -82t44.5 -70q29 -31 67.5 -48.5t80.5 -19.5h7q31 0 61 9t56 26q57 36 82 99l2 4v610h-50zM174 536l-27 41l158 107l28 -42z" />
    <glyph glyph-name="thorn" unicode="&#xfe;" horiz-adv-x="540" 
d="M36 -153v772h50v-227q13 19 28 33q35 35 80 54t95 19t95 -19t80 -54t54 -80t19 -95t-19 -95t-54 -80t-80 -54t-95 -19t-95 19t-80 54q-15 14 -28 33v-261h-50zM289 448q-41 0 -77 -15.5t-63 -42.5t-42.5 -63t-15.5 -77t15.5 -77t42.5 -63t63 -42.5t77 -15.5t77 15.5
t63 42.5t42.5 63t15.5 77t-15.5 77t-42.5 63t-63 42.5t-77 15.5z" />
    <glyph glyph-name="ydieresis" unicode="&#xff;" horiz-adv-x="480" 
d="M396 498v-356l-3 -2q-53 -31 -115.5 -38.5t-121.5 10.5q-11 4 -19 7t-15 8q-15 7 -25 21q-8 12 -13 30q-2 9 -2 18v20v282h-50v-282q0 -12 0.5 -24t2.5 -24q6 -26 22 -49q16 -22 39 -35q18 -11 45 -20q24 -8 49 -11t51 -3q82 0 155 35v-187q-20 -45 -61 -72
q-43 -28 -95 -26q-32 2 -62 15.5t-52 36.5t-34 53.5t-10 62.5v27h-50v-25q-2 -42 13.5 -82t44.5 -70q29 -31 67.5 -48.5t80.5 -19.5h7q31 0 61 9t56 26q57 36 82 99l2 4v610h-50zM324 583q0 -12 -9 -21t-22 -9q-12 0 -21 9t-9 21q0 13 9 22.5t21 9.5q13 0 22 -9.5t9 -22.5z
M216 583q0 -12 -9 -21t-22 -9q-12 0 -21 9t-9 21q0 13 9 22.5t21 9.5q13 0 22 -9.5t9 -22.5z" />
    <glyph glyph-name="Amacron" unicode="&#x100;" horiz-adv-x="560" 
d="M490 1h57l-244 697h-47l-243 -697h57l97 282h226zM184 333l96 280l96 -280h-192zM139 750v50h282v-50h-282z" />
    <glyph glyph-name="amacron" unicode="&#x101;" horiz-adv-x="562" 
d="M475 497v-107q-13 19 -28 33q-35 35 -80 54t-95 19t-95 -19t-80 -54t-54 -80t-19 -95t19 -95t54 -80t80 -54t95 -19t95 19t80 54q15 14 28 33v-107h50v498h-50zM272 50q-41 0 -77 15.5t-63 42.5t-42.5 63t-15.5 77t15.5 77t42.5 63t63 42.5t77 15.5t77 -15.5t63 -42.5
t42.5 -63t15.5 -77t-15.5 -77t-42.5 -63t-63 -42.5t-77 -15.5zM140 543v50h282v-50h-282z" />
    <glyph glyph-name="Abreve" unicode="&#x102;" horiz-adv-x="560" 
d="M490 1h57l-244 697h-47l-243 -697h57l97 282h226zM184 333l96 280l96 -280h-192zM280 725q-23 0 -44.5 10t-36.5 27q-15 18 -22 40.5t-3 45.5l4 25h49l-3 -32q-5 -26 13 -46q8 -9 19.5 -14.5t23.5 -5.5q25 0 43 20q16 20 13 46l-4 32h49l4 -25q4 -23 -2.5 -45.5
t-21.5 -40.5q-15 -17 -36.5 -27t-44.5 -10z" />
    <glyph glyph-name="abreve" unicode="&#x103;" horiz-adv-x="562" 
d="M475 497v-107q-13 19 -28 33q-35 35 -80 54t-95 19t-95 -19t-80 -54t-54 -80t-19 -95t19 -95t54 -80t80 -54t95 -19t95 19t80 54q15 14 28 33v-107h50v498h-50zM272 50q-41 0 -77 15.5t-63 42.5t-42.5 63t-15.5 77t15.5 77t42.5 63t63 42.5t77 15.5t77 -15.5t63 -42.5
t42.5 -63t15.5 -77t-15.5 -77t-42.5 -63t-63 -42.5t-77 -15.5zM281 525q-23 0 -44.5 10t-36.5 27q-15 18 -22 40.5t-3 45.5l4 25h49l-3 -32q-5 -26 13 -46q8 -9 19.5 -14.5t23.5 -5.5q25 0 43 20q16 20 13 46l-4 32h49l4 -25q4 -23 -2.5 -45.5t-21.5 -40.5
q-15 -17 -36.5 -27t-44.5 -10z" />
    <glyph glyph-name="Aogonek" unicode="&#x104;" horiz-adv-x="572" 
d="M452 -147q-6 4 -8 7q-18 16 -26.5 40t-3.5 51q2 26 15 49.5t33 41.5l5 4l-81 237h-226l-97 -282h-57l243 697h47l244 -697h-50q-11 -11 -18.5 -26t-9.5 -30q-1 -14 3 -27.5t12 -21.5t21 -10.5t25 0.5l25 7l11 -49l-24 -6q-23 -5 -44.5 -1.5t-38.5 16.5zM369 333l-96 280
l-96 -280h192z" />
    <glyph glyph-name="aogonek" unicode="&#x105;" horiz-adv-x="562" 
d="M475 497h50v-498h-34q-21 -23 -26 -53q-1 -14 3 -27.5t12 -21.5t21 -10.5t25 0.5l25 7l11 -49l-24 -6q-23 -5 -44.5 -1.5t-38.5 16.5q-6 4 -8 7q-18 16 -26.5 40t-3.5 51q2 26 15 49.5t33 41.5l10 9v54q-13 -19 -28 -33q-35 -35 -80 -54t-95 -19t-95 19t-80 54t-54 80
t-19 95t19 95t54 80t80 54t95 19t95 -19t80 -54q15 -14 28 -33v107zM272 50q41 0 77 15.5t63 42.5t42.5 63t15.5 77t-15.5 77t-42.5 63t-63 42.5t-77 15.5t-77 -15.5t-63 -42.5t-42.5 -63t-15.5 -77t15.5 -77t42.5 -63t63 -42.5t77 -15.5z" />
    <glyph glyph-name="Cacute" unicode="&#x106;" horiz-adv-x="588" 
d="M342 -1q-78 0 -147 40q-42 24 -75 61.5t-56 82.5q-22 46 -31.5 97t-4.5 103q9 96 61 175q26 38 59.5 67.5t74.5 47.5q81 37 170 22q86 -17 154 -80l18 -18l-34 -36l-19 17q-27 27 -60 44t-68 23q-72 14 -141 -17q-33 -16 -62 -40.5t-51 -57.5q-44 -67 -52 -152
q-4 -45 4 -89.5t27 -83.5q40 -80 111 -122q35 -20 74 -28.5t77 -3.5q39 5 75.5 22.5t65.5 46.5l19 17l34 -36l-18 -17q-35 -34 -79 -55.5t-91 -27.5q-8 -1 -17 -1.5t-18 -0.5zM228 736l-27 41l158 107l28 -42z" />
    <glyph glyph-name="cacute" unicode="&#x107;" horiz-adv-x="481" 
d="M277 -1q-62 0 -117 29q-67 34 -104 102q-37 66 -29 142q6 69 48 125t107 82t134 15t122 -56l20 -16l-33 -38l-19 16q-44 36 -98 45q-55 9 -107 -12q-52 -22 -86 -66q-16 -22 -26 -47t-12 -53q-6 -61 23 -113q14 -26 35.5 -47t47.5 -35t56 -19.5t60 -1.5q61 6 107 46
l19 16l33 -38l-20 -16q-28 -24 -62.5 -39t-71.5 -19q-7 -1 -13.5 -1.5t-13.5 -0.5zM174 536l-27 41l158 107l28 -42z" />
    <glyph glyph-name="Ccircumflex" unicode="&#x108;" horiz-adv-x="588" 
d="M342 -1q-78 0 -147 40q-42 24 -75 61.5t-56 82.5q-22 46 -31.5 97t-4.5 103q9 96 61 175q26 38 59.5 67.5t74.5 47.5q81 37 170 22q86 -17 154 -80l18 -18l-34 -36l-19 17q-27 27 -60 44t-68 23q-72 14 -141 -17q-33 -16 -62 -40.5t-51 -57.5q-44 -67 -52 -152
q-4 -45 4 -89.5t27 -83.5q40 -80 111 -122q35 -20 74 -28.5t77 -3.5q39 5 75.5 22.5t65.5 46.5l19 17l34 -36l-18 -17q-35 -34 -79 -55.5t-91 -27.5q-8 -1 -17 -1.5t-18 -0.5zM202 741l-33 38l109 94h33l108 -94l-32 -38l-93 80z" />
    <glyph glyph-name="ccircumflex" unicode="&#x109;" horiz-adv-x="481" 
d="M277 -1q-62 0 -117 29q-67 34 -104 102q-37 66 -29 142q6 69 48 125t107 82t134 15t122 -56l20 -16l-33 -38l-19 16q-44 36 -98 45q-55 9 -107 -12q-52 -22 -86 -66q-16 -22 -26 -47t-12 -53q-6 -61 23 -113q14 -26 35.5 -47t47.5 -35t56 -19.5t60 -1.5q61 6 107 46
l19 16l33 -38l-20 -16q-28 -24 -62.5 -39t-71.5 -19q-7 -1 -13.5 -1.5t-13.5 -0.5zM148 541l-33 38l109 94h33l108 -94l-32 -38l-93 80z" />
    <glyph glyph-name="Cdotaccent" unicode="&#x10a;" horiz-adv-x="588" 
d="M342 -1q-78 0 -147 40q-42 24 -75 61.5t-56 82.5q-22 46 -31.5 97t-4.5 103q9 96 61 175q26 38 59.5 67.5t74.5 47.5q81 37 170 22q86 -17 154 -80l18 -18l-34 -36l-19 17q-27 27 -60 44t-68 23q-72 14 -141 -17q-33 -16 -62 -40.5t-51 -57.5q-44 -67 -52 -152
q-4 -45 4 -89.5t27 -83.5q40 -80 111 -122q35 -20 74 -28.5t77 -3.5q39 5 75.5 22.5t65.5 46.5l19 17l34 -36l-18 -17q-35 -34 -79 -55.5t-91 -27.5q-8 -1 -17 -1.5t-18 -0.5zM333 786q0 -15 -12 -26.5t-29 -11.5q-15 0 -26.5 11.5t-11.5 26.5q0 17 11.5 29.5t26.5 12.5
q17 0 29 -12.5t12 -29.5z" />
    <glyph glyph-name="cdotaccent" unicode="&#x10b;" horiz-adv-x="481" 
d="M277 -1q-62 0 -117 29q-67 34 -104 102q-37 66 -29 142q6 69 48 125t107 82t134 15t122 -56l20 -16l-33 -38l-19 16q-44 36 -98 45q-55 9 -107 -12q-52 -22 -86 -66q-16 -22 -26 -47t-12 -53q-6 -61 23 -113q14 -26 35.5 -47t47.5 -35t56 -19.5t60 -1.5q61 6 107 46
l19 16l33 -38l-20 -16q-28 -24 -62.5 -39t-71.5 -19q-7 -1 -13.5 -1.5t-13.5 -0.5zM280 586q0 -15 -12 -26.5t-29 -11.5q-15 0 -26.5 11.5t-11.5 26.5q0 17 11.5 29.5t26.5 12.5q17 0 29 -12.5t12 -29.5z" />
    <glyph glyph-name="Ccaron" unicode="&#x10c;" horiz-adv-x="588" 
d="M342 -1q-78 0 -147 40q-42 24 -75 61.5t-56 82.5q-22 46 -31.5 97t-4.5 103q9 96 61 175q26 38 59.5 67.5t74.5 47.5q81 37 170 22q86 -17 154 -80l18 -18l-34 -36l-19 17q-27 27 -60 44t-68 23q-72 14 -141 -17q-33 -16 -62 -40.5t-51 -57.5q-44 -67 -52 -152
q-4 -45 4 -89.5t27 -83.5q40 -80 111 -122q35 -20 74 -28.5t77 -3.5q39 5 75.5 22.5t65.5 46.5l19 17l34 -36l-18 -17q-35 -34 -79 -55.5t-91 -27.5q-8 -1 -17 -1.5t-18 -0.5zM294 793l93 80l32 -38l-108 -94h-33l-109 94l33 38z" />
    <glyph glyph-name="ccaron" unicode="&#x10d;" horiz-adv-x="481" 
d="M277 -1q-62 0 -117 29q-67 34 -104 102q-37 66 -29 142q6 69 48 125t107 82t134 15t122 -56l20 -16l-33 -38l-19 16q-44 36 -98 45q-55 9 -107 -12q-52 -22 -86 -66q-16 -22 -26 -47t-12 -53q-6 -61 23 -113q14 -26 35.5 -47t47.5 -35t56 -19.5t60 -1.5q61 6 107 46
l19 16l33 -38l-20 -16q-28 -24 -62.5 -39t-71.5 -19q-7 -1 -13.5 -1.5t-13.5 -0.5zM240 593l93 80l32 -38l-108 -94h-33l-109 94l33 38z" />
    <glyph glyph-name="Dcaron" unicode="&#x10e;" horiz-adv-x="559" 
d="M504 523q14 -39 22 -84t8 -90t-8 -90t-22 -84q-28 -73 -73 -115q-22 -20 -45 -31.5t-46 -17.5t-46 -7.5t-44 -1.5h-214v694h214q21 0 44 -1.5t46 -7.5t46 -17.5t45 -31.5q45 -42 73 -115zM457 192q13 35 20 75t7 82q0 41 -7 81t-20 75q-23 62 -60 96q-34 31 -71 38t-76 7
h-164v-594h164q19 0 38.5 1t38 5.5t36 13.5t34.5 25q37 34 60 95zM279 793l93 80l32 -38l-108 -94h-33l-109 94l33 38z" />
    <glyph glyph-name="dcaron" unicode="&#x10f;" horiz-adv-x="686" 
d="M623 380l-48 13l35 132q-18 4 -30.5 18t-12.5 33q0 22 15.5 37t36.5 15t36 -15t15 -37zM507 747v-748h-50v107q-13 -19 -28 -33q-35 -35 -80 -54t-95 -19t-95 19t-80 54t-54 80t-19 95t19 95t54 80t80 54t95 19t95 -19t80 -54q15 -14 28 -33v357h50zM254 50q41 0 77 15.5
t63 42.5t42.5 63t15.5 77t-15.5 77t-42.5 63t-63 42.5t-77 15.5t-77 -15.5t-63 -42.5t-42.5 -63t-15.5 -77t15.5 -77t42.5 -63t63 -42.5t77 -15.5z" />
    <glyph glyph-name="Dcroat" unicode="&#x110;" horiz-adv-x="636" 
d="M579 523q14 -39 22 -84t8 -90t-8 -90t-22 -84q-28 -73 -73 -115q-22 -20 -45 -31.5t-46 -17.5t-46 -7.5t-44 -1.5h-214v322h-91v50h91v322h214q21 0 44 -1.5t46 -7.5t46 -17.5t45 -31.5q45 -42 73 -115zM532 192q13 35 20 75t7 82q0 41 -7 81t-20 75q-23 62 -60 96
q-34 31 -71 38t-76 7h-164v-272h96v-50h-96v-272h164q19 0 38.5 1t38 5.5t36 13.5t34.5 25q37 34 60 95z" />
    <glyph glyph-name="dcroat" unicode="&#x111;" horiz-adv-x="590" 
d="M509 747v-123h56v-50h-56v-575h-50v107q-13 -19 -28 -33q-35 -35 -80 -54t-95 -19t-95 19t-80 54t-54 80t-19 95t19 95t54 80t80 54t95 19t95 -19t80 -54q15 -14 28 -33v184h-57v50h57v123h50zM256 50q41 0 77 15.5t63 42.5t42.5 63t15.5 77t-15.5 77t-42.5 63t-63 42.5
t-77 15.5t-77 -15.5t-63 -42.5t-42.5 -63t-15.5 -77t15.5 -77t42.5 -63t63 -42.5t77 -15.5z" />
    <glyph glyph-name="Emacron" unicode="&#x112;" horiz-adv-x="485" 
d="M482 647v50h-446v-696h446v50h-396v273h396v50h-396v273h396zM113 750v50h282v-50h-282z" />
    <glyph glyph-name="emacron" unicode="&#x113;" horiz-adv-x="501" 
d="M272 1q-49 0 -97 20q-25 11 -47.5 27t-39.5 36q-32 35 -48.5 81.5t-14.5 95.5q1 38 13 74.5t34 67.5q46 65 122 88q44 13 90.5 6.5t85.5 -29.5t66 -61.5t36 -83.5l6 -30h-399q-2 -8 -3 -16.5t-1 -16.5q-1 -40 12 -77t38 -66q29 -32 70 -50q20 -8 41.5 -12.5t42.5 -2.5
q42 1 83 22q39 21 65 56l15 20l40 -30l-15 -20q-32 -44 -82 -70t-104 -28q-3 -1 -9 -1zM255 449q-25 0 -47 -6q-29 -8 -53.5 -26t-42.5 -43q-5 -8 -9 -15.5t-8 -15.5h319q-11 26 -29 47t-41 35q-41 24 -89 24zM109 543v50h282v-50h-282z" />
    <glyph glyph-name="Ebreve" unicode="&#x114;" horiz-adv-x="485" 
d="M482 647v50h-446v-696h446v50h-396v273h396v50h-396v273h396zM243 725q-23 0 -44.5 10t-36.5 27q-15 18 -22 40.5t-3 45.5l4 25h49l-3 -32q-5 -26 13 -46q8 -9 19.5 -14.5t23.5 -5.5q25 0 43 20q16 20 13 46l-4 32h49l4 -25q4 -23 -2.5 -45.5t-21.5 -40.5
q-15 -17 -36.5 -27t-44.5 -10z" />
    <glyph glyph-name="ebreve" unicode="&#x115;" horiz-adv-x="501" 
d="M272 1q-49 0 -97 20q-25 11 -47.5 27t-39.5 36q-32 35 -48.5 81.5t-14.5 95.5q1 38 13 74.5t34 67.5q46 65 122 88q44 13 90.5 6.5t85.5 -29.5t66 -61.5t36 -83.5l6 -30h-399q-2 -8 -3 -16.5t-1 -16.5q-1 -40 12 -77t38 -66q29 -32 70 -50q20 -8 41.5 -12.5t42.5 -2.5
q42 1 83 22q39 21 65 56l15 20l40 -30l-15 -20q-32 -44 -82 -70t-104 -28q-3 -1 -9 -1zM255 449q-25 0 -47 -6q-29 -8 -53.5 -26t-42.5 -43q-5 -8 -9 -15.5t-8 -15.5h319q-11 26 -29 47t-41 35q-41 24 -89 24zM251 525q-23 0 -44.5 10t-36.5 27q-15 18 -22 40.5t-3 45.5
l4 25h49l-3 -32q-5 -26 13 -46q8 -9 19.5 -14.5t23.5 -5.5q25 0 43 20q16 20 13 46l-4 32h49l4 -25q4 -23 -2.5 -45.5t-21.5 -40.5q-15 -17 -36.5 -27t-44.5 -10z" />
    <glyph glyph-name="Edotaccent" unicode="&#x116;" horiz-adv-x="485" 
d="M482 647v50h-446v-696h446v50h-396v273h396v50h-396v273h396zM282 786q0 -15 -12 -26.5t-29 -11.5q-15 0 -26.5 11.5t-11.5 26.5q0 17 11.5 29.5t26.5 12.5q17 0 29 -12.5t12 -29.5z" />
    <glyph glyph-name="edotaccent" unicode="&#x117;" horiz-adv-x="501" 
d="M272 1q-49 0 -97 20q-25 11 -47.5 27t-39.5 36q-32 35 -48.5 81.5t-14.5 95.5q1 38 13 74.5t34 67.5q46 65 122 88q44 13 90.5 6.5t85.5 -29.5t66 -61.5t36 -83.5l6 -30h-399q-2 -8 -3 -16.5t-1 -16.5q-1 -40 12 -77t38 -66q29 -32 70 -50q20 -8 41.5 -12.5t42.5 -2.5
q42 1 83 22q39 21 65 56l15 20l40 -30l-15 -20q-32 -44 -82 -70t-104 -28q-3 -1 -9 -1zM255 449q-25 0 -47 -6q-29 -8 -53.5 -26t-42.5 -43q-5 -8 -9 -15.5t-8 -15.5h319q-11 26 -29 47t-41 35q-41 24 -89 24zM290 586q0 -15 -12 -26.5t-29 -11.5q-15 0 -26.5 11.5
t-11.5 26.5q0 17 11.5 29.5t26.5 12.5q17 0 29 -12.5t12 -29.5z" />
    <glyph glyph-name="Eogonek" unicode="&#x118;" horiz-adv-x="479" 
d="M363 -160q-6 4 -8 7q-18 16 -26.5 40t-3.5 51q3 34 23 63h-327v696h446v-50h-396v-273h396v-50h-396v-273h396v-50h-52l-9 -9q-14 -12 -22 -27.5t-11 -32.5q-1 -14 3 -27.5t12 -21.5t21 -10.5t25 0.5l25 7l11 -49l-24 -6q-23 -5 -44.5 -1.5t-38.5 16.5z" />
    <glyph glyph-name="eogonek" unicode="&#x119;" horiz-adv-x="501" 
d="M366 -110q-6 4 -8 7q-18 16 -26.5 40t-3.5 51q0 10 3 21q-22 -7 -50 -7q-3 -1 -9 -1q-49 0 -97 20q-25 11 -47.5 27t-39.5 36q-32 35 -48.5 81.5t-14.5 95.5q1 38 13 74.5t34 67.5q46 65 122 88q44 13 90.5 6.5t85.5 -29.5t66 -61.5t36 -83.5l6 -30h-399q-2 -8 -3 -16.5
t-1 -16.5q-1 -40 12 -77t38 -66q29 -32 70 -50q20 -8 41.5 -12.5t42.5 -2.5q42 1 83 22q39 21 65 56l15 20l40 -30l-15 -20q-11 -15 -24 -28t-28 -24l-6 -6q-14 -12 -22 -27.5t-11 -32.5q-1 -14 3 -27.5t12 -21.5t21 -10.5t25 0.5l25 7l11 -49l-24 -6q-23 -5 -44.5 -1.5
t-38.5 16.5zM255 449q-25 0 -47 -6q-29 -8 -53.5 -26t-42.5 -43q-5 -8 -9 -15.5t-8 -15.5h319q-11 26 -29 47t-41 35q-41 24 -89 24z" />
    <glyph glyph-name="Ecaron" unicode="&#x11a;" horiz-adv-x="485" 
d="M86 647v-273h396v-50h-396v-273h396v-50h-446v696h446v-50h-396zM242 793l93 80l32 -38l-108 -94h-33l-109 94l33 38z" />
    <glyph glyph-name="ecaron" unicode="&#x11b;" horiz-adv-x="501" 
d="M272 1q-49 0 -97 20q-25 11 -47.5 27t-39.5 36q-32 35 -48.5 81.5t-14.5 95.5q1 38 13 74.5t34 67.5q46 65 122 88q44 13 90.5 6.5t85.5 -29.5t66 -61.5t36 -83.5l6 -30h-399q-2 -8 -3 -16.5t-1 -16.5q-1 -40 12 -77t38 -66q29 -32 70 -50q20 -8 41.5 -12.5t42.5 -2.5
q42 1 83 22q39 21 65 56l15 20l40 -30l-15 -20q-32 -44 -82 -70t-104 -28q-3 -1 -9 -1zM255 449q-25 0 -47 -6q-29 -8 -53.5 -26t-42.5 -43q-5 -8 -9 -15.5t-8 -15.5h319q-11 26 -29 47t-41 35q-41 24 -89 24zM250 593l93 80l32 -38l-108 -94h-33l-109 94l33 38z" />
    <glyph glyph-name="Gcircumflex" unicode="&#x11c;" horiz-adv-x="590" 
d="M342 -2q-79 0 -148 40q-42 24 -75 61t-55 83q-23 45 -32 96.5t-5 102.5q9 97 61 175q26 39 60 68.5t74 47.5q82 38 170 21q88 -15 154 -80l18 -17l-34 -36l-18 17q-28 26 -61 43.5t-68 23.5q-72 14 -140 -17q-68 -32 -114 -98q-44 -69 -52 -152q-4 -45 4 -89.5t28 -83.5
q19 -39 47.5 -71t63.5 -52q71 -42 150 -31q37 5 71 20.5t63 40.5v155h-222v50h272v-226l-8 -8q-35 -34 -78.5 -55t-90.5 -27q-9 -1 -18 -1.5t-17 -0.5zM203 741l-33 38l109 94h33l108 -94l-32 -38l-93 80z" />
    <glyph glyph-name="gcircumflex" unicode="&#x11d;" horiz-adv-x="480" 
d="M396 501v-79q-29 36 -71 57t-92 21q-43 0 -81 -16.5t-66 -44.5t-44.5 -66t-16.5 -81t16.5 -81t44.5 -66.5t66 -45t81 -16.5q50 0 92 21.5t71 57.5v-261q-19 -45 -62 -73q-21 -14 -45.5 -21t-50.5 -6q-33 2 -63 15.5t-52 36.5q-23 24 -34.5 55t-10.5 64v26h-51v-25
q-1 -43 14.5 -83t44.5 -71t68.5 -48.5t81.5 -19.5h7q32 0 62 9t56 26q28 18 49 44t34 56l2 5v610h-50zM233 133q-33 0 -61.5 12.5t-50 34.5t-34 50.5t-12.5 61.5t12.5 61.5t34 50t50 34t61.5 12.5t61.5 -12.5t50.5 -34t34.5 -50t12.5 -61.5t-12.5 -61.5t-34.5 -50.5
t-50.5 -34.5t-61.5 -12.5zM148 541l-33 38l109 94h33l108 -94l-32 -38l-93 80z" />
    <glyph glyph-name="Gbreve" unicode="&#x11e;" horiz-adv-x="590" 
d="M342 -2q-79 0 -148 40q-42 24 -75 61t-55 83q-23 45 -32 96.5t-5 102.5q9 97 61 175q26 39 60 68.5t74 47.5q82 38 170 21q88 -15 154 -80l18 -17l-34 -36l-18 17q-28 26 -61 43.5t-68 23.5q-72 14 -140 -17q-68 -32 -114 -98q-44 -69 -52 -152q-4 -45 4 -89.5t28 -83.5
q19 -39 47.5 -71t63.5 -52q71 -42 150 -31q37 5 71 20.5t63 40.5v155h-222v50h272v-226l-8 -8q-35 -34 -78.5 -55t-90.5 -27q-9 -1 -18 -1.5t-17 -0.5zM295 725q-23 0 -44.5 10t-36.5 27q-15 18 -22 40.5t-3 45.5l4 25h49l-3 -32q-5 -26 13 -46q8 -9 19.5 -14.5t23.5 -5.5
q25 0 43 20q16 20 13 46l-4 32h49l4 -25q4 -23 -2.5 -45.5t-21.5 -40.5q-15 -17 -36.5 -27t-44.5 -10z" />
    <glyph glyph-name="gbreve" unicode="&#x11f;" horiz-adv-x="480" 
d="M396 501v-79q-29 36 -71 57t-92 21q-43 0 -81 -16.5t-66 -44.5t-44.5 -66t-16.5 -81t16.5 -81t44.5 -66.5t66 -45t81 -16.5q50 0 92 21.5t71 57.5v-261q-19 -45 -62 -73q-21 -14 -45.5 -21t-50.5 -6q-33 2 -63 15.5t-52 36.5q-23 24 -34.5 55t-10.5 64v26h-51v-25
q-1 -43 14.5 -83t44.5 -71t68.5 -48.5t81.5 -19.5h7q32 0 62 9t56 26q28 18 49 44t34 56l2 5v610h-50zM233 133q-33 0 -61.5 12.5t-50 34.5t-34 50.5t-12.5 61.5t12.5 61.5t34 50t50 34t61.5 12.5t61.5 -12.5t50.5 -34t34.5 -50t12.5 -61.5t-12.5 -61.5t-34.5 -50.5
t-50.5 -34.5t-61.5 -12.5zM240 525q-23 0 -44.5 10t-36.5 27q-15 18 -22 40.5t-3 45.5l4 25h49l-3 -32q-5 -26 13 -46q8 -9 19.5 -14.5t23.5 -5.5q25 0 43 20q16 20 13 46l-4 32h49l4 -25q4 -23 -2.5 -45.5t-21.5 -40.5q-15 -17 -36.5 -27t-44.5 -10z" />
    <glyph glyph-name="Gdotaccent" unicode="&#x120;" horiz-adv-x="590" 
d="M342 -2q-79 0 -148 40q-42 24 -75 61t-55 83q-23 45 -32 96.5t-5 102.5q9 97 61 175q26 39 60 68.5t74 47.5q82 38 170 21q88 -15 154 -80l18 -17l-34 -36l-18 17q-28 26 -61 43.5t-68 23.5q-72 14 -140 -17q-68 -32 -114 -98q-44 -69 -52 -152q-4 -45 4 -89.5t28 -83.5
q19 -39 47.5 -71t63.5 -52q71 -42 150 -31q37 5 71 20.5t63 40.5v155h-222v50h272v-226l-8 -8q-35 -34 -78.5 -55t-90.5 -27q-9 -1 -18 -1.5t-17 -0.5zM334 786q0 -15 -12 -26.5t-29 -11.5q-15 0 -26.5 11.5t-11.5 26.5q0 17 11.5 29.5t26.5 12.5q17 0 29 -12.5t12 -29.5z
" />
    <glyph glyph-name="gdotaccent" unicode="&#x121;" horiz-adv-x="480" 
d="M396 501v-79q-29 36 -71 57t-92 21q-43 0 -81 -16.5t-66 -44.5t-44.5 -66t-16.5 -81t16.5 -81t44.5 -66.5t66 -45t81 -16.5q50 0 92 21.5t71 57.5v-261q-19 -45 -62 -73q-21 -14 -45.5 -21t-50.5 -6q-33 2 -63 15.5t-52 36.5q-23 24 -34.5 55t-10.5 64v26h-51v-25
q-1 -43 14.5 -83t44.5 -71t68.5 -48.5t81.5 -19.5h7q32 0 62 9t56 26q28 18 49 44t34 56l2 5v610h-50zM233 133q-33 0 -61.5 12.5t-50 34.5t-34 50.5t-12.5 61.5t12.5 61.5t34 50t50 34t61.5 12.5t61.5 -12.5t50.5 -34t34.5 -50t12.5 -61.5t-12.5 -61.5t-34.5 -50.5
t-50.5 -34.5t-61.5 -12.5zM279 586q0 -15 -12 -26.5t-29 -11.5q-15 0 -26.5 11.5t-11.5 26.5q0 17 11.5 29.5t26.5 12.5q17 0 29 -12.5t12 -29.5z" />
    <glyph glyph-name="Gcommaaccent" unicode="&#x122;" horiz-adv-x="590" 
d="M351 -88q0 22 -15 37t-36 15t-36.5 -15t-15.5 -37q0 -19 12.5 -33t30.5 -18l-35 -132l48 -13zM342 -2q-79 0 -148 40q-42 24 -75 61t-55 83q-23 45 -32 96.5t-5 102.5q9 97 61 175q26 39 60 68.5t74 47.5q82 38 170 21q88 -15 154 -80l18 -17l-34 -36l-18 17
q-28 26 -61 43.5t-68 23.5q-72 14 -140 -17q-68 -32 -114 -98q-44 -69 -52 -152q-4 -45 4 -89.5t28 -83.5q19 -39 47.5 -71t63.5 -52q71 -42 150 -31q37 5 71 20.5t63 40.5v155h-222v50h272v-226l-8 -8q-35 -34 -78.5 -55t-90.5 -27q-9 -1 -18 -1.5t-17 -0.5z" />
    <glyph glyph-name="gcommaaccent" unicode="&#x123;" horiz-adv-x="480" 
d="M446 501v-610l-2 -5q-13 -30 -34 -56t-49 -44q-26 -17 -56 -26t-62 -9h-7q-42 2 -81.5 19.5t-68.5 48.5t-44.5 71t-14.5 83v25h51v-26q-1 -33 10.5 -64t34.5 -55q22 -23 52 -36.5t63 -15.5q26 -1 50.5 6t45.5 21q43 28 62 73v261q-29 -36 -71 -57.5t-92 -21.5
q-43 0 -81 16.5t-66 45t-44.5 66.5t-16.5 81t16.5 81t44.5 66t66 44.5t81 16.5q50 0 92 -21t71 -57v79h50zM233 133q33 0 61.5 12.5t50.5 34.5t34.5 50.5t12.5 61.5t-12.5 61.5t-34.5 50t-50.5 34t-61.5 12.5t-61.5 -12.5t-50 -34t-34 -50t-12.5 -61.5t12.5 -61.5t34 -50.5
t50 -34.5t61.5 -12.5zM235 828l48 -13l-35 -132q18 -4 30.5 -18t12.5 -33q0 -22 -15.5 -37t-36.5 -15t-36 15t-15 37z" />
    <glyph glyph-name="Hcircumflex" unicode="&#x124;" horiz-adv-x="531" 
d="M444 697v-324h-358v324h-50v-698h50v324h358v-324h50v698h-50zM173 741l-33 38l109 94h33l108 -94l-32 -38l-93 80z" />
    <glyph glyph-name="hcircumflex" unicode="&#x125;" horiz-adv-x="444" 
d="M434 257q-1 36 -5.5 70.5t-21.5 64.5q-13 23 -33 41t-44 29q-46 21 -100 20q-23 -1 -47.5 -6t-47.5 -16q-13 -6 -25.5 -13t-23.5 -15v317h-50v-748h50v364l4 4q27 29 65 45.5t77 17.5q43 2 76 -15q18 -8 32 -21t23 -28q13 -23 16 -51.5t4 -60.5q3 -115 0 -229v-26h51v25
q1 115 0 231zM130 758l-33 38l109 94h33l108 -94l-32 -38l-93 80z" />
    <glyph glyph-name="Hbar" unicode="&#x126;" horiz-adv-x="531" 
d="M494 697v-87h31v-50h-31v-561h-50v324h-358v-324h-50v561h-33v50h33v87h50v-87h358v87h50zM444 373v187h-358v-187h358z" />
    <glyph glyph-name="hbar" unicode="&#x127;" horiz-adv-x="444" 
d="M434 257q1 -116 0 -231v-25h-51v26q3 114 0 229q-1 32 -4 60.5t-16 51.5q-9 15 -23 28t-32 21q-33 17 -76 15q-39 -1 -77 -17.5t-65 -45.5l-4 -4v-364h-50v572h-60v50h60v126h50v-126h61v-50h-61v-141q11 8 23.5 15t25.5 13q23 11 47.5 16t47.5 6q54 1 100 -20
q24 -11 44 -29t33 -41q17 -30 21.5 -64.5t5.5 -70.5z" />
    <glyph glyph-name="Itilde" unicode="&#x128;" horiz-adv-x="493" 
d="M479 646v50h-465v-50h208v-598h-208v-50h465v50h-207v598h207zM151 743l-49 8l4 24q6 43 38 67q16 12 35 15t37 -4q15 -5 26.5 -15.5t21.5 -19.5q8 -7 15 -13.5t15 -9.5q12 -4 25 4q15 11 18 34l4 25l50 -8l-4 -24q-8 -44 -38 -67q-16 -12 -35.5 -15t-37.5 4
q-15 6 -26.5 16t-20.5 19q-8 7 -15 13.5t-15 9.5q-14 5 -25 -4q-16 -11 -19 -34z" />
    <glyph glyph-name="itilde" unicode="&#x129;" horiz-adv-x="319" 
d="M184 2h-50v494h50v-494zM64 543l-49 8l4 24q6 43 38 67q16 12 35 15t37 -4q15 -5 26.5 -15.5t21.5 -19.5q8 -7 15 -13.5t15 -9.5q12 -4 25 4q15 11 18 34l4 25l50 -8l-4 -24q-8 -44 -38 -67q-16 -12 -35.5 -15t-37.5 4q-15 6 -26.5 16t-20.5 19q-8 7 -15 13.5t-15 9.5
q-14 5 -25 -4q-16 -11 -19 -34z" />
    <glyph glyph-name="uni012A" unicode="&#x12a;" horiz-adv-x="493" 
d="M479 646v50h-465v-50h208v-598h-208v-50h465v50h-207v598h207zM106 750v50h282v-50h-282z" />
    <glyph glyph-name="imacron" unicode="&#x12b;" horiz-adv-x="288" 
d="M169 2h-50v494h50v-494zM3 543v50h282v-50h-282z" />
    <glyph glyph-name="Ibreve" unicode="&#x12c;" horiz-adv-x="493" 
d="M479 646v50h-465v-50h208v-598h-208v-50h465v50h-207v598h207zM247 725q-23 0 -44.5 10t-36.5 27q-15 18 -22 40.5t-3 45.5l4 25h49l-3 -32q-5 -26 13 -46q8 -9 19.5 -14.5t23.5 -5.5q25 0 43 20q16 20 13 46l-4 32h49l4 -25q4 -23 -2.5 -45.5t-21.5 -40.5
q-15 -17 -36.5 -27t-44.5 -10z" />
    <glyph glyph-name="uni012D" unicode="&#x12d;" horiz-adv-x="256" 
d="M153 2h-50v494h50v-494zM129 525q-23 0 -44.5 10t-36.5 27q-15 18 -22 40.5t-3 45.5l4 25h49l-3 -32q-5 -26 13 -46q8 -9 19.5 -14.5t23.5 -5.5q25 0 43 20q16 20 13 46l-4 32h49l4 -25q4 -23 -2.5 -45.5t-21.5 -40.5q-15 -17 -36.5 -27t-44.5 -10z" />
    <glyph glyph-name="Iogonek" unicode="&#x12e;" horiz-adv-x="493" 
d="M479 646h-207v-598h207v-50h-51l-13 -13q-14 -12 -22 -27.5t-11 -32.5q-1 -14 3 -27.5t12 -21.5t21 -10.5t25 0.5l25 7l11 -49l-24 -6q-23 -5 -44.5 -1.5t-38.5 16.5q-6 4 -8 7q-18 16 -26.5 40t-3.5 51q3 36 26 67h-346v50h208v598h-208v50h465v-50z" />
    <glyph glyph-name="iogonek" unicode="&#x12f;" horiz-adv-x="149" 
d="M28 -169q-6 4 -8 7q-18 16 -26.5 40t-3.5 51q2 26 15 49.5t33 41.5l12 10v466h50v-494h-10l-19 -19q-14 -12 -22 -27.5t-11 -32.5q-1 -14 3 -27.5t12 -21.5t21 -10.5t25 0.5l25 7l11 -49l-24 -6q-23 -5 -44.5 -1.5t-38.5 16.5zM133 641q0 -24 -17 -41t-41 -17t-41 17
t-17 41q0 25 17 42t41 17t41 -17t17 -42z" />
    <glyph glyph-name="Idotaccent" unicode="&#x130;" horiz-adv-x="493" 
d="M479 646v50h-465v-50h208v-598h-208v-50h465v50h-207v598h207zM286 786q0 -15 -12 -26.5t-29 -11.5q-15 0 -26.5 11.5t-11.5 26.5q0 17 11.5 29.5t26.5 12.5q17 0 29 -12.5t12 -29.5z" />
    <glyph glyph-name="dotlessi" unicode="&#x131;" horiz-adv-x="127" 
d="M86 2h-50v494h50v-494z" />
    <glyph glyph-name="IJ" unicode="&#x132;" horiz-adv-x="921" 
d="M479 646v50h-465v-50h208v-598h-208v-50h465v50h-207v598h207zM695 -1q-42 0 -81 18t-66 50q-29 34 -39.5 78.5t-0.5 87.5l6 25h49l-6 -36q-8 -32 0.5 -64.5t29.5 -58.5q21 -25 52 -38.5t64 -11.5q27 2 53 14.5t44 32.5q19 21 28.5 48t7.5 54v499h50v-497
q2 -38 -10.5 -73.5t-38.5 -63.5q-25 -29 -59.5 -45t-72.5 -18q-3 -1 -10 -1z" />
    <glyph glyph-name="ij" unicode="&#x133;" horiz-adv-x="629" 
d="M368 -249h-8q-42 2 -81 19.5t-68 48.5t-44.5 71t-14.5 82v25h51v-26q-1 -32 10 -63t34 -55q23 -23 53 -36.5t62 -15.5q26 -1 50.5 6t45.5 21q20 13 36 31.5t26 40.5v599h50v-609l-2 -4q-26 -63 -83 -100q-53 -35 -117 -35zM100 2h-50v494h50v-494zM605 641q0 -24 -17 -41
t-41 -17t-41 17t-17 41q0 25 17 42t41 17t41 -17t17 -42zM133 641q0 -24 -17 -41t-41 -17t-41 17t-17 41q0 25 17 42t41 17t41 -17t17 -42z" />
    <glyph glyph-name="Jcircumflex" unicode="&#x134;" horiz-adv-x="428" 
d="M202 -1q-42 0 -81 18t-66 50q-29 34 -39.5 78.5t-0.5 87.5l6 25h49l-6 -36q-8 -32 0.5 -64.5t29.5 -58.5q21 -25 52 -38.5t64 -11.5q27 2 53 14.5t44 32.5q19 21 28.5 48t7.5 54v499h50v-497q2 -38 -10.5 -73.5t-38.5 -63.5q-25 -29 -59.5 -45t-72.5 -18q-3 -1 -10 -1z
M181 741l-33 38l109 94h33l108 -94l-32 -38l-93 80z" />
    <glyph glyph-name="jcircumflex" unicode="&#x135;" horiz-adv-x="545" 
d="M223 -249h-8q-42 2 -81 19.5t-68 48.5t-44.5 71t-14.5 82v25h51v-26q-1 -32 10 -63t34 -55q23 -23 53 -36.5t62 -15.5q26 -1 50.5 6t45.5 21q20 13 36 31.5t26 40.5v599h50v-609l-2 -4q-26 -63 -83 -100q-53 -35 -117 -35zM308 541l-33 38l109 94h33l108 -94l-32 -38
l-93 80z" />
    <glyph glyph-name="Kcommaaccent" unicode="&#x136;" horiz-adv-x="487" 
d="M404 1l-318 305v-305h-50v697h50v-297l305 297h67l-349 -344l360 -353h-65zM235 -284l-48 13l35 132q-18 4 -30.5 18t-12.5 33q0 22 15.5 37t36.5 15t36 -15t15 -37z" />
    <glyph glyph-name="kcommaaccent" unicode="&#x137;" horiz-adv-x="477" 
d="M405 2l-318 306v-306h-50v747h50v-352l310 242h76l-361 -285l364 -352h-71zM235 -284l-48 13l35 132q-18 4 -30.5 18t-12.5 33q0 22 15.5 37t36.5 15t36 -15t15 -37z" />
    <glyph glyph-name="kgreenlandic" unicode="&#x138;" horiz-adv-x="356" 
d="M273 -1l-187 206v-206h-50v500h50v-207l183 207h56l-212 -250l221 -250h-61z" />
    <glyph glyph-name="Lacute" unicode="&#x139;" horiz-adv-x="483" 
d="M483 1h-447v698h50v-648h397v-50zM175 736l-27 41l158 107l28 -42z" />
    <glyph glyph-name="lacute" unicode="&#x13a;" horiz-adv-x="127" 
d="M86 2h-50v748h50v-748zM57 776l-27 41l158 107l28 -42z" />
    <glyph glyph-name="Lcommaaccent" unicode="&#x13b;" horiz-adv-x="483" 
d="M483 1h-447v698h50v-648h397v-50zM282 -88q0 22 -15 37t-36 15t-36.5 -15t-15.5 -37q0 -19 12.5 -33t30.5 -18l-35 -132l48 -13z" />
    <glyph glyph-name="lcommaaccent" unicode="&#x13c;" horiz-adv-x="136" 
d="M121 -88q0 22 -15 37t-36 15t-36.5 -15t-15.5 -37q0 -19 12.5 -33t30.5 -18l-35 -132l48 -13zM92 2h-50v748h50v-748z" />
    <glyph glyph-name="Lcaron" unicode="&#x13d;" horiz-adv-x="483" 
d="M483 1h-447v698h50v-648h397v-50zM246 580l-48 13l35 132q-18 4 -30.5 18t-12.5 33q0 22 15.5 37t36.5 15t36 -15t15 -37z" />
    <glyph glyph-name="lcaron" unicode="&#x13e;" horiz-adv-x="269" 
d="M86 2h-50v748h50v-748zM253 576q0 22 -15 37t-36 15t-36.5 -15t-15.5 -37q0 -19 12.5 -33t30.5 -18l-35 -132l48 -13z" />
    <glyph glyph-name="Ldot" unicode="&#x13f;" horiz-adv-x="483" 
d="M483 1h-447v698h50v-648h397v-50zM434 296q0 -12 -9 -21t-22 -9q-12 0 -21 9t-9 21q0 13 9 22.5t21 9.5q13 0 22 -9.5t9 -22.5z" />
    <glyph glyph-name="ldot" unicode="&#x140;" horiz-adv-x="239" 
d="M86 2h-50v748h50v-748zM181 296q0 -12 -9 -21t-22 -9q-12 0 -21 9t-9 21q0 13 9 22.5t21 9.5q13 0 22 -9.5t9 -22.5z" />
    <glyph glyph-name="Lslash" unicode="&#x141;" horiz-adv-x="565" 
d="M565 1h-447v289l-79 -37l-21 45l100 47v354h50v-331l91 43l21 -45l-112 -53v-262h397v-50z" />
    <glyph glyph-name="lslash" unicode="&#x142;" horiz-adv-x="270" 
d="M155 2h-50v288l-79 -37l-21 45l100 47v405h50v-382l91 43l21 -45l-112 -53v-311z" />
    <glyph glyph-name="Nacute" unicode="&#x143;" horiz-adv-x="641" 
d="M86 0h-50v699h45l474 -603v603h50v-699h-45l-474 602v-602zM254 736l-27 41l158 107l28 -42z" />
    <glyph glyph-name="nacute" unicode="&#x144;" horiz-adv-x="465" 
d="M434 257q-1 36 -5.5 70.5t-21.5 64.5q-13 23 -33 41t-44 29q-46 21 -100 20q-23 -1 -47.5 -6t-47.5 -16q-13 -6 -25.5 -13t-23.5 -15v67h-50v-498h50v364l4 4q27 29 65 45.5t77 17.5q43 2 76 -15q18 -8 32 -21t23 -28q13 -23 16 -51.5t4 -60.5q3 -115 0 -229v-26h51v25
q1 115 0 231zM166 536l-27 41l158 107l28 -42z" />
    <glyph glyph-name="Ncommaaccent" unicode="&#x145;" horiz-adv-x="641" 
d="M86 0h-50v699h45l474 -603v603h50v-699h-45l-474 602v-602zM363 -88q0 22 -15 37t-36 15t-36.5 -15t-15.5 -37q0 -19 12.5 -33t30.5 -18l-35 -132l48 -13z" />
    <glyph glyph-name="ncommaaccent" unicode="&#x146;" horiz-adv-x="465" 
d="M235 -284l-48 13l35 132q-18 4 -30.5 18t-12.5 33q0 22 15.5 37t36.5 15t36 -15t15 -37zM434 257q1 -116 0 -231v-25h-51v26q3 114 0 229q-1 32 -4 60.5t-16 51.5q-9 15 -23 28t-32 21q-33 17 -76 15q-39 -1 -77 -17.5t-65 -45.5l-4 -4v-364h-50v498h50v-67q11 8 23.5 15
t25.5 13q23 11 47.5 16t47.5 6q54 1 100 -20q24 -11 44 -29t33 -41q17 -30 21.5 -64.5t5.5 -70.5z" />
    <glyph glyph-name="Ncaron" unicode="&#x147;" horiz-adv-x="641" 
d="M86 0h-50v699h45l474 -603v603h50v-699h-45l-474 602v-602zM320 793l93 80l32 -38l-108 -94h-33l-109 94l33 38z" />
    <glyph glyph-name="ncaron" unicode="&#x148;" horiz-adv-x="465" 
d="M434 257q1 -116 0 -231v-25h-51v26q3 114 0 229q-1 32 -4 60.5t-16 51.5q-9 15 -23 28t-32 21q-33 17 -76 15q-39 -1 -77 -17.5t-65 -45.5l-4 -4v-364h-50v498h50v-67q11 8 23.5 15t25.5 13q23 11 47.5 16t47.5 6q54 1 100 -20q24 -11 44 -29t33 -41q17 -30 21.5 -64.5
t5.5 -70.5zM232 593l93 80l32 -38l-108 -94h-33l-109 94l33 38z" />
    <glyph glyph-name="napostrophe" unicode="&#x149;" horiz-adv-x="547" 
d="M79 436l-48 13l35 132q-18 4 -30.5 18t-12.5 33q0 22 15.5 37t36.5 15t36 -15t15 -37zM533 257q1 -116 0 -231v-25h-51v26q3 114 0 229q-1 32 -4 60.5t-16 51.5q-9 15 -23 28t-32 21q-33 17 -76 15q-39 -1 -77 -17.5t-65 -45.5l-4 -4v-364h-50v498h50v-67q11 8 23.5 15
t25.5 13q23 11 47.5 16t47.5 6q54 1 100 -20q24 -11 44 -29t33 -41q17 -30 21.5 -64.5t5.5 -70.5z" />
    <glyph glyph-name="Eng" unicode="&#x14a;" horiz-adv-x="629" 
d="M402 -249q-42 0 -81 18t-66 50q-29 34 -39.5 78.5t-0.5 87.5l6 25h49q-11 -59 -4 -96t28 -63q21 -25 52 -38.5t64 -11.5q27 2 53 14.5t44 32.5q19 21 28.5 48t7.5 54v57l-468 595v-602h-50v699h45l474 -603v603h50l-1 -747q2 -38 -10.5 -73.5t-38.5 -63.5
q-25 -29 -59.5 -45t-72.5 -18q-3 -1 -10 -1z" />
    <glyph glyph-name="eng" unicode="&#x14b;" horiz-adv-x="458" 
d="M426 253q1 -116 0 -231v-166q-9 -24 -27 -45t-41 -35q-44 -28 -95 -28h-5q-34 2 -65.5 15.5t-54.5 38.5t-36 57t-12 66l1 25h50v-26q-1 -24 7.5 -47t25.5 -41q17 -17 39.5 -27t45.5 -11q40 -2 71 20q31 20 45 52v204q0 45 0.5 89t-0.5 89q-1 32 -4 60.5t-16 51.5
q-9 15 -23 28t-32 21q-33 17 -76 15q-39 -1 -77 -17.5t-65 -45.5l-4 -4v-364h-50v498h50v-67q11 8 23.5 15t25.5 13q23 11 47.5 16t47.5 6q54 1 100 -20q24 -11 44 -29t33 -41q17 -30 21.5 -64.5t5.5 -70.5z" />
    <glyph glyph-name="Omacron" unicode="&#x14c;" horiz-adv-x="613" 
d="M307 -1q-58 0 -112 28q-50 26 -90 76q-39 50 -59.5 113t-20.5 132t20.5 132t59.5 113q40 50 90 76q54 28 112 28q57 0 111 -28q50 -26 90 -76q39 -50 59.5 -113t20.5 -132t-20.5 -132t-59.5 -113q-40 -50 -90 -76q-54 -28 -111 -28zM307 647q-48 0 -90.5 -23.5t-74 -64
t-49.5 -95t-18 -116.5t18 -116.5t49.5 -95t74 -64t90.5 -23.5t90 23.5t73.5 64t49.5 95t18 116.5t-18 116.5t-49.5 95t-73.5 64t-90 23.5zM154 750v50h282v-50h-282z" />
    <glyph glyph-name="omacron" unicode="&#x14d;" horiz-adv-x="548" 
d="M274 2q-51 0 -96 19t-80 54t-54 80.5t-19 95.5q0 51 19 96t54 80t80 54t96 19q50 0 95.5 -19t80.5 -54t54 -80t19 -96q0 -50 -19 -95.5t-54 -80.5t-80.5 -54t-95.5 -19zM274 450q-41 0 -77.5 -15.5t-63.5 -42.5t-42.5 -63.5t-15.5 -77.5t15.5 -77.5t42.5 -63.5
t63.5 -42.5t77.5 -15.5t77 15.5t63 42.5t43 63.5t16 77.5t-16 77.5t-43 63.5t-63 42.5t-77 15.5zM129 543v50h282v-50h-282z" />
    <glyph glyph-name="Obreve" unicode="&#x14e;" horiz-adv-x="613" 
d="M307 -1q-58 0 -112 28q-50 26 -90 76q-39 50 -59.5 113t-20.5 132t20.5 132t59.5 113q40 50 90 76q54 28 112 28q57 0 111 -28q50 -26 90 -76q39 -50 59.5 -113t20.5 -132t-20.5 -132t-59.5 -113q-40 -50 -90 -76q-54 -28 -111 -28zM307 647q-48 0 -90.5 -23.5t-74 -64
t-49.5 -95t-18 -116.5t18 -116.5t49.5 -95t74 -64t90.5 -23.5t90 23.5t73.5 64t49.5 95t18 116.5t-18 116.5t-49.5 95t-73.5 64t-90 23.5zM307 725q-23 0 -44.5 10t-36.5 27q-15 18 -22 40.5t-3 45.5l4 25h49l-3 -32q-5 -26 13 -46q8 -9 19.5 -14.5t23.5 -5.5q25 0 43 20
q16 20 13 46l-4 32h49l4 -25q4 -23 -2.5 -45.5t-21.5 -40.5q-15 -17 -36.5 -27t-44.5 -10z" />
    <glyph glyph-name="obreve" unicode="&#x14f;" horiz-adv-x="548" 
d="M274 2q-51 0 -96 19t-80 54t-54 80.5t-19 95.5q0 51 19 96t54 80t80 54t96 19q50 0 95.5 -19t80.5 -54t54 -80t19 -96q0 -50 -19 -95.5t-54 -80.5t-80.5 -54t-95.5 -19zM274 450q-41 0 -77.5 -15.5t-63.5 -42.5t-42.5 -63.5t-15.5 -77.5t15.5 -77.5t42.5 -63.5
t63.5 -42.5t77.5 -15.5t77 15.5t63 42.5t43 63.5t16 77.5t-16 77.5t-43 63.5t-63 42.5t-77 15.5zM274 525q-23 0 -44.5 10t-36.5 27q-15 18 -22 40.5t-3 45.5l4 25h49l-3 -32q-5 -26 13 -46q8 -9 19.5 -14.5t23.5 -5.5q25 0 43 20q16 20 13 46l-4 32h49l4 -25
q4 -23 -2.5 -45.5t-21.5 -40.5q-15 -17 -36.5 -27t-44.5 -10z" />
    <glyph glyph-name="Ohungarumlaut" unicode="&#x150;" horiz-adv-x="613" 
d="M307 -1q-58 0 -112 28q-50 26 -90 76q-39 50 -59.5 113t-20.5 132t20.5 132t59.5 113q40 50 90 76q54 28 112 28q57 0 111 -28q50 -26 90 -76q39 -50 59.5 -113t20.5 -132t-20.5 -132t-59.5 -113q-40 -50 -90 -76q-54 -28 -111 -28zM307 647q-48 0 -90.5 -23.5t-74 -64
t-49.5 -95t-18 -116.5t18 -116.5t49.5 -95t74 -64t90.5 -23.5t90 23.5t73.5 64t49.5 95t18 116.5t-18 116.5t-49.5 95t-73.5 64t-90 23.5zM204 713l-37 33l123 145l38 -33zM322 713l-37 33l123 146l38 -34z" />
    <glyph glyph-name="ohungarumlaut" unicode="&#x151;" horiz-adv-x="548" 
d="M274 2q-51 0 -96 19t-80 54t-54 80.5t-19 95.5q0 51 19 96t54 80t80 54t96 19q50 0 95.5 -19t80.5 -54t54 -80t19 -96q0 -50 -19 -95.5t-54 -80.5t-80.5 -54t-95.5 -19zM274 450q-41 0 -77.5 -15.5t-63.5 -42.5t-42.5 -63.5t-15.5 -77.5t15.5 -77.5t42.5 -63.5
t63.5 -42.5t77.5 -15.5t77 15.5t63 42.5t43 63.5t16 77.5t-16 77.5t-43 63.5t-63 42.5t-77 15.5zM171 513l-37 33l123 145l38 -33zM289 513l-37 33l123 146l38 -34z" />
    <glyph glyph-name="OE" unicode="&#x152;" horiz-adv-x="1009" 
d="M307 -1q-58 0 -112 28q-50 26 -90 76q-39 50 -59.5 113t-20.5 132t20.5 132t59.5 113q40 50 90 76q54 28 112 28q57 0 111 -28q50 -26 90 -76q29 -38 49 -85v189h446v-50h-396v-273h396v-50h-396v-273h396v-50h-446v187q-10 -23 -22 -44.5t-27 -40.5q-40 -50 -90 -76
q-54 -28 -111 -28zM307 647q-48 0 -90.5 -23.5t-74 -64t-49.5 -95t-18 -116.5t18 -116.5t49.5 -95t74 -64t90.5 -23.5t90 23.5t73.5 64t49.5 95t18 116.5t-18 116.5t-49.5 95t-73.5 64t-90 23.5z" />
    <glyph glyph-name="oe" unicode="&#x153;" horiz-adv-x="962" 
d="M729 1q-49 0 -97 20q-25 11 -47.5 27t-39.5 36q-28 32 -43 68q-20 -45 -52 -77q-35 -35 -80.5 -54t-95.5 -19q-51 0 -96 19t-80 54t-54 80.5t-19 95.5q0 51 19 96t54 80t80 54t96 19q50 0 95.5 -19t80.5 -54q17 -17 29 -35.5t22 -38.5q5 13 12.5 25.5t15.5 24.5
q46 65 122 88q44 13 90.5 6.5t85.5 -29.5t66 -61.5t36 -83.5l6 -30h-399q-2 -8 -3 -16.5t-1 -16.5q-1 -40 12 -77t38 -66q29 -32 70 -50q20 -8 41.5 -12.5t42.5 -2.5q42 1 83 22q39 21 65 56l15 20l40 -30l-15 -20q-32 -44 -82 -70t-104 -28q-3 -1 -9 -1zM274 450
q-41 0 -77.5 -15.5t-63.5 -42.5t-42.5 -63.5t-15.5 -77.5t15.5 -77.5t42.5 -63.5t63.5 -42.5t77.5 -15.5t77 15.5t63 42.5t43 63.5t16 77.5t-16 77.5t-43 63.5t-63 42.5t-77 15.5zM712 449q-25 0 -47 -6q-29 -8 -53.5 -26t-42.5 -43q-5 -8 -9 -15.5t-8 -15.5h319
q-11 26 -29 47t-41 35q-41 24 -89 24z" />
    <glyph glyph-name="Racute" unicode="&#x154;" horiz-adv-x="503" 
d="M477 1l-141 336q24 6 45 19q34 23 55 61q23 43 23 94t-23 94q-19 39 -55 62q-32 21 -66 25t-63 4q-95 2 -191 0h-25v-687h50v318h166q8 1 16.5 1t16.5 1l137 -328h55zM252 378q-42 -1 -83 -1h-83v270h83t83 -1q30 0 55 -3.5t47 -17.5q11 -8 21 -18.5t17 -24.5
q8 -16 12.5 -34.5t4.5 -36.5t-4.5 -36.5t-12.5 -33.5q-16 -29 -39 -43q-21 -14 -45.5 -17t-55.5 -3zM185 736l-27 41l158 107l28 -42z" />
    <glyph glyph-name="racute" unicode="&#x155;" horiz-adv-x="325" 
d="M324 502l-30 -3q-58 -6 -110 -29q-28 -13 -53 -30t-45 -38v97h-50v-498h50v320l7 10q19 29 47.5 53t63.5 40q23 10 46.5 16.5t48.5 8.5l25 3v50zM96 536l-27 41l158 107l28 -42z" />
    <glyph glyph-name="Rcommaaccent" unicode="&#x156;" horiz-adv-x="503" 
d="M422 1l-137 328q-8 -1 -16.5 -1t-16.5 -1h-166v-318h-50v687h25q96 2 191 0q29 0 63 -4t66 -25q36 -23 55 -62q23 -43 23 -94t-23 -94q-21 -38 -55 -61q-21 -13 -45 -19l141 -336h-55zM252 378q31 0 55.5 3t45.5 17q23 14 39 43q8 15 12.5 33.5t4.5 36.5t-4.5 36.5
t-12.5 34.5q-7 14 -17 24.5t-21 18.5q-22 14 -47 17.5t-55 3.5q-42 1 -83 1h-83v-270h83t83 1zM235 -284l-48 13l35 132q-18 4 -30.5 18t-12.5 33q0 22 15.5 37t36.5 15t36 -15t15 -37z" />
    <glyph glyph-name="rcommaaccent" unicode="&#x157;" horiz-adv-x="341" 
d="M341 452l-25 -3q-25 -2 -48.5 -8.5t-46.5 -16.5q-35 -16 -63.5 -40t-47.5 -53l-7 -10v-320h-50v498h50v-97q20 21 45 38t53 30q52 23 110 29l30 3v-50zM84 -284l-48 13l35 132q-18 4 -30.5 18t-12.5 33q0 22 15.5 37t36.5 15t36 -15t15 -37z" />
    <glyph glyph-name="Rcaron" unicode="&#x158;" horiz-adv-x="503" 
d="M422 1l-137 328q-8 -1 -16.5 -1t-16.5 -1h-166v-318h-50v687h25q96 2 191 0q29 0 63 -4t66 -25q36 -23 55 -62q23 -43 23 -94t-23 -94q-21 -38 -55 -61q-21 -13 -45 -19l141 -336h-55zM252 378q31 0 55.5 3t45.5 17q23 14 39 43q8 15 12.5 33.5t4.5 36.5t-4.5 36.5
t-12.5 34.5q-7 14 -17 24.5t-21 18.5q-22 14 -47 17.5t-55 3.5q-42 1 -83 1h-83v-270h83t83 1zM251 793l93 80l32 -38l-108 -94h-33l-109 94l33 38z" />
    <glyph glyph-name="rcaron" unicode="&#x159;" horiz-adv-x="325" 
d="M324 452l-25 -3q-25 -2 -48.5 -8.5t-46.5 -16.5q-35 -16 -63.5 -40t-47.5 -53l-7 -10v-320h-50v498h50v-97q20 21 45 38t53 30q52 23 110 29l30 3v-50zM162 593l93 80l32 -38l-108 -94h-33l-109 94l33 38z" />
    <glyph glyph-name="Sacute" unicode="&#x15a;" horiz-adv-x="510" 
d="M255 -1q-46 0 -88 12t-74 35q-34 23 -51 55.5t-15 66.5h50q-2 -20 10 -42.5t35 -38.5q25 -18 60 -28t73 -10q37 0 72 10t61 28q23 16 34.5 36.5t9.5 40.5q-2 21 -17.5 43.5t-42.5 44.5q-28 21 -61.5 39t-67.5 35q-35 18 -70.5 37t-65.5 42q-37 29 -57 60t-23 63
q-2 34 15 66.5t51 56.5q32 22 74 34t88 12q45 0 87 -12t74 -34q34 -24 51.5 -56.5t14.5 -66.5h-50q2 20 -9.5 42.5t-34.5 39.5q-26 17 -61 27t-72 10q-38 0 -73 -10t-60 -27q-23 -17 -35 -37.5t-10 -40.5q2 -21 17.5 -43.5t43.5 -43.5q27 -21 60.5 -39t67.5 -35
q35 -18 70.5 -37.5t65.5 -42.5q74 -57 80 -123q3 -34 -14.5 -66.5t-51.5 -55.5q-32 -23 -74 -35t-87 -12zM189 736l-27 41l158 107l28 -42z" />
    <glyph glyph-name="sacute" unicode="&#x15b;" horiz-adv-x="384" 
d="M192 1q-32 0 -62.5 8.5t-53.5 25.5q-26 17 -38.5 41t-10.5 50h50q-1 -12 6 -26t21 -24q17 -12 40 -18.5t48 -6.5t47.5 6.5t39.5 18.5q30 20 28 46q-3 28 -39 55q-19 14 -41.5 26.5t-45.5 24.5q-25 12 -49.5 25t-46.5 30q-53 43 -58 91q-2 26 10.5 50t38.5 41
q23 17 53 25.5t63 8.5q32 0 62.5 -8.5t53.5 -25.5q25 -17 38 -41t11 -50h-50q1 12 -6.5 26t-21.5 24q-17 12 -39.5 18.5t-47.5 6.5t-48 -6.5t-40 -18.5q-29 -21 -27 -46q2 -27 39 -55q18 -14 41 -26.5t46 -24.5q25 -12 49.5 -25t46.5 -30q53 -43 58 -91q2 -26 -11 -50
t-38 -41q-23 -17 -53.5 -25.5t-62.5 -8.5zM126 536l-27 41l158 107l28 -42z" />
    <glyph glyph-name="Scircumflex" unicode="&#x15c;" horiz-adv-x="510" 
d="M255 -1q-46 0 -88 12t-74 35q-34 23 -51 55.5t-15 66.5h50q-2 -20 10 -42.5t35 -38.5q25 -18 60 -28t73 -10q37 0 72 10t61 28q23 16 34.5 36.5t9.5 40.5q-2 21 -17.5 43.5t-42.5 44.5q-28 21 -61.5 39t-67.5 35q-35 18 -70.5 37t-65.5 42q-37 29 -57 60t-23 63
q-2 34 15 66.5t51 56.5q32 22 74 34t88 12q45 0 87 -12t74 -34q34 -24 51.5 -56.5t14.5 -66.5h-50q2 20 -9.5 42.5t-34.5 39.5q-26 17 -61 27t-72 10q-38 0 -73 -10t-60 -27q-23 -17 -35 -37.5t-10 -40.5q2 -21 17.5 -43.5t43.5 -43.5q27 -21 60.5 -39t67.5 -35
q35 -18 70.5 -37.5t65.5 -42.5q74 -57 80 -123q3 -34 -14.5 -66.5t-51.5 -55.5q-32 -23 -74 -35t-87 -12zM163 741l-33 38l109 94h33l108 -94l-32 -38l-93 80z" />
    <glyph glyph-name="scircumflex" unicode="&#x15d;" horiz-adv-x="384" 
d="M192 1q-32 0 -62.5 8.5t-53.5 25.5q-26 17 -38.5 41t-10.5 50h50q-1 -12 6 -26t21 -24q17 -12 40 -18.5t48 -6.5t47.5 6.5t39.5 18.5q30 20 28 46q-3 28 -39 55q-19 14 -41.5 26.5t-45.5 24.5q-25 12 -49.5 25t-46.5 30q-53 43 -58 91q-2 26 10.5 50t38.5 41
q23 17 53 25.5t63 8.5q32 0 62.5 -8.5t53.5 -25.5q25 -17 38 -41t11 -50h-50q1 12 -6.5 26t-21.5 24q-17 12 -39.5 18.5t-47.5 6.5t-48 -6.5t-40 -18.5q-29 -21 -27 -46q2 -27 39 -55q18 -14 41 -26.5t46 -24.5q25 -12 49.5 -25t46.5 -30q53 -43 58 -91q2 -26 -11 -50
t-38 -41q-23 -17 -53.5 -25.5t-62.5 -8.5zM100 541l-33 38l109 94h33l108 -94l-32 -38l-93 80z" />
    <glyph glyph-name="Scedilla" unicode="&#x15e;" horiz-adv-x="510" 
d="M310 -88q0 22 -15 37t-36 15t-36.5 -15t-15.5 -37q0 -19 12.5 -33t30.5 -18l-35 -132l48 -13zM255 -1q-46 0 -88 12t-74 35q-34 23 -51 55.5t-15 66.5h50q-2 -20 10 -42.5t35 -38.5q25 -18 60 -28t73 -10q37 0 72 10t61 28q23 16 34.5 36.5t9.5 40.5q-2 21 -17.5 43.5
t-42.5 44.5q-28 21 -61.5 39t-67.5 35q-35 18 -70.5 37t-65.5 42q-37 29 -57 60t-23 63q-2 34 15 66.5t51 56.5q32 22 74 34t88 12q45 0 87 -12t74 -34q34 -24 51.5 -56.5t14.5 -66.5h-50q2 20 -9.5 42.5t-34.5 39.5q-26 17 -61 27t-72 10q-38 0 -73 -10t-60 -27
q-23 -17 -35 -37.5t-10 -40.5q2 -21 17.5 -43.5t43.5 -43.5q27 -21 60.5 -39t67.5 -35q35 -18 70.5 -37.5t65.5 -42.5q74 -57 80 -123q3 -34 -14.5 -66.5t-51.5 -55.5q-32 -23 -74 -35t-87 -12z" />
    <glyph glyph-name="scedilla" unicode="&#x15f;" horiz-adv-x="384" 
d="M251 -88q0 22 -15 37t-36 15t-36.5 -15t-15.5 -37q0 -19 12.5 -33t30.5 -18l-35 -132l48 -13zM192 1q-32 0 -62.5 8.5t-53.5 25.5q-26 17 -38.5 41t-10.5 50h50q-1 -12 6 -26t21 -24q17 -12 40 -18.5t48 -6.5t47.5 6.5t39.5 18.5q30 20 28 46q-3 28 -39 55
q-19 14 -41.5 26.5t-45.5 24.5q-25 12 -49.5 25t-46.5 30q-53 43 -58 91q-2 26 10.5 50t38.5 41q23 17 53 25.5t63 8.5q32 0 62.5 -8.5t53.5 -25.5q25 -17 38 -41t11 -50h-50q1 12 -6.5 26t-21.5 24q-17 12 -39.5 18.5t-47.5 6.5t-48 -6.5t-40 -18.5q-29 -21 -27 -46
q2 -27 39 -55q18 -14 41 -26.5t46 -24.5q25 -12 49.5 -25t46.5 -30q53 -43 58 -91q2 -26 -11 -50t-38 -41q-23 -17 -53.5 -25.5t-62.5 -8.5z" />
    <glyph glyph-name="Scaron" unicode="&#x160;" horiz-adv-x="510" 
d="M255 -1q-46 0 -88 12t-74 35q-34 23 -51 55.5t-15 66.5h50q-2 -20 10 -42.5t35 -38.5q25 -18 60 -28t73 -10q37 0 72 10t61 28q23 16 34.5 36.5t9.5 40.5q-2 21 -17.5 43.5t-42.5 44.5q-28 21 -61.5 39t-67.5 35q-35 18 -70.5 37t-65.5 42q-37 29 -57 60t-23 63
q-2 34 15 66.5t51 56.5q32 22 74 34t88 12q45 0 87 -12t74 -34q34 -24 51.5 -56.5t14.5 -66.5h-50q2 20 -9.5 42.5t-34.5 39.5q-26 17 -61 27t-72 10q-38 0 -73 -10t-60 -27q-23 -17 -35 -37.5t-10 -40.5q2 -21 17.5 -43.5t43.5 -43.5q27 -21 60.5 -39t67.5 -35
q35 -18 70.5 -37.5t65.5 -42.5q74 -57 80 -123q3 -34 -14.5 -66.5t-51.5 -55.5q-32 -23 -74 -35t-87 -12zM255 793l93 80l32 -38l-108 -94h-33l-109 94l33 38z" />
    <glyph glyph-name="scaron" unicode="&#x161;" horiz-adv-x="384" 
d="M192 1q-32 0 -62.5 8.5t-53.5 25.5q-26 17 -38.5 41t-10.5 50h50q-1 -12 6 -26t21 -24q17 -12 40 -18.5t48 -6.5t47.5 6.5t39.5 18.5q30 20 28 46q-3 28 -39 55q-19 14 -41.5 26.5t-45.5 24.5q-25 12 -49.5 25t-46.5 30q-53 43 -58 91q-2 26 10.5 50t38.5 41
q23 17 53 25.5t63 8.5q32 0 62.5 -8.5t53.5 -25.5q25 -17 38 -41t11 -50h-50q1 12 -6.5 26t-21.5 24q-17 12 -39.5 18.5t-47.5 6.5t-48 -6.5t-40 -18.5q-29 -21 -27 -46q2 -27 39 -55q18 -14 41 -26.5t46 -24.5q25 -12 49.5 -25t46.5 -30q53 -43 58 -91q2 -26 -11 -50
t-38 -41q-23 -17 -53.5 -25.5t-62.5 -8.5zM192 593l93 80l32 -38l-108 -94h-33l-109 94l33 38z" />
    <glyph glyph-name="Tcommaaccent" unicode="&#x162;" horiz-adv-x="483" 
d="M477 647h-210v-648h-50v648h-211v50h471v-50zM237 -284l-48 13l35 132q-18 4 -30.5 18t-12.5 33q0 22 15.5 37t36.5 15t36 -15t15 -37z" />
    <glyph glyph-name="tcommaaccent" unicode="&#x163;" horiz-adv-x="364" 
d="M90 -284l-48 13l35 132q-18 4 -30.5 18t-12.5 33q0 22 15.5 37t36.5 15t36 -15t15 -37zM360 185q3 -31 -5.5 -61t-27.5 -55t-45.5 -42t-56.5 -23q-17 -3 -33 -3q-44 0 -81 21q-26 14 -45.5 36.5t-30.5 49.5l-2 9v631h50v-341h277v-50h-277v-235q8 -17 21.5 -32t30.5 -24
q38 -21 80 -13q21 5 40 16.5t32 29.5q13 17 19 38.5t4 43.5l-2 29h49z" />
    <glyph glyph-name="Tcaron" unicode="&#x164;" horiz-adv-x="483" 
d="M477 647h-210v-648h-50v648h-211v50h471v-50zM241 793l93 80l32 -38l-108 -94h-33l-109 94l33 38z" />
    <glyph glyph-name="tcaron" unicode="&#x165;" horiz-adv-x="509" 
d="M361 185q3 -31 -5.5 -61t-27.5 -55t-45.5 -42t-56.5 -23q-17 -3 -33 -3q-44 0 -81 21q-26 14 -45.5 36.5t-30.5 49.5l-2 9v631h50v-341h277v-50h-277v-235q8 -17 21.5 -32t30.5 -24q38 -21 80 -13q21 5 40 16.5t32 29.5q13 17 19 38.5t4 43.5l-2 29h49zM446 380l-48 13
l35 132q-18 4 -30.5 18t-12.5 33q0 22 15.5 37t36.5 15t36 -15t15 -37z" />
    <glyph glyph-name="Tbar" unicode="&#x166;" horiz-adv-x="483" 
d="M46 371v50h171v226h-211v50h471v-50h-210v-226h174v-50h-174v-372h-50v372h-171z" />
    <glyph glyph-name="tbar" unicode="&#x167;" horiz-adv-x="367" 
d="M361 185q3 -31 -5.5 -61t-27.5 -55t-45.5 -42t-56.5 -23q-17 -3 -33 -3q-44 0 -81 21q-26 14 -45.5 36.5t-30.5 49.5l-2 9v631h50v-341h277v-50h-277v-57h277v-50h-277v-128q8 -17 21.5 -32t30.5 -24q38 -21 80 -13q21 5 40 16.5t32 29.5q13 17 19 38.5t4 43.5l-2 29h49
l3 -25v0z" />
    <glyph glyph-name="Utilde" unicode="&#x168;" 
d="M252 -2h-1q-30 0 -59.5 10.5t-55.5 30.5q-46 33 -72 91q-23 51 -27.5 105.5t-4.5 104.5q-2 165 0 331v25h50v-25q-2 -166 0 -331q0 -46 4 -95.5t24 -94.5q10 -22 24.5 -40t31.5 -32q39 -30 85 -30h1q45 0 86 30q36 26 57 72q20 45 24 94.5t4 95.5q2 165 0 331v25h50v-25
q2 -166 0 -331q0 -48 -4.5 -103.5t-28.5 -107.5q-26 -58 -72 -91q-54 -40 -116 -40zM157 743l-49 8l4 24q6 43 38 67q16 12 35 15t37 -4q15 -5 26.5 -15.5t21.5 -19.5q8 -7 15 -13.5t15 -9.5q12 -4 25 4q15 11 18 34l4 25l50 -8l-4 -24q-8 -44 -38 -67q-16 -12 -35.5 -15
t-37.5 4q-15 6 -26.5 16t-20.5 19q-8 7 -15 13.5t-15 9.5q-14 5 -25 -4q-16 -11 -19 -34z" />
    <glyph glyph-name="utilde" unicode="&#x169;" horiz-adv-x="468" 
d="M33 229q1 -36 5.5 -70.5t21.5 -64.5q13 -23 33 -41t44 -29q46 -21 100 -20q23 1 47.5 6t47.5 16q13 6 25.5 13t23.5 15v-51h50v494h-50v-376l-4 -4q-27 -29 -65 -45.5t-77 -17.5q-43 -2 -76 15q-18 8 -32 21t-23 28q-13 23 -16 51.5t-4 60.5q-2 57 -2 120.5t2 120.5v26
h-51v-25q-1 -58 -1 -121.5t1 -121.5zM138 543l-49 8l4 24q6 43 38 67q16 12 35 15t37 -4q15 -5 26.5 -15.5t21.5 -19.5q8 -7 15 -13.5t15 -9.5q12 -4 25 4q15 11 18 34l4 25l50 -8l-4 -24q-8 -44 -38 -67q-16 -12 -35.5 -15t-37.5 4q-15 6 -26.5 16t-20.5 19q-8 7 -15 13.5
t-15 9.5q-14 5 -25 -4q-16 -11 -19 -34z" />
    <glyph glyph-name="Umacron" unicode="&#x16a;" 
d="M252 -2h-1q-30 0 -59.5 10.5t-55.5 30.5q-46 33 -72 91q-23 51 -27.5 105.5t-4.5 104.5q-2 165 0 331v25h50v-25q-2 -166 0 -331q0 -46 4 -95.5t24 -94.5q10 -22 24.5 -40t31.5 -32q39 -30 85 -30h1q45 0 86 30q36 26 57 72q20 45 24 94.5t4 95.5q2 165 0 331v25h50v-25
q2 -166 0 -331q0 -48 -4.5 -103.5t-28.5 -107.5q-26 -58 -72 -91q-54 -40 -116 -40zM114 750v50h282v-50h-282z" />
    <glyph glyph-name="umacron" unicode="&#x16b;" horiz-adv-x="468" 
d="M33 229q1 -36 5.5 -70.5t21.5 -64.5q13 -23 33 -41t44 -29q46 -21 100 -20q23 1 47.5 6t47.5 16q13 6 25.5 13t23.5 15v-51h50v494h-50v-376l-4 -4q-27 -29 -65 -45.5t-77 -17.5q-43 -2 -76 15q-18 8 -32 21t-23 28q-13 23 -16 51.5t-4 60.5q-2 57 -2 120.5t2 120.5v26
h-51v-25q-1 -58 -1 -121.5t1 -121.5zM92 543v50h282v-50h-282z" />
    <glyph glyph-name="Ubreve" unicode="&#x16c;" 
d="M252 -2h-1q-30 0 -59.5 10.5t-55.5 30.5q-46 33 -72 91q-23 51 -27.5 105.5t-4.5 104.5q-2 165 0 331v25h50v-25q-2 -166 0 -331q0 -46 4 -95.5t24 -94.5q10 -22 24.5 -40t31.5 -32q39 -30 85 -30h1q45 0 86 30q36 26 57 72q20 45 24 94.5t4 95.5q2 165 0 331v25h50v-25
q2 -166 0 -331q0 -48 -4.5 -103.5t-28.5 -107.5q-26 -58 -72 -91q-54 -40 -116 -40zM253 725q-23 0 -44.5 10t-36.5 27q-15 18 -22 40.5t-3 45.5l4 25h49l-3 -32q-5 -26 13 -46q8 -9 19.5 -14.5t23.5 -5.5q25 0 43 20q16 20 13 46l-4 32h49l4 -25q4 -23 -2.5 -45.5
t-21.5 -40.5q-15 -17 -36.5 -27t-44.5 -10z" />
    <glyph glyph-name="ubreve" unicode="&#x16d;" horiz-adv-x="468" 
d="M33 229q1 -36 5.5 -70.5t21.5 -64.5q13 -23 33 -41t44 -29q46 -21 100 -20q23 1 47.5 6t47.5 16q13 6 25.5 13t23.5 15v-51h50v494h-50v-376l-4 -4q-27 -29 -65 -45.5t-77 -17.5q-43 -2 -76 15q-18 8 -32 21t-23 28q-13 23 -16 51.5t-4 60.5q-2 57 -2 120.5t2 120.5v26
h-51v-25q-1 -58 -1 -121.5t1 -121.5zM234 525q-23 0 -44.5 10t-36.5 27q-15 18 -22 40.5t-3 45.5l4 25h49l-3 -32q-5 -26 13 -46q8 -9 19.5 -14.5t23.5 -5.5q25 0 43 20q16 20 13 46l-4 32h49l4 -25q4 -23 -2.5 -45.5t-21.5 -40.5q-15 -17 -36.5 -27t-44.5 -10z" />
    <glyph glyph-name="Uring" unicode="&#x16e;" 
d="M252 -2h-1q-30 0 -59.5 10.5t-55.5 30.5q-46 33 -72 91q-23 51 -27.5 105.5t-4.5 104.5q-2 165 0 331v25h50v-25q-2 -166 0 -331q0 -46 4 -95.5t24 -94.5q10 -22 24.5 -40t31.5 -32q39 -30 85 -30h1q45 0 86 30q36 26 57 72q20 45 24 94.5t4 95.5q2 165 0 331v25h50v-25
q2 -166 0 -331q0 -48 -4.5 -103.5t-28.5 -107.5q-26 -58 -72 -91q-54 -40 -116 -40zM252 703q-18 0 -33.5 7t-27 18.5t-18 27t-6.5 33.5q0 35 25 60t60 25q36 0 61 -25t25 -60q0 -18 -6.5 -33.5t-18.5 -27t-27.5 -18.5t-33.5 -7zM252 824q-14 0 -24.5 -10.5t-10.5 -24.5
q0 -15 10.5 -25.5t24.5 -10.5q15 0 25.5 10.5t10.5 25.5q0 14 -10.5 24.5t-25.5 10.5z" />
    <glyph glyph-name="uring" unicode="&#x16f;" horiz-adv-x="468" 
d="M33 229q1 -36 5.5 -70.5t21.5 -64.5q13 -23 33 -41t44 -29q46 -21 100 -20q23 1 47.5 6t47.5 16q13 6 25.5 13t23.5 15v-51h50v494h-50v-376l-4 -4q-27 -29 -65 -45.5t-77 -17.5q-43 -2 -76 15q-18 8 -32 21t-23 28q-13 23 -16 51.5t-4 60.5q-2 57 -2 120.5t2 120.5v26
h-51v-25q-1 -58 -1 -121.5t1 -121.5zM233 503q-18 0 -33.5 7t-27 18.5t-18 27t-6.5 33.5q0 35 25 60t60 25q36 0 61 -25t25 -60q0 -18 -6.5 -33.5t-18.5 -27t-27.5 -18.5t-33.5 -7zM233 624q-14 0 -24.5 -10.5t-10.5 -24.5q0 -15 10.5 -25.5t24.5 -10.5q15 0 25.5 10.5
t10.5 25.5q0 14 -10.5 24.5t-25.5 10.5z" />
    <glyph glyph-name="Uhungarumlaut" unicode="&#x170;" 
d="M252 -2h-1q-30 0 -59.5 10.5t-55.5 30.5q-46 33 -72 91q-23 51 -27.5 105.5t-4.5 104.5q-2 165 0 331v25h50v-25q-2 -166 0 -331q0 -46 4 -95.5t24 -94.5q10 -22 24.5 -40t31.5 -32q39 -30 85 -30h1q45 0 86 30q36 26 57 72q20 45 24 94.5t4 95.5q2 165 0 331v25h50v-25
q2 -166 0 -331q0 -48 -4.5 -103.5t-28.5 -107.5q-26 -58 -72 -91q-54 -40 -116 -40zM268 713l-37 33l123 146l38 -34zM150 713l-37 33l123 145l38 -33z" />
    <glyph glyph-name="uhungarumlaut" unicode="&#x171;" horiz-adv-x="468" 
d="M33 229q1 -36 5.5 -70.5t21.5 -64.5q13 -23 33 -41t44 -29q46 -21 100 -20q23 1 47.5 6t47.5 16q13 6 25.5 13t23.5 15v-51h50v494h-50v-376l-4 -4q-27 -29 -65 -45.5t-77 -17.5q-43 -2 -76 15q-18 8 -32 21t-23 28q-13 23 -16 51.5t-4 60.5q-2 57 -2 120.5t2 120.5v26
h-51v-25q-1 -58 -1 -121.5t1 -121.5zM131 513l-37 33l123 145l38 -33zM249 513l-37 33l123 146l38 -34z" />
    <glyph glyph-name="Uogonek" unicode="&#x172;" 
d="M310 -130q-6 4 -8 7q-18 16 -26.5 40t-3.5 51q2 19 7 32q-7 -1 -13.5 -1.5t-13.5 -0.5h-1q-30 0 -59.5 10.5t-55.5 30.5q-46 33 -72 91q-23 51 -27.5 105.5t-4.5 104.5q-2 165 0 331v25h50v-25q-2 -166 0 -331q0 -46 4 -95.5t24 -94.5q10 -22 24.5 -40t31.5 -32
q39 -30 85 -30h1q45 0 86 30q36 26 57 72q20 45 24 94.5t4 95.5q2 165 0 331v25h50v-25q2 -166 0 -331q0 -48 -4.5 -103.5t-28.5 -107.5q-24 -53 -68 -88l-19 -19q-14 -12 -22 -27.5t-11 -32.5q-1 -14 3 -27.5t12 -21.5t21 -10.5t25 0.5l25 7l11 -49l-24 -6
q-23 -5 -44.5 -1.5t-38.5 16.5z" />
    <glyph glyph-name="uogonek" unicode="&#x173;" horiz-adv-x="468" 
d="M357 -162q-6 4 -8 7q-18 16 -26.5 40t-3.5 51q2 26 15 49.5t33 41.5l14 12v15q-11 -8 -23.5 -15t-25.5 -13q-23 -11 -47.5 -16t-47.5 -6q-54 -1 -100 20q-24 11 -44 29t-33 41q-17 30 -21.5 64.5t-5.5 70.5q-1 58 -1 121.5t1 121.5v25h51v-26q-2 -57 -2 -120.5t2 -120.5
q1 -32 4 -60.5t16 -51.5q9 -15 23 -28t32 -21q33 -17 76 -15q39 1 77 17.5t65 45.5l4 4v376h50v-494h-18l-13 -13q-14 -12 -22 -27.5t-11 -32.5q-1 -14 3 -27.5t12 -21.5t21 -10.5t25 0.5l25 7l11 -49l-24 -6q-23 -5 -44.5 -1.5t-38.5 16.5z" />
    <glyph glyph-name="Wcircumflex" unicode="&#x174;" horiz-adv-x="810" 
d="M604 2h-48l-152 567l-151 -567h-49l-181 695h53l152 -592l152 592h48l152 -592l154 592h53zM313 741l-33 38l109 94h33l108 -94l-32 -38l-93 80z" />
    <glyph glyph-name="wcircumflex" unicode="&#x175;" horiz-adv-x="586" 
d="M436 3h-48l-96 357l-95 -357h-48l-126 496h48l102 -393l95 393h49l95 -393l103 393h48zM201 541l-33 38l109 94h33l108 -94l-32 -38l-93 80z" />
    <glyph glyph-name="Ycircumflex" unicode="&#x176;" horiz-adv-x="604" 
d="M594 707h-61l-231 -323l-232 323h-60l267 -373v-335h50v335zM210 741l-33 38l109 94h33l108 -94l-32 -38l-93 80z" />
    <glyph glyph-name="ycircumflex" unicode="&#x177;" horiz-adv-x="480" 
d="M396 498v-356l-3 -2q-53 -31 -115.5 -38.5t-121.5 10.5q-11 4 -19 7t-15 8q-15 7 -25 21q-8 12 -13 30q-2 9 -2 18v20v282h-50v-282q0 -12 0.5 -24t2.5 -24q6 -26 22 -49q16 -22 39 -35q18 -11 45 -20q24 -8 49 -11t51 -3q82 0 155 35v-187q-20 -45 -61 -72
q-43 -28 -95 -26q-32 2 -62 15.5t-52 36.5t-34 53.5t-10 62.5v27h-50v-25q-2 -42 13.5 -82t44.5 -70q29 -31 67.5 -48.5t80.5 -19.5h7q31 0 61 9t56 26q57 36 82 99l2 4v610h-50zM148 541l-33 38l109 94h33l108 -94l-32 -38l-93 80z" />
    <glyph glyph-name="Ydieresis" unicode="&#x178;" horiz-adv-x="604" 
d="M594 707h-61l-231 -323l-232 323h-60l267 -373v-335h50v335zM386 783q0 -12 -9 -21t-22 -9q-12 0 -21 9t-9 21q0 13 9 22.5t21 9.5q13 0 22 -9.5t9 -22.5zM278 783q0 -12 -9 -21t-22 -9q-12 0 -21 9t-9 21q0 13 9 22.5t21 9.5q13 0 22 -9.5t9 -22.5z" />
    <glyph glyph-name="Zacute" unicode="&#x179;" horiz-adv-x="528" 
d="M104 49h411v-50h-502l410 648h-410v50h502zM198 736l-27 41l158 107l28 -42z" />
    <glyph glyph-name="zacute" unicode="&#x17a;" horiz-adv-x="413" 
d="M374 1h-355l284 449h-263v50h354l-284 -449h264v-50zM140 536l-27 41l158 107l28 -42z" />
    <glyph glyph-name="Zdotaccent" unicode="&#x17b;" horiz-adv-x="528" 
d="M104 49h411v-50h-502l410 648h-410v50h502zM303 786q0 -15 -12 -26.5t-29 -11.5q-15 0 -26.5 11.5t-11.5 26.5q0 17 11.5 29.5t26.5 12.5q17 0 29 -12.5t12 -29.5z" />
    <glyph glyph-name="zdotaccent" unicode="&#x17c;" horiz-adv-x="413" 
d="M374 1h-355l284 449h-263v50h354l-284 -449h264v-50zM246 586q0 -15 -12 -26.5t-29 -11.5q-15 0 -26.5 11.5t-11.5 26.5q0 17 11.5 29.5t26.5 12.5q17 0 29 -12.5t12 -29.5z" />
    <glyph glyph-name="Zcaron" unicode="&#x17d;" horiz-adv-x="528" 
d="M104 49h411v-50h-502l410 648h-410v50h502zM264 793l93 80l32 -38l-108 -94h-33l-109 94l33 38z" />
    <glyph glyph-name="zcaron" unicode="&#x17e;" horiz-adv-x="413" 
d="M374 1h-355l284 449h-263v50h354l-284 -449h264v-50zM208 593l93 80l32 -38l-108 -94h-33l-109 94l33 38z" />
    <glyph glyph-name="longs" unicode="&#x17f;" horiz-adv-x="366" 
d="M84 1h-50v634l2 9q11 28 30.5 50t45.5 36t55.5 19t58.5 -1q30 -6 56.5 -22.5t45.5 -41.5q39 -53 33 -117l-3 -25h-49l2 30q2 21 -4 42.5t-19 39.5q-13 17 -32 28.5t-40 16.5q-43 8 -80 -12q-35 -20 -52 -57v-629z" />
    <glyph glyph-name="circumflex" unicode="&#x2c6;" horiz-adv-x="286" 
d="M51 541l-33 38l109 94h33l108 -94l-32 -38l-93 80z" />
    <glyph glyph-name="caron" unicode="&#x2c7;" horiz-adv-x="284" 
d="M142 593l93 80l32 -38l-108 -94h-33l-109 94l33 38z" />
    <glyph glyph-name="breve" unicode="&#x2d8;" horiz-adv-x="271" 
d="M136 525q-23 0 -44.5 10t-36.5 27q-15 18 -22 40.5t-3 45.5l4 25h49l-3 -32q-5 -26 13 -46q8 -9 19.5 -14.5t23.5 -5.5q25 0 43 20q16 20 13 46l-4 32h49l4 -25q4 -23 -2.5 -45.5t-21.5 -40.5q-15 -17 -36.5 -27t-44.5 -10z" />
    <glyph glyph-name="dotaccent" unicode="&#x2d9;" horiz-adv-x="129" 
d="M104 586q0 -15 -12 -26.5t-29 -11.5q-15 0 -26.5 11.5t-11.5 26.5q0 17 11.5 29.5t26.5 12.5q17 0 29 -12.5t12 -29.5z" />
    <glyph glyph-name="ring" unicode="&#x2da;" horiz-adv-x="221" 
d="M110 503q-18 0 -33.5 7t-27 18.5t-18 27t-6.5 33.5q0 35 25 60t60 25q36 0 61 -25t25 -60q0 -18 -6.5 -33.5t-18.5 -27t-27.5 -18.5t-33.5 -7zM110 624q-14 0 -24.5 -10.5t-10.5 -24.5q0 -15 10.5 -25.5t24.5 -10.5q15 0 25.5 10.5t10.5 25.5q0 14 -10.5 24.5t-25.5 10.5
z" />
    <glyph glyph-name="ogonek" unicode="&#x2db;" horiz-adv-x="184" 
d="M62 -174q-6 4 -8 7q-18 16 -26.5 40t-3.5 51q2 26 15 49.5t33 41.5l18 16l40 -28l-25 -25q-14 -12 -22 -27.5t-11 -32.5q-1 -14 3 -27.5t12 -21.5t21 -10.5t25 0.5l25 7l11 -49l-24 -6q-23 -5 -44.5 -1.5t-38.5 16.5z" />
    <glyph glyph-name="tilde" unicode="&#x2dc;" horiz-adv-x="342" 
d="M76 543l-49 8l4 24q6 43 38 67q16 12 35 15t37 -4q15 -5 26.5 -15.5t21.5 -19.5q8 -7 15 -13.5t15 -9.5q12 -4 25 4q15 11 18 34l4 25l50 -8l-4 -24q-8 -44 -38 -67q-16 -12 -35.5 -15t-37.5 4q-15 6 -26.5 16t-20.5 19q-8 7 -15 13.5t-15 9.5q-14 5 -25 -4
q-16 -11 -19 -34z" />
    <glyph glyph-name="hungarumlaut" unicode="&#x2dd;" horiz-adv-x="310" 
d="M53 513l-37 33l123 145l38 -33zM171 513l-37 33l123 146l38 -34z" />
    <glyph glyph-name="quoteleft" unicode="&#x2018;" horiz-adv-x="142" 
d="M63 628l48 -13l-35 -132q18 -4 30.5 -18t12.5 -33q0 -22 -15.5 -37t-36.5 -15t-36 15t-15 37z" />
    <glyph glyph-name="quoteright" unicode="&#x2019;" horiz-adv-x="142" 
d="M79 380l-48 13l35 132q-18 4 -30.5 18t-12.5 33q0 22 15.5 37t36.5 15t36 -15t15 -37z" />
    <glyph glyph-name="quotesinglbase" unicode="&#x201a;" horiz-adv-x="142" 
d="M79 -136l-48 13l35 132q-18 4 -30.5 18t-12.5 33q0 22 15.5 37t36.5 15t36 -15t15 -37z" />
    <glyph glyph-name="quotedblleft" unicode="&#x201c;" horiz-adv-x="296" 
d="M210 628l48 -13l-35 -132q18 -4 30.5 -18t12.5 -33q0 -22 -15.5 -37t-36.5 -15t-36 15t-15 37zM74 628l48 -13l-35 -132q18 -4 30.5 -18t12.5 -33q0 -22 -15.5 -37t-36.5 -15t-36 15t-15 37z" />
    <glyph glyph-name="quotedblright" unicode="&#x201d;" horiz-adv-x="295" 
d="M86 380l-48 13l35 132q-18 4 -30.5 18t-12.5 33q0 22 15.5 37t36.5 15t36 -15t15 -37zM222 380l-48 13l35 132q-18 4 -30.5 18t-12.5 33q0 22 15.5 37t36.5 15t36 -15t15 -37z" />
    <glyph glyph-name="quotedblbase" unicode="&#x201e;" horiz-adv-x="295" 
d="M86 -136l-48 13l35 132q-18 4 -30.5 18t-12.5 33q0 22 15.5 37t36.5 15t36 -15t15 -37zM222 -136l-48 13l35 132q-18 4 -30.5 18t-12.5 33q0 22 15.5 37t36.5 15t36 -15t15 -37z" />
    <glyph glyph-name="Euro" unicode="&#x20ac;" horiz-adv-x="608" 
d="M19 415v50h44q16 49 45 93q26 38 59.5 67.5t74.5 47.5q81 37 170 22q86 -17 154 -80l18 -18l-34 -36l-19 17q-27 27 -60 44t-68 23q-72 14 -141 -17q-33 -16 -62 -40.5t-51 -57.5q-10 -15 -18.5 -31.5t-14.5 -33.5h305v-50h-319q-2 -9 -3 -18.5t-2 -18.5q-2 -20 -1.5 -40
t3.5 -40h322v-50h-310q6 -23 17 -43q40 -80 111 -122q35 -20 74 -28.5t77 -3.5q39 5 75.5 22.5t65.5 46.5l19 17l34 -36l-18 -17q-35 -34 -79 -55.5t-91 -27.5q-8 -1 -17 -1.5t-18 -0.5q-78 0 -147 40q-42 24 -75 61.5t-56 82.5q-15 29 -24 65h-40v50h30q-6 44 -2 85
q1 8 1.5 16t2.5 16h-32z" />
    </font>
</defs>
</svg>
